<svg width="215" height="51" viewBox="0 0 215 51" fill="none" xmlns="http://www.w3.org/2000/svg">
<path d="M203.285 20.9787C203.285 19.1064 202.902 17.7021 202.135 16.766C201.369 15.8298 200.389 15.4043 199.197 15.4043C198.132 15.4043 197.28 15.8298 196.556 16.7234C195.832 17.617 195.491 19.1064 195.491 21.1915C195.491 23.149 195.875 24.5532 196.599 25.4894C197.323 26.383 198.217 26.8511 199.282 26.8511C200.432 26.8511 201.369 26.383 202.135 25.4894C202.902 24.5107 203.285 23.0213 203.285 20.9787ZM212.315 0V32.9787H203.924V29.4468C202.732 30.9362 201.667 31.9575 200.687 32.4681C199.41 33.149 197.961 33.4894 196.386 33.4894C193.191 33.4894 190.764 32.2553 189.06 29.7873C187.399 27.3192 186.547 24.2979 186.547 20.766C186.547 16.8085 187.484 13.7872 189.358 11.7021C191.232 9.61703 193.575 8.5532 196.428 8.5532C197.834 8.5532 199.111 8.80852 200.219 9.2766C201.369 9.74469 202.348 10.4681 203.243 11.4468V0H212.315ZM157.543 9.10639H165.891V12.9787C167.126 11.4043 168.404 10.2553 169.681 9.57447C170.959 8.89362 172.535 8.5532 174.366 8.5532C176.836 8.5532 178.796 9.31916 180.201 10.8085C181.607 12.2979 182.288 14.6383 182.288 17.7872V32.9787H173.259V19.8298C173.259 18.3404 173.003 17.2766 172.45 16.6383C171.896 16 171.129 15.7021 170.15 15.7021C169.085 15.7021 168.191 16.1277 167.509 16.9787C166.828 17.8298 166.487 19.3192 166.487 21.4894V32.9787H157.5V9.10639H157.543ZM142.807 9.10639H151.793V32.9787H142.807V9.10639ZM142.807 0H151.793V6.25532H142.807V0ZM112.397 0H121.383V12.1277C122.619 10.8511 123.811 9.9149 125.004 9.36171C126.196 8.80852 127.644 8.51064 129.305 8.51064C131.733 8.51064 133.65 9.2766 135.055 10.766C136.461 12.2979 137.142 14.5958 137.142 17.7447V32.9362H128.113V19.8298C128.113 18.3404 127.857 17.2766 127.304 16.6383C126.75 16 125.983 15.7021 125.004 15.7021C123.939 15.7021 123.044 16.1277 122.363 16.9787C121.682 17.8298 121.341 19.3192 121.341 21.4894V32.9787H112.354V0H112.397ZM97.6604 0H106.647V32.9787H97.6604V0ZM83.1796 21.617C81.9445 22.0851 80.6668 22.4681 79.3464 22.8085C77.515 23.3192 76.3651 23.7873 75.8966 24.2553C75.3855 24.766 75.13 25.3192 75.13 25.9575C75.13 26.6809 75.3855 27.2766 75.854 27.7021C76.3651 28.1702 77.0891 28.383 78.0261 28.383C79.0483 28.383 79.9427 28.1277 80.8371 27.6596C81.6889 27.149 82.2852 26.5532 82.6685 25.8298C83.0092 25.1064 83.2222 24.1702 83.2222 23.0638V21.617H83.1796ZM75.4281 16.8085L66.8674 15.8724C67.2081 14.3404 67.6766 13.1489 68.2729 12.2553C68.8691 11.3617 69.7635 10.6383 70.9135 9.95745C71.7227 9.48937 72.8727 9.14894 74.3207 8.89362C75.7688 8.6383 77.3021 8.51064 79.0057 8.51064C81.6889 8.51064 83.8611 8.68086 85.4795 8.97873C87.0979 9.2766 88.4609 9.9149 89.5682 10.8936C90.3348 11.5745 90.9311 12.5106 91.3996 13.7447C91.8255 14.9787 92.0385 16.1702 92.0385 17.2766V27.8298C92.0385 28.9362 92.1236 29.8298 92.2514 30.4681C92.3792 31.1064 92.6773 31.9149 93.1884 32.8936H84.7555C84.4147 32.2979 84.2018 31.8298 84.074 31.4894C83.9888 31.149 83.8611 30.6809 83.7759 29.9575C82.5833 31.1064 81.4334 31.9575 80.2834 32.4256C78.7076 33.1064 76.8336 33.4043 74.7467 33.4043C71.9357 33.4043 69.8487 32.7234 68.4006 31.4043C66.9526 30.0851 66.2285 28.4681 66.2285 26.5107C66.2285 24.6809 66.7396 23.1915 67.8044 22.0426C68.8691 20.8511 70.7857 20 73.5967 19.4468C76.9614 18.766 79.1335 18.2553 80.1557 18C81.1353 17.7447 82.2 17.3617 83.3074 16.8936C83.3074 15.7447 83.0944 14.9787 82.6259 14.5106C82.1574 14.0851 81.3908 13.8298 80.1983 13.8298C78.7502 13.8298 77.6428 14.0851 76.8762 14.5532C76.2373 15.0638 75.7688 15.7872 75.4281 16.8085Z" fill="#ED1C24"/>
<path fill-rule="evenodd" clip-rule="evenodd" d="M13.8849 25.0638L27.9824 0.0424805L37.906 16.1701C28.4083 12.3404 20.3587 15.9148 13.8849 25.0638Z" fill="#ED1C24"/>
<path fill-rule="evenodd" clip-rule="evenodd" d="M12.1381 29.1063C18.9526 20.0425 28.1096 16.2978 41.5256 22.1276L46.0402 29.7021C31.9427 22.3829 20.4858 21.7021 12.1381 29.1063Z" fill="#ED1C24"/>
<path fill-rule="evenodd" clip-rule="evenodd" d="M11.0312 31.2766C25.5547 21.6596 43.102 28 58.1791 49.2341L33.7747 49.3617C31.0489 34 23.4677 27.9574 11.0312 31.2766Z" fill="#ED1C24"/>
<path fill-rule="evenodd" clip-rule="evenodd" d="M3.53503 42.6383L0 49.4468H6.77192C5.36642 48.766 4.30166 46.5107 3.53503 42.6383Z" fill="#ED1C24"/>
<path d="M15.6732 31.2341C21.0823 31.2341 25.4691 35.3617 25.4691 40.4681C25.4691 45.5745 21.0823 49.7022 15.6732 49.7022C10.2642 49.7022 5.87738 45.5745 5.87738 40.4681C5.87738 35.3617 10.2642 31.2341 15.6732 31.2341Z" stroke="#ED1C24" stroke-width="1.0693" stroke-miterlimit="2.6131"/>
<path fill-rule="evenodd" clip-rule="evenodd" d="M16.4826 31.4042C16.4826 31.4042 15.7586 31.234 15.3752 31.3617C14.9919 31.4468 13.7568 31.8298 13.3735 31.8298C12.9902 31.8298 11.8402 32.0425 11.4569 32.2979C11.0736 32.5532 9.41254 33.2766 8.90145 34.0425C8.34777 34.8085 8.04964 34.8085 7.7515 35.2766C7.45337 35.7447 7.11264 36.1702 7.41078 36.1276C7.70891 36.0851 7.53855 35.8723 7.45337 36.2979C7.36819 36.7234 7.07005 37.1915 7.07005 36.9362C7.07005 36.6808 7.02746 36.5532 6.8571 36.8936C6.64415 37.234 6.13306 38.4681 6.13306 39.4893C6.13306 40.5106 5.9627 40.383 6.17565 41.5745C6.3886 42.7659 6.51637 43.5319 6.77192 44.1702C7.02746 44.8511 7.45337 45.4042 7.62373 45.5745C7.79409 45.7447 7.92187 46.0425 7.92187 46.0425C7.92187 46.0425 8.04964 45.8298 7.53855 45.2766C7.02746 44.7234 7.19783 44.2979 7.19783 44.2979C7.19783 44.2979 6.77192 43.4042 7.28301 42.7659C7.7941 42.1277 7.96446 41.7447 7.87928 41.4468C7.7941 41.1489 7.79409 41.0213 7.79409 41.0213C7.79409 41.0213 7.3256 41.1489 7.11264 41.1064C6.89969 41.0638 6.94228 40.4681 6.72933 39.8298C6.51637 39.1489 6.77192 37.5319 6.94228 37.4893C7.15523 37.4468 6.77192 38.0851 6.8571 38.7234C6.94228 39.3617 7.02746 39.6596 6.94228 40C6.8571 40.3404 7.02746 40.6808 7.02746 40.6808C7.02746 40.6808 7.15524 40.5106 7.7515 40.3404C8.34777 40.1702 7.96446 40.1702 8.34777 39.9149C8.73109 39.7021 8.39036 39.7872 8.81627 39.5745C9.24218 39.3617 8.90145 39.1915 9.157 39.0213C9.36995 38.8511 9.54031 38.7234 9.36995 38.6808C9.19959 38.6383 9.24218 38.383 9.07182 38.383C8.90145 38.3404 8.73109 38.1276 8.94404 37.9574C9.157 37.7872 8.73109 38.383 8.47555 38.2979C8.22 38.2128 8.39036 37.9574 8.39036 37.9574C8.39036 37.9574 8.00705 37.6596 8.26259 37.2766C8.47555 36.9362 8.60332 36.9362 8.60332 36.9362C8.60332 36.9362 8.39036 37.3617 8.60332 37.5745C8.64591 37.617 8.64591 37.7021 8.6885 37.7021C8.77368 37.7447 8.85886 37.7872 8.94404 37.7447C9.07182 37.617 9.19959 37.6596 9.19959 37.6596C9.19959 37.6596 9.19959 37.7872 9.24218 37.9149C9.28477 38.0425 9.36995 38.0851 9.88104 38.0851C10.9458 38.1276 10.6903 38.0851 10.6903 38.0851C10.6903 38.0851 10.7754 38.1702 10.8606 38.2979C10.9032 38.383 10.8606 38.5532 10.9884 38.5532C11.1162 38.5532 11.4143 38.6383 11.1588 38.6383C11.1162 38.6383 11.1588 38.7234 11.2013 38.8085C11.2013 38.8936 11.2865 38.9362 11.3717 39.0638C11.5847 39.2766 11.8402 38.9787 11.8402 38.9787C11.8402 38.9787 11.6273 39.4042 12.0532 40.383C12.4791 41.4042 12.8198 42.2979 13.0327 42.1277C13.2457 41.9574 13.0327 41.9574 13.2457 41.9149C13.4587 41.8298 13.2883 41.7447 13.4161 41.617C13.5438 41.4894 13.5012 41.3617 13.5012 41.2766C13.5012 41.1915 13.5438 41.1064 13.629 41.0638C13.6716 41.0213 13.629 40.9362 13.629 40.8085C13.5864 40.6383 13.5012 40.3404 13.7142 40.2553C13.8846 40.1702 14.1401 40.0851 14.0975 39.9149C14.0549 39.7447 14.3105 39.9149 14.6512 39.4893C14.9493 39.0638 14.9493 39.234 15.1197 39.1064C15.2901 39.0213 14.9493 38.7659 15.2901 38.6383C15.3752 38.6383 15.4178 38.7234 15.4604 38.7234C15.5456 38.7234 15.5456 38.5957 15.5882 38.5532C15.6308 38.5106 15.7586 38.5957 15.8437 38.5532C15.9289 38.5106 15.9715 38.5106 16.0567 38.4681C16.0993 38.4681 16.0567 38.2979 16.0993 38.2979C16.1419 38.2979 16.2696 38.383 16.2696 38.3404C16.3122 38.2553 16.3974 38.5957 16.5678 38.7659C16.6104 38.8085 16.653 38.7659 16.6955 38.8936C16.7381 39.0213 16.8659 39.1064 16.9511 39.1915C17.0789 39.2766 17.2492 39.4893 17.1215 39.7021C17.0789 39.7872 17.2066 39.7872 17.164 39.8723C17.1215 39.9149 17.2066 39.9574 17.377 39.9149C17.5048 39.8723 17.5474 39.8298 17.59 39.7447C17.6751 39.617 17.6325 39.4042 17.6325 39.3617C17.59 39.2766 17.9733 39.7447 18.0159 40.0851C18.0584 40.383 18.2288 40.7659 18.2288 40.9787C18.1862 41.234 18.1862 41.4893 18.2714 41.4468C18.3566 41.4042 18.2288 41.8723 18.4418 41.7872C18.6547 41.7021 18.5269 41.9149 18.6121 42.0851C18.6973 42.2553 18.7399 41.9574 18.7825 42.1702C18.8251 42.383 18.8251 42.5106 18.9954 42.6808C19.1658 42.8511 19.0806 42.9362 18.9954 42.9787C18.9103 43.0213 18.6121 42.7659 18.4418 42.7234C18.2714 42.6383 18.3992 42.5106 18.1436 42.5106C17.8455 42.5106 17.8029 42.5957 17.6751 42.4255C17.5474 42.2553 17.5474 42.6383 17.9307 42.7659C18.314 42.9362 18.1436 43.0213 18.3992 43.1489C18.6547 43.2766 18.5269 43.5319 18.7399 43.5745C18.9529 43.6596 18.9954 44.0425 19.2936 44.2128C19.5917 44.4255 19.7621 44.5957 20.0176 44.5957C20.2306 44.6383 19.8898 44.8511 20.5713 44.8511C21.2102 44.8511 20.7417 44.7234 21.2102 44.7659C21.6787 44.8085 21.5935 44.7234 21.7638 44.6808C21.8916 44.6383 22.062 44.6383 22.2323 44.5957C22.4027 44.5532 22.4879 44.4255 22.6157 44.383C22.7434 44.3404 22.7434 44.4255 22.7008 44.4681C22.6582 44.5532 22.6582 44.6383 22.8286 44.5957C22.999 44.5532 22.7008 44.4255 22.786 44.3404C22.9138 44.2553 23.0841 44.2128 23.2545 44.1702C23.3823 44.0851 23.3397 44.2979 23.2545 44.383C23.1693 44.4681 23.2119 44.5957 23.4675 44.2128C23.6804 43.7872 23.8082 43.8298 23.8082 43.8298C23.8082 43.8298 24.1063 43.3617 24.1915 43.234C24.2767 43.1064 24.1489 43.3191 23.9786 43.4894C23.8082 43.6596 23.6378 43.8723 23.4249 44C23.2119 44.1276 22.999 44.1276 22.8712 44.2128C22.7434 44.2979 22.4453 44.383 22.6157 44.2553C22.7434 44.1702 22.7434 44.1277 22.9138 44.0425C23.0841 43.9574 23.0416 43.8298 22.7434 44.0425C22.4027 44.2553 22.4027 44.383 22.2749 44.4255C22.1472 44.5106 21.9768 44.5106 21.8064 44.5106C21.6361 44.5106 21.7212 44.4255 21.9342 44.3404C22.1472 44.2979 22.1472 44.2128 21.849 44.2979C21.5509 44.383 21.5509 44.4255 21.3379 44.383C21.125 44.3404 21.3805 44.4681 21.1676 44.5106C20.9546 44.5532 20.7843 44.5532 20.7417 44.4681C20.6991 44.4255 20.8694 44.4255 20.5713 44.4255C20.2732 44.4255 20.1454 44.5106 20.188 44.2979C20.2306 44.0851 20.2732 44.0851 20.4861 43.9574C20.6991 43.8723 20.7417 43.9149 20.7843 43.7872C20.8268 43.6596 20.912 43.4468 20.6565 43.6596C20.4009 43.8298 20.3583 43.7447 20.3583 43.617C20.3583 43.5319 20.3583 43.4894 20.2306 43.5319C20.1028 43.5745 20.1454 43.4894 20.1028 43.3191C20.0602 43.1489 20.0602 43.1489 19.9324 42.9787C19.8047 42.8085 19.7621 42.8085 19.8047 42.7234C19.8473 42.6383 19.6343 42.8511 19.6343 42.7234C19.6769 42.5957 19.7621 42.2553 19.4213 42.0851C19.0806 41.8723 19.251 41.8723 18.9954 41.8723C18.7399 41.8723 18.9103 41.7872 18.8251 41.6596C18.7399 41.5319 18.7399 41.4894 18.7399 41.3617C18.7825 41.234 18.6973 41.3617 18.5695 41.3191C18.4418 41.2766 18.4844 41.1915 18.5269 41.0638C18.5695 40.8936 18.6547 40.8085 18.6973 40.6808C18.7399 40.5532 18.6121 40.3404 18.7399 40.383C18.8677 40.4255 18.7399 40.5957 18.9954 40.5957C19.251 40.5957 19.2084 40.5532 19.4213 40.7659C19.6343 40.9787 19.5917 40.9362 19.8047 41.0213C20.0176 41.1064 19.8473 41.1489 19.8473 41.234C19.8473 41.3617 19.9324 41.4468 20.188 41.1489C20.4861 40.8511 20.188 40.8936 20.4009 40.7659C20.6139 40.5957 20.7417 40.5106 20.7417 40.4255C20.7417 40.3404 20.5713 39.7447 20.3583 39.5745C20.1454 39.4042 19.5917 39.0213 19.6343 38.8511C19.6769 38.6808 19.975 38.3404 20.0176 38.2979C20.0602 38.2128 20.188 38.1702 20.3158 38.3404C20.4009 38.5106 20.4435 38.6383 20.4435 38.6383C20.4435 38.6383 20.1028 38.8085 20.3583 38.9787C20.6139 39.1489 20.7843 38.7234 20.6991 38.5957C20.6139 38.4255 20.4009 38.3404 20.7417 38.2553C21.0824 38.1702 21.2102 38 21.3379 37.9149C21.4657 37.8298 21.5509 37.7447 21.6361 37.5319C21.6787 37.3191 21.8064 37.234 21.8064 37.1064C21.8064 36.9787 21.7212 36.8511 21.8064 36.6808C21.8916 36.5106 21.849 36 21.5935 35.8298C21.3379 35.6596 21.3379 35.4893 21.1676 35.4468C20.8694 35.4042 20.8268 35.3617 20.8694 35.1915C20.9546 35.0213 21.125 34.9787 20.912 34.8936C20.6991 34.8085 20.6139 34.851 20.5287 34.7659C20.4009 34.6383 20.5713 34.2553 20.6565 34.383C20.7843 34.5106 20.5713 34.8085 20.8268 34.5532C21.0824 34.2553 21.0398 34.6383 21.125 34.7234C21.2102 34.7659 21.2102 34.9787 21.3805 34.9787C21.5509 35.0213 21.6361 35.4468 21.849 35.4893C22.062 35.5319 21.8916 35.3617 21.9342 35.3191C21.9768 35.2766 21.9768 35.1915 21.849 35.0638C21.6787 34.9362 21.3379 34.7234 21.2953 34.6808C21.2527 34.5957 21.2527 34.5957 21.2953 34.4681C21.3379 34.383 21.2527 34.3404 21.2102 34.2127C21.1676 34.0425 21.125 34.0425 21.3379 34.0851C21.5509 34.1276 21.5509 33.8723 21.2953 33.617C21.0398 33.3617 20.5713 32.9787 20.5713 32.9787C20.5713 32.9787 21.2102 33.4042 21.3805 33.4893C21.5509 33.5745 21.849 33.8723 21.8916 33.9574C21.9342 34 21.9342 34.1276 22.1046 34.2979C22.2749 34.4681 22.4027 34.5957 22.4027 34.7234C22.4027 34.8511 22.4453 34.9362 22.4453 35.1064C22.4453 35.234 22.4453 35.1915 22.3601 35.1915C22.2749 35.1915 22.3175 35.1915 22.2749 35.3617C22.2323 35.5319 22.2323 35.7021 22.4453 35.8298C22.6582 35.9149 22.4879 36.0851 22.6582 36.1702C22.8286 36.2553 22.7008 36.4681 22.7434 36.5957C22.786 36.7234 22.7008 36.8511 22.7008 36.8511C22.7008 36.8511 22.5305 36.8085 22.5731 37.0213C22.6157 37.1915 22.5305 37.3191 22.5305 37.3191C22.5305 37.3191 22.3175 37.4042 22.3601 37.4893C22.3601 37.5319 22.1472 37.5745 22.1472 37.4893C22.1046 37.4042 21.849 37.2766 21.849 37.4042C21.849 37.5745 21.8064 37.7447 22.062 38C22.3601 38.2553 22.2749 38 22.1472 37.7872C22.0194 37.5745 22.062 37.5319 22.062 37.5319C22.062 37.5319 22.2749 37.6596 22.3601 37.617C22.4453 37.617 22.4879 37.5745 22.5305 37.4893C22.5731 37.3617 22.5731 37.3191 22.6157 37.2766C22.6582 37.1915 22.6582 37.1064 22.6582 37.1064C22.6582 37.1064 22.7008 36.9787 22.7434 36.8936C22.786 36.8085 22.7434 36.6383 22.786 36.5106C22.8286 36.3404 22.786 36.2128 22.786 36.2128C22.786 36.2128 22.5731 36.0425 22.5731 35.8298C22.5731 35.617 22.5731 35.7447 22.7008 35.617C22.8286 35.4893 22.786 35.4468 22.8712 35.3617C22.9564 35.2766 22.7434 35.1064 22.7008 34.9787C22.6582 34.851 22.4879 34.7659 22.4027 34.5957C22.2749 34.4255 22.1046 34.2127 22.1046 34.2127C22.1046 34.2127 22.1897 34.2553 22.2749 34.2979C22.3601 34.383 22.3601 34.2127 22.3601 34.2127C22.3601 34.2127 22.2323 33.9149 22.062 33.7872C21.8916 33.617 21.7638 33.5319 21.7638 33.5319C21.7638 33.5319 22.062 33.7872 22.062 33.9149C22.1046 34.0425 21.8064 33.7872 21.8064 33.7872C21.8064 33.7872 21.2102 33.4042 21.0824 33.2766C20.9546 33.1489 20.3583 32.7659 20.3583 32.7234C20.3158 32.6808 20.6139 33.0638 20.1454 32.7659C19.7195 32.4681 19.5491 32.3404 19.7621 32.383C19.975 32.4255 19.8473 32.383 19.8473 32.383C19.8473 32.383 18.9954 31.9574 18.101 31.7872C17.2066 31.617 16.6955 31.5319 16.5252 31.5319C16.44 31.4468 16.4826 31.4042 16.4826 31.4042Z" fill="#ED1C24"/>
<path fill-rule="evenodd" clip-rule="evenodd" d="M9.75303 34.2553C9.75303 34.2553 9.36972 34.383 9.36972 34.6808C9.32713 34.9787 9.36972 35.0638 9.32713 35.1915C9.28454 35.3191 8.85863 35.6596 8.9864 35.7021C9.07159 35.7447 9.02899 35.8723 9.19936 35.8723C9.36972 35.8723 9.54008 35.7872 9.58267 35.617C9.62526 35.4468 9.58267 35.3191 9.62526 35.1915C9.71044 35.0213 9.83822 34.9787 9.79563 34.8085C9.75303 34.6383 9.71044 34.5957 9.71044 34.4681C9.75303 34.3404 9.75303 34.2553 9.75303 34.2553Z" fill="#ED1C24"/>
<path fill-rule="evenodd" clip-rule="evenodd" d="M8.47593 34.6808C8.47593 34.6808 8.6037 34.4255 8.68888 34.6383C8.81666 34.851 8.81666 35.0213 8.64629 35.0638C8.47593 35.1064 8.34816 35.1915 8.34816 35.1915C8.34816 35.1915 8.34816 34.9787 8.22039 35.0638C8.09262 35.1489 7.92225 35.1915 8.09262 35.0213C8.26298 34.8085 8.30557 34.7234 8.30557 34.7234C8.30557 34.7234 8.64629 34.383 8.6037 34.4681C8.64629 34.5532 8.47593 34.6808 8.47593 34.6808Z" fill="#ED1C24"/>
<path fill-rule="evenodd" clip-rule="evenodd" d="M22.4027 39.0639C22.4453 39.1064 22.2749 38.9362 22.3601 38.766C22.4453 38.5958 22.5304 38.4256 22.6156 38.5958C22.6582 38.766 22.573 38.8936 22.7008 38.9788C22.8286 39.0639 22.7008 38.8511 22.7008 39.1915C22.7008 39.5319 22.6156 39.4043 22.9138 39.4043C23.2119 39.4043 23.2545 39.6171 23.4249 39.7873C23.5526 39.9575 23.5526 40.1277 23.6804 40.383C23.8082 40.6383 23.8508 40.766 23.723 40.8936C23.5952 40.9788 23.6378 41.0213 23.6378 41.1064C23.6378 41.1915 23.3397 41.2766 23.3823 41.0639C23.3823 40.8511 23.2971 40.9788 23.2971 40.9788C23.2971 40.9788 23.2119 41.2341 23.0841 41.4043C22.9564 41.5745 22.8712 41.7022 22.7434 41.7447C22.573 41.7873 22.2749 41.9149 22.4879 42.1277C22.7434 42.3405 22.4027 42.2979 22.5304 42.4256C22.6582 42.5532 22.7008 42.5532 22.573 42.5958C22.4453 42.6383 22.2749 42.6809 22.4027 42.766C22.5304 42.8511 22.5304 42.9362 22.3601 42.9788C22.1897 43.0213 22.1471 43.0213 22.1897 43.2341C22.1897 43.4468 22.1897 43.6171 22.1897 43.6171C22.1897 43.6171 22.2323 43.4468 22.1045 43.4894C21.9768 43.5319 21.7638 43.8724 21.8064 43.5319C21.849 43.1915 21.636 43.4894 21.5083 43.6596C21.3805 43.8298 21.1675 43.8298 21.1675 43.8298C21.1675 43.8298 20.9972 43.7873 21.0398 43.6596C21.0824 43.5319 20.9972 43.5319 20.9546 43.4468C20.912 43.3617 21.0398 43.4043 20.912 43.2341C20.7842 43.0639 20.699 43.149 20.7842 42.9788C20.8694 42.8085 20.699 42.6383 20.912 42.6809C21.125 42.7234 20.8268 42.8511 21.1675 42.5958C21.5083 42.3405 21.5083 42.3405 21.636 42.1277C21.7638 41.9575 21.849 42.0851 21.9768 41.7873C22.0619 41.4894 22.0619 41.4043 22.1471 41.2766C22.2323 41.1915 22.4027 41.3617 22.5304 41.4468C22.6582 41.5319 22.5304 41.6171 22.7434 41.4468C22.9138 41.3192 22.9564 41.2341 22.9564 41.0639C22.9564 40.8936 22.9989 40.6383 23.2119 40.6809C23.4249 40.7234 23.4249 40.7234 23.4674 40.5958C23.4674 40.4681 23.4249 40.2553 23.4249 40.383C23.4249 40.4681 23.3823 40.5958 23.1693 40.4256C22.9989 40.2554 22.9564 40.3405 22.9564 40.1277C22.9564 39.9149 23.0841 40.0426 22.8286 39.8298C22.573 39.6596 22.573 39.7022 22.6156 39.5745C22.6582 39.4043 22.4453 39.4043 22.4453 39.4043V39.1915C22.4453 39.2766 22.3601 39.0213 22.4027 39.0639Z" fill="#ED1C24"/>
<path fill-rule="evenodd" clip-rule="evenodd" d="M25.2989 42.0852H25.0008L24.873 42.3405C24.873 42.3405 24.5323 42.4681 24.6175 42.383C24.7027 42.2979 24.5749 42.2554 24.5749 42.2554L24.5323 42.1703L24.3193 42.1277C24.3193 42.1277 24.1064 42.2128 24.2342 42.3405C24.3619 42.4681 24.4471 42.383 24.4471 42.5958C24.4471 42.8086 24.4471 42.9788 24.4471 42.9788C24.4471 42.9788 24.4897 42.8511 24.6175 42.766C24.7452 42.6809 24.7452 42.766 24.7452 42.8937C24.7452 43.0213 24.5323 43.2341 24.5323 43.2341C24.5323 43.2341 24.6175 43.4043 24.7452 43.2766C24.8304 43.149 24.7878 43.149 24.7878 43.4043C24.7878 43.6596 24.7027 43.9149 24.5749 44.0852C24.4471 44.2128 24.4897 44.4256 24.3619 44.5107C24.2342 44.5532 24.2768 44.5958 24.3193 44.383C24.3619 44.2128 24.4897 44.0426 24.4897 44.0426L24.2342 44.2128C24.2342 44.2128 24.0212 44.0426 23.8934 44.2979C23.7657 44.5532 23.8934 44.8086 23.6805 44.8937C23.4675 44.9788 23.5953 44.8511 23.4249 44.9362C23.2546 45.0213 23.3398 44.9362 23.0842 45.1915C22.8713 45.4469 22.5731 45.7022 22.5731 45.8724C22.5731 46.0001 22.5731 46.0426 22.1898 46.2979C21.8491 46.5532 21.5084 46.8086 21.2954 46.9788C21.0825 47.149 20.8695 47.2341 20.8695 47.4894C20.8695 47.7447 20.7417 47.6596 20.7843 47.9149C20.8269 48.1277 20.7843 48.1703 20.614 48.2554C20.4436 48.3405 20.9547 48.2128 21.2102 48.0426C21.4658 47.8724 21.7213 47.7873 21.9769 47.5745C22.2324 47.3618 22.3602 47.1915 22.5305 47.1064C22.7009 47.0213 23.212 46.5532 23.2972 46.3405C23.3823 46.1277 23.9786 45.3618 24.1064 45.1915C24.2342 45.0213 24.3193 44.8511 24.3619 44.6809C24.4045 44.5107 24.7878 43.8724 24.9156 43.2766C25.1286 42.6384 25.2563 42.0426 25.2989 42.0852Z" fill="#ED1C24"/>
<path fill-rule="evenodd" clip-rule="evenodd" d="M8.60353 46.6809C8.60353 46.6809 8.51835 46.383 8.39058 46.2553C8.2628 46.1277 8.17762 46 8.2628 45.9575C8.39058 45.9149 8.43317 45.9575 8.43317 45.8298C8.43317 45.7021 8.34798 45.5319 8.47576 45.617C8.56094 45.7021 8.90166 46.1277 8.94425 46.2979C8.98684 46.4681 8.94425 46.7234 9.11462 46.9362C9.28498 47.1489 9.1998 47.2766 9.28498 47.2766C9.37016 47.2766 9.15721 47.2766 8.94425 47.0638C8.7313 46.766 8.60353 46.6809 8.60353 46.6809Z" fill="#ED1C24"/>
<path fill-rule="evenodd" clip-rule="evenodd" d="M23.5103 41.9574C23.5103 41.9574 23.4677 42.1702 23.3825 42.2979C23.2973 42.4255 23.1695 42.383 22.9992 42.4255C22.8288 42.4255 22.8288 42.5532 22.7862 42.6383C22.7862 42.766 22.5733 42.8511 22.5733 43.0638C22.6159 43.2766 22.5307 43.2766 22.5307 43.4043C22.4881 43.5319 22.5733 43.4043 22.6159 43.5319C22.6584 43.6596 22.3603 44.0426 22.6159 43.9574C22.8714 43.8723 22.8714 43.7447 22.8288 43.617C22.7862 43.4894 22.8288 43.0213 22.8288 43.1915C22.8288 43.3617 22.7862 43.3191 22.914 43.5319C23.0418 43.7021 22.9566 43.7447 23.0844 43.7447C23.2547 43.7447 23.2973 43.8298 23.2547 43.6596C23.2121 43.4894 23.1695 43.4894 23.1269 43.4043C23.0844 43.2766 22.9992 43.234 22.9992 43.1489C22.9992 43.1064 22.9566 43.1064 23.1269 43.0213C23.2973 42.9787 23.0418 42.9362 23.3825 42.9362C23.7658 42.9362 23.8084 42.9787 23.851 42.8085C23.8936 42.6383 23.9362 42.8085 23.9362 42.5106C23.9362 42.2128 23.9362 42.1277 23.9788 42C24.0213 41.8723 23.8936 41.5745 23.8936 41.7872C23.8936 42 23.8084 42.2128 23.7658 42.3404C23.7658 42.4255 23.7232 42.4681 23.7658 42.5957C23.8084 42.7234 23.8084 42.766 23.5954 42.8511C23.4251 42.8936 23.3825 42.9787 23.2973 42.8511C23.2547 42.7234 23.2973 42.5532 23.0844 42.7234C22.914 42.8936 22.9992 43.0638 22.8714 43.0213C22.7436 42.9787 22.6584 42.9362 22.7862 42.8511C22.8714 42.7234 22.8714 42.6383 23.0418 42.6383C23.2121 42.5957 23.1695 42.6809 23.3399 42.5957C23.5528 42.5532 23.638 42.2553 23.5528 42.1702C23.5528 41.9574 23.5103 41.9574 23.5103 41.9574Z" fill="#ED1C24"/>
<path fill-rule="evenodd" clip-rule="evenodd" d="M13.6719 41.6596L13.8423 41.8724C13.8423 41.8724 13.9701 42 14.0127 42.1702C14.0552 42.3405 14.2682 42.383 14.0552 42.5107C13.8423 42.6383 13.5867 42.6383 13.5867 42.4256C13.5867 42.2554 13.5016 42.2128 13.5442 42.0851C13.5442 41.9575 13.6293 41.9575 13.6293 41.8724C13.6293 41.7873 13.6293 41.7447 13.6293 41.7447L13.6719 41.6596Z" fill="#ED1C24"/>
<path d="M73.0858 40.8085V43.8723H72.8303C72.5321 43.0213 72.1062 42.383 71.5526 41.9574C70.9989 41.5319 70.36 41.3191 69.6786 41.3191C69.0397 41.3191 68.486 41.4893 68.0601 41.8723C67.6342 42.2553 67.3361 42.7659 67.1231 43.4042C66.9528 44.0425 66.8676 44.7234 66.8676 45.4468C66.8676 46.2978 66.9528 47.0213 67.1657 47.6596C67.3787 48.2979 67.6768 48.7659 68.1027 49.0638C68.5286 49.3617 69.0823 49.4893 69.6786 49.4893C69.8915 49.4893 70.1045 49.4468 70.3174 49.4042C70.5304 49.3617 70.7859 49.2766 70.9989 49.1915V47.3617C70.9989 47.0213 70.9563 46.8085 70.9137 46.6808C70.8711 46.5957 70.7859 46.4681 70.6156 46.4255C70.4878 46.3404 70.2748 46.2978 70.0619 46.2978H69.8489V46.0425H74.108V46.2978C73.7673 46.3404 73.5543 46.383 73.4265 46.4255C73.2988 46.5106 73.2136 46.5957 73.1284 46.7659C73.0858 46.851 73.0858 47.0638 73.0858 47.3617V49.1915C72.5321 49.4468 71.9359 49.617 71.3396 49.7447C70.7433 49.8723 70.1045 49.9149 69.4656 49.9149C68.6564 49.9149 67.9323 49.7872 67.4213 49.5744C66.8676 49.3617 66.3991 49.0638 65.9732 48.6808C65.5473 48.2978 65.2065 47.9149 64.9936 47.4468C64.6955 46.851 64.5251 46.1702 64.5251 45.4468C64.5251 44.1276 64.9936 43.0213 65.9306 42.1276C66.8676 41.234 68.0175 40.7659 69.423 40.7659C69.8489 40.7659 70.2322 40.8085 70.6156 40.851C70.7859 40.8936 71.1266 40.9787 71.5526 41.1489C71.9785 41.3191 72.234 41.4042 72.3192 41.4042C72.447 41.4042 72.5321 41.3617 72.6599 41.2766C72.7451 41.1915 72.8729 41.0212 72.958 40.7659H73.0858V40.8085Z" fill="#ED1C24"/>
<path d="M77.728 41.4894V45.3192H78.1113C78.7076 45.3192 79.1335 45.2766 79.4316 45.149C79.7297 45.0213 79.9427 44.8511 80.113 44.5532C80.2834 44.2553 80.3686 43.9149 80.3686 43.4468C80.3686 42.766 80.1982 42.2979 79.9001 41.9575C79.602 41.6596 79.0909 41.4894 78.4094 41.4894H77.728ZM77.728 45.7873V48.2553C77.728 48.7234 77.7706 49.0213 77.8131 49.149C77.8557 49.2766 77.9835 49.3617 78.1113 49.4468C78.2391 49.5319 78.5372 49.5745 78.9205 49.5745V49.8298H74.4485V49.5745C74.8318 49.5745 75.1299 49.5319 75.2577 49.4468C75.3855 49.3617 75.5132 49.2766 75.5558 49.149C75.5984 49.0213 75.641 48.7234 75.641 48.2553V42.5958C75.641 42.1277 75.5984 41.8298 75.5558 41.7022C75.5132 41.5745 75.3855 41.4894 75.2577 41.4043C75.1299 41.3192 74.8318 41.2766 74.4485 41.2766V41.0213H78.4946C79.5594 41.0213 80.326 41.1064 80.7945 41.2341C81.263 41.3617 81.6889 41.6596 81.987 42.0426C82.2852 42.4256 82.4555 42.8936 82.4555 43.4043C82.4555 44.0426 82.2426 44.5958 81.7741 45.0213C81.4759 45.2766 81.05 45.4894 80.539 45.617L82.6259 48.5532C82.8814 48.9362 83.0944 49.1915 83.2222 49.2766C83.3925 49.4043 83.6055 49.4894 83.8184 49.4894V49.7447H81.05L78.2391 45.7447H77.728V45.7873Z" fill="#ED1C24"/>
<path d="M88.9291 41.3191C88.1198 41.3191 87.5236 41.7446 87.0977 42.5531C86.7569 43.234 86.5866 44.1702 86.5866 45.4468C86.5866 46.9361 86.8421 48.0425 87.3532 48.7659C87.7365 49.2765 88.2476 49.5319 88.8865 49.5319C89.3124 49.5319 89.6957 49.4042 89.9938 49.1914C90.3771 48.9361 90.6753 48.468 90.8882 47.8723C91.1012 47.2765 91.1864 46.468 91.1864 45.5319C91.1864 44.3829 91.0586 43.5319 90.8456 42.9361C90.6327 42.3829 90.3771 41.9574 90.0364 41.7021C89.7383 41.4468 89.355 41.3191 88.9291 41.3191ZM88.8439 40.8936C90.2494 40.851 91.3567 41.234 92.2511 42.1276C93.1029 42.9787 93.5714 44.0851 93.5714 45.3617C93.5714 46.468 93.2307 47.4468 92.5918 48.2978C91.74 49.4042 90.5049 49.9574 88.9291 49.9574C87.3532 49.9574 86.1607 49.4468 85.2663 48.3404C84.5848 47.4893 84.2441 46.5106 84.2441 45.3617C84.2441 44.0851 84.67 42.9787 85.5644 42.1276C86.5014 41.234 87.5662 40.851 88.8439 40.8936Z" fill="#ED1C24"/>
<path d="M94.3385 41.0213H98.8531V41.2766H98.6402C98.2994 41.2766 98.0865 41.3192 97.9587 41.3617C97.8309 41.4468 97.7457 41.5319 97.7032 41.6596C97.6606 41.7873 97.618 42.0851 97.618 42.5958V46.8511C97.618 47.6171 97.6606 48.1702 97.7883 48.4256C97.9161 48.6809 98.0865 48.8936 98.3846 49.0639C98.6402 49.2341 98.9809 49.3192 99.4068 49.3192C99.8753 49.3192 100.301 49.2341 100.599 49.0213C100.94 48.8085 101.196 48.5107 101.366 48.1277C101.536 47.7447 101.621 47.1064 101.621 46.1702V42.5958C101.621 42.2128 101.579 41.9149 101.494 41.7447C101.409 41.5745 101.323 41.4468 101.196 41.4043C100.983 41.3192 100.727 41.2766 100.386 41.2766V41.0213H103.41V41.2766H103.24C102.984 41.2766 102.771 41.3192 102.644 41.4043C102.473 41.4894 102.346 41.6596 102.303 41.8298C102.26 41.9575 102.218 42.2128 102.218 42.5532V45.8724C102.218 46.8936 102.133 47.6596 102.005 48.0851C101.877 48.5532 101.536 48.9788 101.025 49.3192C100.514 49.7022 99.7901 49.8724 98.8957 49.8724C98.1291 49.8724 97.5754 49.7873 97.1495 49.5745C96.5958 49.3192 96.1699 48.9362 95.9569 48.5107C95.744 48.0851 95.6162 47.4894 95.6162 46.766V42.5107C95.6162 42 95.5736 41.7022 95.531 41.5745C95.4884 41.4468 95.3607 41.3617 95.2329 41.2766C95.1051 41.1915 94.8496 41.149 94.4663 41.1915V41.0213H94.3385Z" fill="#ED1C24"/>
<path d="M107.115 41.5319V45.3191C107.243 45.3191 107.371 45.3191 107.456 45.3191C107.967 45.3191 108.393 45.1489 108.649 44.851C108.947 44.5532 109.075 44.0425 109.075 43.4042C109.075 42.7659 108.947 42.2978 108.649 42C108.351 41.7021 107.925 41.5319 107.371 41.5319H107.115V41.5319ZM107.115 45.7872V48.2127C107.115 48.6808 107.158 48.9787 107.201 49.1064C107.243 49.234 107.371 49.3191 107.499 49.4042C107.669 49.4893 107.925 49.5319 108.308 49.5319V49.7872H103.879V49.5319C104.304 49.5319 104.56 49.4893 104.688 49.4042C104.816 49.3191 104.943 49.234 104.986 49.1064C105.028 48.9787 105.071 48.6808 105.071 48.2127V42.5532C105.071 42.0851 105.028 41.7872 104.986 41.6595C104.943 41.5319 104.816 41.4468 104.688 41.3617C104.56 41.2766 104.262 41.234 103.879 41.234V40.9787H107.669C108.904 40.9787 109.841 41.1915 110.352 41.6595C110.906 42.0851 111.162 42.6808 111.162 43.3191C111.162 43.8723 110.991 44.383 110.65 44.7659C110.31 45.1489 109.799 45.4468 109.202 45.5744C108.819 45.7447 108.095 45.7872 107.115 45.7872Z" fill="#ED1C24"/>
<path d="M119.381 41.3191C118.572 41.3191 117.976 41.7446 117.55 42.5531C117.209 43.234 117.039 44.1702 117.039 45.4468C117.039 46.9361 117.294 48.0425 117.806 48.7659C118.189 49.2765 118.7 49.5319 119.339 49.5319C119.765 49.5319 120.148 49.4042 120.446 49.1914C120.829 48.9361 121.128 48.468 121.341 47.8723C121.554 47.2765 121.639 46.468 121.639 45.5319C121.639 44.3829 121.511 43.5319 121.298 42.9361C121.085 42.3829 120.829 41.9574 120.489 41.7021C120.191 41.4468 119.807 41.3191 119.381 41.3191ZM119.296 40.8936C120.702 40.851 121.809 41.234 122.703 42.1276C123.555 42.9787 124.024 44.0851 124.024 45.3617C124.024 46.468 123.683 47.4468 123.044 48.2978C122.192 49.4042 120.957 49.9574 119.381 49.9574C117.806 49.9574 116.613 49.4468 115.719 48.3404C115.037 47.4893 114.696 46.5106 114.696 45.3617C114.696 44.0851 115.122 42.9787 116.017 42.1276C116.911 41.234 117.976 40.851 119.296 40.8936Z" fill="#ED1C24"/>
<path d="M128.07 41.5319V45.1064H128.325C128.709 45.1064 129.007 45.0638 129.262 44.9362C129.518 44.8085 129.731 44.6383 129.901 44.3404C130.071 44.0851 130.199 43.7021 130.242 43.2341H130.455V47.617H130.242C130.157 46.8085 129.944 46.2553 129.56 46C129.177 45.7447 128.794 45.617 128.325 45.617H128.07V48.2979C128.07 48.7234 128.112 49.0213 128.155 49.149C128.197 49.2766 128.283 49.3617 128.453 49.4468C128.581 49.5319 128.794 49.5745 129.049 49.5745H129.347V49.8298H124.79V49.5745H125.088C125.344 49.5745 125.557 49.5319 125.685 49.4468C125.812 49.4043 125.898 49.2766 125.94 49.149C125.983 49.0638 126.025 48.766 126.025 48.3404V42.5958C126.025 42.1702 125.983 41.8724 125.94 41.7447C125.898 41.617 125.812 41.5319 125.642 41.4468C125.514 41.3617 125.301 41.3192 125.046 41.3192H124.748V41.0638H132.116V43.5745H131.86C131.818 42.9787 131.647 42.5532 131.392 42.2553C131.136 41.9575 130.796 41.7872 130.327 41.6596C130.071 41.617 129.603 41.5745 128.879 41.5745H128.07V41.5319Z" fill="#ED1C24"/>
<path d="M144.127 40.8085V43.8298H143.872C143.701 43.0213 143.318 42.4255 142.807 42C142.296 41.5745 141.7 41.3617 141.061 41.3617C140.507 41.3617 139.996 41.5319 139.57 41.8298C139.102 42.1276 138.761 42.5532 138.59 43.0638C138.335 43.7021 138.165 44.4255 138.165 45.234C138.165 46 138.25 46.7234 138.463 47.3617C138.676 48 138.974 48.4681 139.4 48.8085C139.826 49.1489 140.379 49.3191 141.018 49.3191C141.572 49.3191 142.083 49.1915 142.509 48.9787C142.977 48.7234 143.446 48.3404 143.957 47.7447V48.5106C143.446 49.0213 142.977 49.4042 142.424 49.617C141.913 49.8298 141.274 49.9574 140.55 49.9574C139.613 49.9574 138.803 49.7872 138.079 49.4042C137.355 49.0213 136.802 48.5106 136.418 47.7872C136.035 47.1064 135.822 46.3404 135.822 45.5319C135.822 44.6808 136.035 43.9149 136.461 43.1489C136.887 42.383 137.483 41.8298 138.207 41.4042C138.931 40.9787 139.74 40.7659 140.55 40.7659C141.146 40.7659 141.827 40.8936 142.509 41.1489C142.892 41.3191 143.148 41.3617 143.275 41.3617C143.403 41.3617 143.531 41.3191 143.616 41.1915C143.701 41.1064 143.787 40.9362 143.829 40.7234H144.127V40.8085Z" fill="#ED1C24"/>
<path d="M150.047 41.3191C149.238 41.3191 148.642 41.7446 148.216 42.5531C147.875 43.234 147.705 44.1702 147.705 45.4468C147.705 46.9361 147.96 48.0425 148.471 48.7659C148.855 49.2765 149.366 49.5319 150.004 49.5319C150.43 49.5319 150.814 49.4042 151.112 49.1914C151.495 48.9361 151.793 48.468 152.006 47.8723C152.219 47.2765 152.304 46.468 152.304 45.5319C152.304 44.3829 152.177 43.5319 151.964 42.9361C151.751 42.3829 151.495 41.9574 151.154 41.7021C150.856 41.4468 150.473 41.3191 150.047 41.3191ZM149.962 40.8936C151.367 40.851 152.475 41.234 153.369 42.1276C154.221 42.9787 154.689 44.0851 154.689 45.3617C154.689 46.468 154.349 47.4468 153.71 48.2978C152.858 49.4042 151.623 49.9574 150.047 49.9574C148.471 49.9574 147.279 49.4468 146.384 48.3404C145.703 47.4893 145.362 46.5106 145.362 45.3617C145.362 44.0851 145.788 42.9787 146.682 42.1276C147.577 41.234 148.642 40.851 149.962 40.8936Z" fill="#ED1C24"/>
<path d="M161.418 46.766L163.803 41.0213H167.381V41.2766H167.083C166.827 41.2766 166.614 41.3192 166.444 41.4043C166.316 41.4468 166.231 41.5745 166.188 41.7022C166.146 41.7873 166.103 42.0851 166.103 42.5107V48.2553C166.103 48.6809 166.146 48.9788 166.188 49.1064C166.231 49.2341 166.316 49.3192 166.487 49.4043C166.614 49.4894 166.827 49.5319 167.083 49.5319H167.381V49.7873H162.824V49.5319H163.122C163.377 49.5319 163.59 49.4894 163.761 49.4043C163.846 49.3617 163.974 49.2341 164.016 49.1064C164.059 49.0213 164.101 48.7234 164.101 48.2979V41.7873L160.737 49.7447H160.566L157.159 41.8298V47.9575C157.159 48.383 157.159 48.6383 157.202 48.766C157.244 48.9788 157.372 49.149 157.585 49.2766C157.755 49.4043 158.054 49.4894 158.48 49.4894V49.7447H155.498V49.4894H155.583C155.796 49.4894 155.967 49.4468 156.137 49.4043C156.307 49.3192 156.435 49.2341 156.52 49.149C156.606 49.0213 156.691 48.8936 156.733 48.6809C156.733 48.6383 156.733 48.4256 156.733 48.0426V42.5107C156.733 42.0851 156.691 41.7873 156.648 41.7022C156.606 41.5745 156.52 41.4894 156.35 41.4043C156.222 41.3192 156.009 41.2766 155.754 41.2766H155.456V41.0213H159.033L161.418 46.766Z" fill="#ED1C24"/>
<path d="M171.129 41.5319V45.3191C171.257 45.3191 171.385 45.3191 171.47 45.3191C171.981 45.3191 172.407 45.1489 172.663 44.851C172.961 44.5532 173.089 44.0425 173.089 43.4042C173.089 42.7659 172.961 42.2978 172.663 42C172.364 41.7021 171.939 41.5319 171.385 41.5319H171.129V41.5319ZM171.129 45.7872V48.2127C171.129 48.6808 171.172 48.9787 171.215 49.1064C171.257 49.234 171.385 49.3191 171.513 49.4042C171.683 49.4893 171.939 49.5319 172.322 49.5319V49.7872H167.892V49.5319C168.318 49.5319 168.574 49.4893 168.702 49.4042C168.829 49.3191 168.957 49.234 169 49.1064C169.042 48.9787 169.085 48.6808 169.085 48.2127V42.5532C169.085 42.0851 169.042 41.7872 169 41.6595C168.957 41.5319 168.829 41.4468 168.702 41.3617C168.574 41.2766 168.276 41.234 167.892 41.234V40.9787H171.683C172.918 40.9787 173.855 41.1915 174.366 41.6595C174.92 42.0851 175.175 42.6808 175.175 43.3191C175.175 43.8723 175.005 44.383 174.664 44.7659C174.324 45.1489 173.813 45.4468 173.216 45.5744C172.833 45.7447 172.109 45.7872 171.129 45.7872Z" fill="#ED1C24"/>
<path d="M179.946 46.766L178.625 43.7447L177.262 46.766H179.946ZM180.159 47.2766H177.092L176.709 48.1277C176.581 48.4255 176.538 48.6383 176.538 48.8085C176.538 49.0638 176.624 49.2341 176.836 49.3617C176.964 49.4468 177.22 49.4894 177.688 49.5319V49.7873H174.792V49.5319C175.09 49.4894 175.346 49.3617 175.559 49.149C175.772 48.9362 176.027 48.5107 176.325 47.8298L179.434 40.8511H179.562L182.714 48C183.012 48.6809 183.268 49.1064 183.438 49.2766C183.566 49.4043 183.779 49.4894 184.077 49.4894V49.7447H179.86V49.4894H180.031C180.371 49.4894 180.627 49.4468 180.755 49.3617C180.84 49.2766 180.883 49.1915 180.883 49.0638C180.883 48.9787 180.883 48.8936 180.84 48.8085C180.84 48.766 180.755 48.5958 180.627 48.3404L180.159 47.2766Z" fill="#ED1C24"/>
<path d="M187.484 41.0213L191.786 46.4255V42.6808C191.786 42.1702 191.7 41.7872 191.573 41.617C191.36 41.3617 191.019 41.234 190.55 41.2766V41.0213H193.447V41.2766C193.063 41.3191 192.85 41.4042 192.723 41.4468C192.595 41.5319 192.51 41.6595 192.424 41.8298C192.339 42 192.339 42.2978 192.339 42.7234V50H192.126L186.121 42.6808V48.2127C186.121 48.7234 186.249 49.0638 186.462 49.234C186.675 49.4042 186.973 49.4893 187.228 49.4893H187.441V49.7447H184.332V49.4893C184.801 49.4893 185.141 49.4042 185.354 49.1915C185.525 48.9787 185.652 48.6808 185.652 48.2127V42.0425L185.482 41.8298C185.312 41.617 185.141 41.4468 184.971 41.3617C184.843 41.2766 184.63 41.234 184.375 41.234V40.9787H187.484V41.0213Z" fill="#ED1C24"/>
<path d="M198.557 49.5319V49.7873H194V49.5319H194.298C194.554 49.5319 194.767 49.4894 194.895 49.4043C195.022 49.3617 195.108 49.2341 195.15 49.1064C195.193 49.0213 195.235 48.7234 195.235 48.2979V42.5532C195.235 42.1277 195.193 41.8298 195.15 41.7022C195.108 41.5745 195.022 41.4894 194.852 41.4043C194.724 41.3192 194.511 41.2766 194.256 41.2766H193.958V41.0213H198.515V41.2766H198.217C197.961 41.2766 197.748 41.3192 197.62 41.4043C197.493 41.4468 197.407 41.5745 197.365 41.7022C197.322 41.7873 197.28 42.0851 197.28 42.5107V48.2553C197.28 48.6809 197.322 48.9788 197.365 49.1064C197.407 49.2341 197.493 49.3192 197.663 49.4043C197.791 49.4894 198.004 49.5319 198.259 49.5319H198.557Z" fill="#ED1C24"/>
<path d="M202.433 41.5319V45.1064H202.604C203.157 45.1064 203.541 44.9362 203.796 44.5958C204.052 44.2553 204.222 43.7447 204.265 43.0639H204.52V47.6171H204.265C204.222 47.1064 204.094 46.7234 203.924 46.383C203.754 46.0851 203.583 45.8724 203.328 45.7447C203.115 45.6171 202.774 45.5745 202.391 45.5745V48.0426C202.391 48.5107 202.391 48.8085 202.433 48.9362C202.476 49.0639 202.561 49.149 202.646 49.1915C202.774 49.2766 202.944 49.2766 203.2 49.2766H203.711C204.52 49.2766 205.159 49.1064 205.67 48.7234C206.181 48.3405 206.522 47.7873 206.735 46.9788H206.99L206.607 49.7447H199.069V49.4894H199.367C199.622 49.4894 199.835 49.4468 199.963 49.3617C200.091 49.3192 200.176 49.1915 200.219 49.0639C200.261 48.9788 200.304 48.6809 200.304 48.2553V42.5107C200.304 42.1277 200.304 41.8724 200.261 41.7873C200.219 41.617 200.133 41.5319 200.006 41.4468C199.835 41.3192 199.622 41.2766 199.324 41.2766H199.026V41.0213H206.352V43.6171H206.096C205.968 42.9788 205.798 42.5532 205.585 42.2553C205.372 42 205.031 41.7873 204.648 41.6596C204.392 41.5745 203.967 41.5319 203.285 41.5319H202.433V41.5319Z" fill="#ED1C24"/>
<path d="M213.848 40.8085L213.933 43.7022H213.678C213.55 42.9787 213.252 42.383 212.741 41.9575C212.272 41.5319 211.718 41.2766 211.165 41.2766C210.739 41.2766 210.398 41.4043 210.142 41.617C209.887 41.8298 209.759 42.1277 209.759 42.4256C209.759 42.5958 209.802 42.8085 209.887 42.9362C210.015 43.149 210.228 43.3192 210.483 43.5319C210.696 43.6596 211.165 43.9149 211.889 44.2979C212.911 44.8085 213.592 45.2766 213.976 45.7022C214.316 46.1277 214.487 46.6383 214.487 47.2341C214.487 47.9575 214.189 48.5958 213.635 49.1064C213.081 49.617 212.357 49.9149 211.463 49.9149C211.207 49.9149 210.909 49.8724 210.696 49.8298C210.441 49.7873 210.143 49.6596 209.759 49.5319C209.546 49.4468 209.376 49.4043 209.248 49.4043C209.12 49.4043 209.035 49.4468 208.907 49.5319C208.78 49.617 208.694 49.7447 208.609 49.9149H208.354V46.6383H208.609C208.78 47.5745 209.163 48.2553 209.717 48.766C210.27 49.2341 210.824 49.4894 211.463 49.4894C211.931 49.4894 212.315 49.3617 212.613 49.1064C212.911 48.8511 213.039 48.5532 213.039 48.2128C213.039 48 212.996 47.7873 212.868 47.617C212.741 47.4468 212.613 47.2341 212.357 47.0639C212.144 46.8936 211.718 46.6809 211.165 46.383C210.355 46 209.802 45.6596 209.461 45.4043C209.12 45.149 208.865 44.8085 208.652 44.4681C208.481 44.1277 208.354 43.7447 208.354 43.3617C208.354 42.6809 208.609 42.0851 209.12 41.5745C209.631 41.1064 210.27 40.8511 211.037 40.8511C211.335 40.8511 211.591 40.8936 211.846 40.9362C212.059 40.9787 212.315 41.0639 212.57 41.2341C212.868 41.3617 213.081 41.4468 213.166 41.4468C213.294 41.4468 213.379 41.4043 213.422 41.3617C213.507 41.2766 213.55 41.149 213.592 40.8511H213.848V40.8085Z" fill="#ED1C24"/>
</svg>
