<svg id="Layer_1" data-name="Layer 1" xmlns="http://www.w3.org/2000/svg" xmlns:xlink="http://www.w3.org/1999/xlink" viewBox="0 0 170 50"><defs><style>.cls-1{fill:none;}.cls-2{fill:#144d92;}.cls-3{fill:#58595b;}.cls-4,.cls-8{fill:#fff;}.cls-5{clip-path:url(#clip-path);}.cls-6{fill:#00ac8d;}.cls-7{fill:#223f99;}.cls-8{fill-rule:evenodd;}.cls-9{fill:#00b48d;}.cls-10{fill:#164d92;}.cls-11{fill:#231f20;}</style><clipPath id="clip-path"><path class="cls-1" d="M156.08,24.58A15.38,15.38,0,1,1,140.71,9.2,15.37,15.37,0,0,1,156.08,24.58Z"/></clipPath></defs><path class="cls-2" d="M7.06,31.73,17.54,2.86H24.8L35.31,31.73v1.8H28.5l-2.62-7.8H15.23l-2.52,7.8H7.06Zm9.66-10.68H24.3L20.51,9.74h-.09Z"/><path class="cls-2" d="M37.27,31.91V27.18h2.07a8.76,8.76,0,0,0,5.82,1.93c2.67,0,4.06-.7,4.06-2.15S48.37,24.9,45,24.5c-5.19-.61-7.94-2.49-7.94-7s3.56-7.23,9.38-7.23a15.75,15.75,0,0,1,7.44,1.58v4.64h-2A9.34,9.34,0,0,0,46.52,15C43.94,15,43,15.69,43,17s1.16,1.8,4.41,2.19c5.64.7,8,2.5,8,7.15s-3,7.45-9.88,7.45a16.32,16.32,0,0,1-8.21-1.89"/><path class="cls-2" d="M56.12,10.53h2.79V4.39H65.5v6.14h4.79v4.29H65.5V26.61c0,2.19.9,2.8,3.07,2.8h1.8v3.86a13.39,13.39,0,0,1-4.15.61c-4.55,0-7.31-1.75-7.31-6.53V14.82H56.12Z"/><path class="cls-2" d="M77.83,23.45c.32,4.6,2.57,5.88,6.23,5.88a10.55,10.55,0,0,0,6.26-1.94h2V31.6a17.63,17.63,0,0,1-9.3,2.24c-7.76,0-12-4.47-12-11.7,0-7.41,5-12,11.54-12,7,0,10.66,3.73,10.66,11.31,0,.79-.09,1.75-.09,2Zm.09-3.85h8.84c-.13-4.08-1.58-5.39-4.16-5.39-2.29,0-4.18,1.09-4.68,5.39"/><path class="cls-2" d="M103,16.92V33.53H96.44v-23h4.48c1.12,0,1.8.48,2,2.76a9.07,9.07,0,0,1,6.59-3,4.94,4.94,0,0,1,1.45.23v5h-1.13A15.36,15.36,0,0,0,103,16.92"/><polygon class="cls-3" points="24.99 46.55 24.7 46.55 23.4 40.9 22.75 40.9 21.44 46.55 21.14 46.55 20.02 40.83 19.45 40.83 20.73 47.05 21.84 47.05 23.07 41.59 24.29 47.05 25.4 47.05 26.68 40.83 26.12 40.83 24.99 46.55"/><path class="cls-3" d="M29.1,42.49c-1.09,0-1.84.61-1.84,2.34,0,1.49.4,2.3,1.73,2.31A16.77,16.77,0,0,0,30.7,47v-.44s-1,.08-1.64.08c-.94,0-1.24-.56-1.24-1.62h3V44.6C30.86,43.1,30.26,42.49,29.1,42.49Zm-1.29,2.1c0-1.19.48-1.64,1.29-1.64s1.23.43,1.23,1.64Z"/><polygon class="cls-3" points="31.69 42.55 32.12 42.55 32.64 40.66 32.07 40.66 31.69 42.55"/><rect class="cls-3" x="33.76" y="40.59" width="0.53" height="6.46"/><rect class="cls-3" x="35.73" y="40.59" width="0.53" height="6.46"/><polygon class="cls-3" points="43.54 40.83 39.07 40.83 39.07 41.33 41.04 41.33 41.04 47.05 41.59 47.05 41.59 41.33 43.54 41.33 43.54 40.83"/><path class="cls-3" d="M44,42.57h-.52v4.48H44V43.69A6.46,6.46,0,0,1,45.7,43v-.53a4.82,4.82,0,0,0-1.69.73Z"/><path class="cls-3" d="M48.05,42.49c-1.09,0-1.85.61-1.85,2.34,0,1.49.41,2.3,1.74,2.31A16.77,16.77,0,0,0,49.65,47l0-.44s-1,.08-1.64.08c-.94,0-1.24-.56-1.24-1.62h3l0-.43C49.81,43.1,49.2,42.49,48.05,42.49Zm-1.3,2.1c0-1.19.48-1.64,1.3-1.64s1.22.43,1.22,1.64Z"/><path class="cls-3" d="M54,46.3V43.91c0-.95-.41-1.42-1.38-1.42a11.69,11.69,0,0,0-1.74.18l0,.43s1-.13,1.69-.13.87.26.87.94v.42l-1.52.15c-.9.09-1.31.48-1.31,1.31s.44,1.35,1.22,1.35a4.82,4.82,0,0,0,1.69-.37,1.25,1.25,0,0,0,1,.36l0-.43C54.27,46.66,54,46.57,54,46.3Zm-.53.07a5.06,5.06,0,0,1-1.53.31c-.5,0-.75-.33-.75-.9A.78.78,0,0,1,52,44.9l1.45-.15Z"/><path class="cls-3" d="M56.85,46.66c-.64,0-.71-.28-.71-1.4V43.05h1.49v-.48H56.14v-1.4H55.6v1.4h-.66v.48h.66v2.48c0,1.28.32,1.62,1.21,1.62a8.27,8.27,0,0,0,.9-.09l0-.46S57.1,46.66,56.85,46.66Z"/><polygon class="cls-3" points="63.8 40.83 62.15 43.84 60.5 40.83 59.88 40.83 61.88 44.42 61.88 47.05 62.43 47.05 62.43 44.42 64.42 40.83 63.8 40.83"/><path class="cls-3" d="M66.26,42.48c-1.38,0-1.87.68-1.87,2.27s.37,2.39,1.87,2.39,1.87-.7,1.87-2.39S67.64,42.48,66.26,42.48Zm0,4.18c-1.16,0-1.32-.54-1.32-1.91S65.24,43,66.26,43s1.33.45,1.33,1.79S67.42,46.66,66.26,46.66Z"/><path class="cls-3" d="M72.11,46.28a2.85,2.85,0,0,1-1.31.37c-.9,0-1-.42-1-1.75V42.57h-.53v2.34c0,1.67.25,2.23,1.49,2.23a3.09,3.09,0,0,0,1.38-.42v.33h.53V42.57h-.53Z"/><polygon class="cls-3" points="81.11 46.55 80.81 46.55 79.51 40.9 78.86 40.9 77.56 46.55 77.26 46.55 76.13 40.83 75.57 40.83 76.85 47.05 77.96 47.05 79.18 41.59 80.41 47.05 81.52 47.05 82.8 40.83 82.23 40.83 81.11 46.55"/><path class="cls-3" d="M85.22,42.49c-1.09,0-1.85.61-1.85,2.34,0,1.49.41,2.3,1.74,2.31A16.77,16.77,0,0,0,86.82,47l0-.44s-1,.08-1.64.08c-.94,0-1.24-.56-1.24-1.62h3l0-.43C87,43.1,86.37,42.49,85.22,42.49Zm-1.3,2.1c0-1.19.48-1.64,1.3-1.64s1.22.43,1.22,1.64Z"/><rect class="cls-3" x="88.13" y="40.59" width="0.53" height="6.46"/><rect class="cls-3" x="90.11" y="40.59" width="0.53" height="6.46"/><path class="cls-4" d="M162.73,25A21.94,21.94,0,1,1,140.79,3.06,21.94,21.94,0,0,1,162.73,25Z"/><g class="cls-5"><path class="cls-6" d="M124.63,24.54a16.08,16.08,0,1,1,16.09,16.08,16.08,16.08,0,0,1-16.09-16.08Z"/><path class="cls-7" d="M124.48,24.3A16.06,16.06,0,0,1,140.55,8.23c7.35,0,13.83,4.5,15.75,11.21a2.48,2.48,0,0,1-1.12.53c-1.23,0-2.94,1.56-2.94,1.56L149,25.16,143.24,31s-.53.11-.59-.87-.82-4.45-.82-4.45a7.05,7.05,0,0,1-1.4,2.22c-1.06,1.16-5.84,3.86-8.78,4.09a5.58,5.58,0,0,1-4.47-1.51A16.09,16.09,0,0,0,125,27.42,9,9,0,0,1,124.48,24.3Z"/></g><path class="cls-8" d="M143.07,20s-.16-.15-.41.7a20.49,20.49,0,0,0-.27,3.27,9.57,9.57,0,0,0,1.38-3.55C143.77,19.74,143.07,20,143.07,20Zm-3.83,4.63a.1.1,0,0,1,0,.05.73.73,0,0,1,.46.05c.24.16.34.6.24.68s-2.23,1.4-2.71,1.21-2.38-2.08-3.55-2.86-6.87-2.62-7.12,2.18,4.7,6.2,7.84,5.14S141,25.86,141,25.86c-.05-3.63.29-4.6,1-6s3.06-1.57,2.67.89a11.81,11.81,0,0,1-2.33,4.81,27.79,27.79,0,0,1,1,4.74s5.46-6.38,7.84-8.82S155.38,20,155.38,20c-.54.24-.68,2-.78,2.33s-.72,0-.72,0l.09-.63c-1-1.5-3.05,1.16-4.12,3.39a27.93,27.93,0,0,0-1.55,6.73l1.46.1v.78a9.94,9.94,0,0,0-3,.92,9.9,9.9,0,0,1,0-1.65c.1-1.36,1.17-5.63,1.17-5.63s-1.75,1.85-2.38,2.68S142,33.23,142,33.23l-.48-.48a15,15,0,0,0,.33-2.87c-.09-.77-.48-2.61-.48-2.61l-1.21,1.21a19.5,19.5,0,0,1-4.8,3.44C126,34.83,124,26.46,126.5,23.39s6-1.83,6.87-1.45c1.07.46,4.65,3.34,5.1,3.39s.67-.49.75-.63S139.2,24.68,139.24,24.65Z"/><path class="cls-4" d="M162.73,25A21.94,21.94,0,1,1,140.79,3.06,21.94,21.94,0,0,1,162.73,25Z"/><g class="cls-5"><path class="cls-9" d="M124.63,24.54a16.08,16.08,0,1,1,16.09,16.08,16.08,16.08,0,0,1-16.09-16.08Z"/><path class="cls-10" d="M124.48,24.3A16.06,16.06,0,0,1,140.55,8.23c7.35,0,13.83,4.5,15.75,11.21a2.48,2.48,0,0,1-1.12.53c-1.23,0-2.94,1.56-2.94,1.56L149,25.16,143.24,31s-.53.11-.59-.87-.82-4.45-.82-4.45a7.05,7.05,0,0,1-1.4,2.22c-1.06,1.16-5.84,3.86-8.78,4.09a5.58,5.58,0,0,1-4.47-1.51A16.09,16.09,0,0,0,125,27.42,9,9,0,0,1,124.48,24.3Z"/></g><path class="cls-8" d="M143.07,20s-.16-.15-.41.7a20.49,20.49,0,0,0-.27,3.27,9.57,9.57,0,0,0,1.38-3.55C143.77,19.74,143.07,20,143.07,20Zm-3.83,4.63a.1.1,0,0,1,0,.05.73.73,0,0,1,.46.05c.24.16.34.6.24.68s-2.23,1.4-2.71,1.21-2.38-2.08-3.55-2.86-6.87-2.62-7.12,2.18,4.7,6.2,7.84,5.14S141,25.86,141,25.86c-.05-3.63.29-4.6,1-6s3.06-1.57,2.67.89a11.81,11.81,0,0,1-2.33,4.81,27.79,27.79,0,0,1,1,4.74s5.46-6.38,7.84-8.82S155.38,20,155.38,20c-.54.24-.68,2-.78,2.33s-.72,0-.72,0l.09-.63c-1-1.5-3.05,1.16-4.12,3.39a27.93,27.93,0,0,0-1.55,6.73l1.46.1v.78a9.94,9.94,0,0,0-3,.92,9.9,9.9,0,0,1,0-1.65c.1-1.36,1.17-5.63,1.17-5.63s-1.75,1.85-2.38,2.68S142,33.23,142,33.23l-.48-.48a15,15,0,0,0,.33-2.87c-.09-.77-.48-2.61-.48-2.61l-1.21,1.21a19.5,19.5,0,0,1-4.8,3.44C126,34.83,124,26.46,126.5,23.39s6-1.83,6.87-1.45c1.07.46,4.65,3.34,5.1,3.39s.67-.49.75-.63S139.2,24.68,139.24,24.65Z"/><path class="cls-11" d="M131,39.53l-.47-.05a.71.71,0,0,0,0-.34.52.52,0,0,0-.18-.22.53.53,0,0,0-.35-.12.39.39,0,0,0-.29.16.47.47,0,0,0,.06.53l.18.31a1.51,1.51,0,0,1,.24.68.9.9,0,0,1-.2.57,1,1,0,0,1-.7.43,1.07,1.07,0,0,1-.8-.22,1,1,0,0,1-.42-.64,1.19,1.19,0,0,1,.16-.78l.47.21a1,1,0,0,0-.14.4.57.57,0,0,0,.64.55.5.5,0,0,0,.36-.22.89.89,0,0,0,.09-.16.5.5,0,0,0,0-.17.72.72,0,0,0,0-.19,1.13,1.13,0,0,0-.11-.22l-.17-.3a.92.92,0,0,1,0-1.09.8.8,0,0,1,.6-.33,1,1,0,0,1,.73.22A1,1,0,0,1,131,39.53Z"/><path class="cls-11" d="M132.23,39.66l-1.71,2.87-.43-.26,1.71-2.87Z"/><path class="cls-11" d="M131.45,43.1l1.39-3.29,1.25,3.29L135,41l.47.19-1.38,3.27-1.26-3.29-.91,2.15Z"/><path class="cls-11" d="M138.38,42l-.12.58a1.46,1.46,0,0,0-.81-.55,1.18,1.18,0,0,0-.93.18,1.21,1.21,0,0,0-.53.8,1.18,1.18,0,0,0,.15.94,1.15,1.15,0,0,0,.78.54,1,1,0,0,0,.46,0,.75.75,0,0,0,.23-.07l.27-.12-.13.59a1.78,1.78,0,0,1-.94.05,1.71,1.71,0,0,1-1.32-2,1.76,1.76,0,0,1,2.09-1.34A1.74,1.74,0,0,1,138.38,42Z"/><path class="cls-11" d="M140.67,42.45l-1.34-.09-.05.8,1.3.09,0,.47-1.29-.08-.07,1.11,1.33.09,0,.47-1.84-.12.22-3.33,1.84.12Z"/><path class="cls-11" d="M143.29,42.25l-.57.08.2-.5.8-.13.5,3.3-.5.08Z"/><path class="cls-11" d="M146.14,44.7l-.44-.16.47-1.27-.1,0-.07,0a.93.93,0,0,1-.76-.1,1,1,0,0,1-.49-.63,1.1,1.1,0,0,1,.1-.85,1.06,1.06,0,0,1,.66-.53,1.14,1.14,0,0,1,.85.09,1,1,0,0,1,.54.64,1.53,1.53,0,0,1-.08.9Zm-.93-2.26a.59.59,0,0,0,.31.38.58.58,0,0,0,.48.06.61.61,0,0,0,.37-.3.59.59,0,0,0,.06-.48.63.63,0,0,0-.79-.43.55.55,0,0,0-.37.3A.6.6,0,0,0,145.21,42.44Z"/><path class="cls-11" d="M148,42.11a.83.83,0,0,1-.63-.49.93.93,0,0,1,0-.73.94.94,0,0,1,.53-.54.91.91,0,0,1,.74,0,.9.9,0,0,1,.53.5.82.82,0,0,1,0,.79.84.84,0,0,1,.42.16.88.88,0,0,1,.3.38,1,1,0,0,1,0,.78,1,1,0,0,1-.56.56,1,1,0,0,1-.81.06.93.93,0,0,1-.57-.53A.79.79,0,0,1,148,42.11Zm-.2-.69a.53.53,0,0,0,.28.27.51.51,0,0,0,.65-.3.5.5,0,0,0,0-.38.48.48,0,0,0-.28-.26.46.46,0,0,0-.38,0,.48.48,0,0,0-.26.28A.47.47,0,0,0,147.82,41.42Zm.56,1.37a.57.57,0,0,0,.31.3.54.54,0,0,0,.43,0,.52.52,0,0,0,.29-.31.56.56,0,0,0,0-.42.52.52,0,0,0-.31-.29.51.51,0,0,0-.42,0,.55.55,0,0,0-.29.31A.51.51,0,0,0,148.38,42.79Z"/><path class="cls-11" d="M150.68,39.38l-1.39.89-.25-.4,2.1-1.33.08,4h-.47Z"/><path class="cls-11" d="M140.79,47.15A22.15,22.15,0,1,1,162.94,25,22.17,22.17,0,0,1,140.79,47.15Zm0-44.06A21.91,21.91,0,1,0,162.7,25,21.94,21.94,0,0,0,140.79,3.09Z"/><path class="cls-11" d="M123.62,20.54l-.3,1.39.71.54-.11.53-3.12-2.37,3.8-.8-.11.53Zm-.51.1-1.21.24,1,.75Z"/><path class="cls-11" d="M122.81,16.75l.08.47a.71.71,0,0,0-.33.1.48.48,0,0,0-.16.24.46.46,0,0,0,0,.36.33.33,0,0,0,.22.24c.15.06.32,0,.5-.19l.25-.26a1.44,1.44,0,0,1,.59-.4.87.87,0,0,1,.61,0,1,1,0,0,1,.59.57,1.06,1.06,0,0,1,0,.82,1,1,0,0,1-.51.57,1.18,1.18,0,0,1-.8.06l.09-.52a.83.83,0,0,0,.42,0,.52.52,0,0,0,.37-.34.51.51,0,0,0,0-.42.56.56,0,0,0-.32-.3l-.17,0a.47.47,0,0,0-.17,0,.32.32,0,0,0-.17.09,1.25,1.25,0,0,0-.19.15l-.24.25a.94.94,0,0,1-1,.33.8.8,0,0,1-.47-.51,1.05,1.05,0,0,1,.88-1.38Z"/><path class="cls-11" d="M123.72,15l2.49,1.42-.25.44-2.49-1.42-.38.67-.41-.24,1-1.77.42.24Z"/><path class="cls-11" d="M125.61,12.28l-.8,1.07.63.48.79-1,.38.28-.79,1,.89.67.81-1.07.38.29-1.11,1.47-2.67-2L125.24,12Z"/><path class="cls-11" d="M128.07,11.79l1.74.29-.44.43-1.64-.3-.06.06,1,1-.36.36-2.35-2.38.43-.42a1.46,1.46,0,0,1,.85-.49,1,1,0,0,1,1,.87A.9.9,0,0,1,128.07,11.79Zm-.71.17.11-.12c.34-.33.39-.63.13-.89s-.53-.2-.86.13l-.12.12Z"/><path class="cls-11" d="M131.16,11.05l-1.7-2.88.6-.35a2.57,2.57,0,0,1,.74-.32,1.43,1.43,0,0,1,.65,0,1.59,1.59,0,0,1,1.08.81,1.57,1.57,0,0,1,.17,1.34,1.44,1.44,0,0,1-.32.57,2.55,2.55,0,0,1-.63.48Zm.19-.67.2-.11a1.87,1.87,0,0,0,.44-.35,1.08,1.08,0,0,0,.23-.42,1.12,1.12,0,0,0-.13-.95,1.18,1.18,0,0,0-.77-.58,1.4,1.4,0,0,0-1,.24l-.2.11Z"/><path class="cls-11" d="M133.69,9.54l-.47-3.63L135.13,8l.3-2.84,1.74,3.21-.49.16-1-1.81-.25,2.37-1.59-1.76.29,2Z"/><path class="cls-11" d="M139.45,6.09l1.44,0,0-1.3.51,0,.1,3.34H141l0-1.55-1.44,0,0,1.56-.5,0L138.9,4.8l.5,0Z"/><path class="cls-11" d="M144.32,5.51,143,5.34l-.1.8,1.29.16-.06.47-1.29-.16-.14,1.1,1.32.17-.06.47-1.82-.23.42-3.31,1.83.23Z"/><path class="cls-11" d="M146.61,8.24l-1.37-.41-.59.67-.52-.16,2.61-2.92.5,3.86-.53-.16Zm-.06-.51L146.4,6.5l-.82.93Z"/><path class="cls-11" d="M149.38,6.66l-1.23,2.59.89.42-.2.42-1.35-.63,1.43-3Z"/><path class="cls-11" d="M151.26,8.22l-1.48,2.45-.43-.26L150.83,8l-.65-.4.24-.41,1.74,1.06-.24.41Z"/><path class="cls-11" d="M152.4,10l1.1.93.84-1,.39.33-2.15,2.56-.38-.33,1-1.19-1.1-.93-1,1.2-.38-.33,2.14-2.55.39.32Z"/><path class="cls-11" d="M157.06,13.17l-.46.39a1.46,1.46,0,0,0-.29-.93,1.12,1.12,0,0,0-.84-.43,1.21,1.21,0,0,0-.92.3,1.25,1.25,0,0,0-.46.84,1.18,1.18,0,0,0,.28.9,1.15,1.15,0,0,0,.36.29.79.79,0,0,0,.23.09,1.91,1.91,0,0,0,.28.07l-.46.39a1.86,1.86,0,0,1-.77-.54,1.72,1.72,0,0,1,.21-2.43,1.74,1.74,0,0,1,1.14-.4,1.66,1.66,0,0,1,1.33.64A1.58,1.58,0,0,1,157.06,13.17Z"/><path class="cls-11" d="M156.62,17l-.7-1.24-.88.07-.27-.48,3.9-.29-2.32,3.13-.26-.49Zm.31-.41.75-1-1.24.1Z"/><path class="cls-11" d="M158.14,19.05l-1,1.45-.2-.58,1-1.35,0-.09-1.29.46-.17-.48,3.15-1.11.19.55a1.49,1.49,0,0,1,.09,1,.91.91,0,0,1-.58.55.94.94,0,0,1-.64,0A.88.88,0,0,1,158.14,19.05Zm.15-.72.05.16c.16.45.42.61.76.49s.4-.39.25-.83l-.06-.17Z"/><path class="cls-11" d="M160.39,22.14l-.26-1.31-.79.15.25,1.28-.46.09-.25-1.28-1.1.22L158,22.6l-.46.09-.36-1.81,3.28-.64.35,1.81Z"/></svg>