<?xml version="1.0" encoding="UTF-8" standalone="no"?>
<!-- Created with Inkscape (http://www.inkscape.org/) -->

<svg
   version="1.1"
   id="svg2"
   width="1122.6667"
   height="260"
   viewBox="0 0 1122.6667 260"
   sodipodi:docname="bhima-jewellers-seeklogo.eps"
   xmlns:inkscape="http://www.inkscape.org/namespaces/inkscape"
   xmlns:sodipodi="http://sodipodi.sourceforge.net/DTD/sodipodi-0.dtd"
   xmlns="http://www.w3.org/2000/svg"
   xmlns:svg="http://www.w3.org/2000/svg">
  <defs
     id="defs6" />
  <sodipodi:namedview
     id="namedview4"
     pagecolor="#ffffff"
     bordercolor="#000000"
     borderopacity="0.25"
     inkscape:showpageshadow="2"
     inkscape:pageopacity="0.0"
     inkscape:pagecheckerboard="0"
     inkscape:deskcolor="#d1d1d1" />
  <g
     id="g8"
     inkscape:groupmode="layer"
     inkscape:label="ink_ext_XXXXXX"
     transform="matrix(1.3333333,0,0,-1.3333333,0,260)">
    <g
       id="g10"
       transform="scale(0.1)">
      <path
         d="M 0,1947.29 H 7132.77 V 612.434 H 0 V 1947.29"
         style="fill:#f68624;fill-opacity:1;fill-rule:evenodd;stroke:none"
         id="path12" />
      <path
         d="M 8418.9,1947.29 H 7132.77 V 612.434 H 8418.9 V 1947.29"
         style="fill:#fff200;fill-opacity:1;fill-rule:evenodd;stroke:none"
         id="path14" />
      <path
         d="m 7664.27,1495.44 c -10.25,13.92 -17.73,28.78 -24.25,44.13 -1.07,2.52 -2.11,5.07 -3.11,7.66 -9.12,1.84 -14.6,2.63 -20.41,2.48 -15.5,-1.18 -19.42,-1.23 -21.69,2.57 -3,5.01 -1.61,8.72 4.76,10.1 3.34,0.71 8.56,1.34 16.57,1.71 4.99,0.15 10.09,-0.41 15.43,-1.88 -2.69,8.21 -6.8,19.72 -13.73,21.11 -19.86,2.05 -29.25,-7.78 -32.61,-26.89 -5.07,-28.76 5.53,-35.75 24.61,-57.6 14.89,-15.58 43.76,-17.7 54.43,-3.39 z m 519.13,361.91 c 3.57,1.98 8.83,4.47 13.59,6.69 2.92,1.34 5.87,2.62 8.62,3.67 0.14,0.97 1.5,4.97 0.29,5.24 -6.45,1.5 -24.81,-8.42 -41.33,-17.36 -12.36,-6.68 -21.51,-12.32 -35.34,-14.98 -0.95,19.24 -4.42,38.53 -22.26,44.83 -2.21,-9.98 -0.81,-25.96 -1.16,-37.9 -0.12,-8.98 -2.95,-21.02 -6.44,-23.59 -31.59,-52.24 -73.31,-103.96 -116.03,-158.13 -14,-17.77 -27.45,-35.56 -40.86,-52.98 -4.63,-6.72 -5.24,-10.41 -9.18,-14.78 -7.2,-8 -16.85,-14.25 -30.96,-16.14 -3.99,-21.41 -9.7,-39.88 -16.8,-55.66 2.16,-1.69 3.97,-3.85 5.28,-6.3 1.52,-2.85 2.38,-6.1 2.38,-9.5 0,-5.48 -2.19,-10.46 -5.74,-14.08 -1.83,-1.87 -4.01,-3.36 -6.45,-4.38 2.2,-3.23 3.47,-7.13 3.47,-11.32 0,-5.48 -2.19,-10.46 -5.73,-14.08 -3.2,-3.24 -7.46,-5.39 -12.21,-5.81 1.2,-2.58 1.88,-5.47 1.88,-8.5 0,-5.48 -2.19,-10.46 -5.74,-14.08 -3.57,-3.64 -8.51,-5.89 -13.94,-5.89 -0.69,0 -1.37,0.05 -2.04,0.11 0.47,-1.72 0.72,-3.53 0.72,-5.4 0,-5.48 -2.19,-10.46 -5.74,-14.08 -3.57,-3.64 -8.5,-5.89 -13.94,-5.89 -2.06,0 -4.07,0.32 -5.94,0.93 1.4,-2.75 2.2,-5.86 2.2,-9.16 0,-5.47 -2.2,-10.46 -5.74,-14.08 -3.58,-3.64 -8.51,-5.89 -13.94,-5.89 -4.15,0 -8.01,1.31 -11.19,3.56 0.33,-1.44 0.5,-2.94 0.5,-4.48 0,-5.48 -2.2,-10.47 -5.74,-14.08 -3.58,-3.64 -8.51,-5.9 -13.94,-5.9 -5.43,0 -10.36,2.26 -13.93,5.9 -1.71,1.73 -3.09,3.79 -4.08,6.05 -0.78,-1.24 -1.69,-2.39 -2.71,-3.44 -3.57,-3.63 -8.5,-5.88 -13.94,-5.88 -5.42,0 -10.36,2.25 -13.93,5.88 -3.55,3.62 -5.74,8.61 -5.74,14.08 l 0.04,1.31 -0.75,-0.02 c -5.43,0 -10.37,2.26 -13.94,5.89 -3.55,3.62 -5.74,8.61 -5.74,14.08 0,3.9 1.11,7.55 3.03,10.63 -5.07,0.24 -9.65,2.44 -13.02,5.87 -3.54,3.62 -5.74,8.61 -5.74,14.08 0,4.32 1.37,8.34 3.69,11.62 -3.34,0.94 -6.33,2.74 -8.72,5.17 -2.79,2.85 -4.74,6.54 -5.45,10.65 l -1.18,-1.89 c -19.87,-33.49 -30.89,-49.8 -40.85,-70.69 -8.89,-18.67 -16.78,-38.43 -28.93,-70.18 l 233.47,-74.12 c 27.24,117.44 94.76,250.06 166.1,360.41 73.23,113.26 156.36,202.75 221.62,227.15 3.67,1.76 7.49,3.61 12.22,6.16 3.42,1.85 7.26,4.04 11.77,6.78 -17.99,-2.71 -33.79,-8.97 -45.17,-2.93 16.67,5.54 35.03,8.76 52.56,10.77 18.2,15.61 -46.97,-9.44 -56.34,0.29 5.57,2.51 13.26,3.93 19.12,5.87 5.17,1.7 8.23,1.73 13.57,2.99 9.32,23.5 -47.08,-19.83 -47.58,-3.09 z m -297.81,-1082.514 31.7,-50.969 c 7.83,-10.215 11.03,-17.039 11.34,-21.258 0.3,-4.359 -1.54,-7.211 -4.83,-8.711 -2.3,-1.062 -5.07,-1.082 -7.99,-0.339 l -2.85,0.968 c 0.15,-2.472 -0.05,-4.765 -0.56,-6.777 -0.85,-3.379 -2.56,-6.187 -4.93,-8.035 -2.4,-1.863 -5.29,-2.742 -8.5,-2.328 l -0.08,-0.559 c -0.67,-3.969 -2.86,-6.586 -6.04,-7.863 -2.24,-0.906 -4.81,-0.965 -7.49,-0.246 0.07,-1.633 0.01,-3.133 -0.18,-4.465 -0.5,-3.586 -1.93,-6.469 -4.08,-8.274 -2.85,-2.394 -6.39,-2.898 -10.29,-1.035 -1.45,0.723 -3.01,1.879 -4.66,3.543 -1.81,-5.261 -4.81,-9.675 -8.31,-12.906 -2.53,-2.34 -5.4,-4.102 -8.29,-5.148 -3.23,-1.153 -6.53,-1.465 -9.6,-0.813 -5.97,1.262 -10.89,5.805 -12.77,14.402 l -0.11,0.774 c -1.32,15.98 -1.25,35.652 -1.19,55.266 0.09,29.777 0.19,59.503 -4.47,75.148 l -83.82,-91.066 c -6,-6.676 -14.2,-8.883 -20.52,-7.707 -2.82,0.539 -5.39,1.738 -7.35,3.503 -2.17,1.942 -3.63,4.547 -4.06,7.68 -0.25,1.754 -0.14,3.676 0.4,5.719 l -0.91,0.074 c -3.27,0.375 -5.7,1.832 -7.27,4.129 -1.12,1.633 -1.67,3.52 -1.67,5.609 -2.63,-0.375 -4.91,0.168 -6.67,1.641 -2.36,2 -3.17,4.73 -2.18,8.227 l 0.3,0.906 -1.6,0.008 c -3.04,0.168 -5.42,1.273 -6.98,3.289 -1.8,2.336 -2.13,5.125 -0.87,8.336 0.29,0.742 0.69,1.515 1.2,2.351 l -1.37,0.492 c -3.34,1.457 -5.04,3.907 -5.49,6.922 -0.37,2.348 0.22,4.774 1.43,7.114 2.25,4.308 7.32,9.136 12.03,11.871 l 80.06,68.058 -69.91,206.473 -39.47,10.38 0.04,0.26 16.59,106.77 63.23,1.57 c 5.15,0.12 9.22,4.39 9.1,9.53 -0.11,5.14 -4.39,9.22 -9.53,9.1 l -63.12,-1.57 -56.62,42.47 c -4.11,3.08 -9.96,2.24 -13.04,-1.87 -3.08,-4.11 -2.25,-9.96 1.86,-13.04 l 50.55,-37.9 -17.18,-110.56 -137.68,36.2 c 29.1,105.27 74.89,202.96 121.66,301.09 7.22,15.16 15.14,29.67 26.51,49.26 -14.87,12.62 -30.47,26.86 -44.27,42.86 -8.78,10.19 -16.83,21.08 -23.48,32.71 -7.67,11.28 -14.17,22.94 -18.47,34.22 -33.73,40.18 -67.32,76.52 -101.59,110.9 -34.36,34.46 -69.02,67.19 -105.63,99.63 -21.04,13.66 -20.76,13.87 -35.38,22.54 l -0.26,0.12 c -6.54,3.5 -9.83,7.11 -10.96,10.41 -7.65,20.98 7.15,21.72 10.57,17.52 -5.23,7.17 -0.08,13.88 10.59,10.59 -4.17,11.45 7.05,10.14 18.77,3.66 -2.25,9.39 11.23,5.09 17.85,2.55 16.7,-4.17 32.73,-16.8 46.59,-27.72 3.7,-2.91 7.27,-5.71 10.55,-8.13 5.71,6.41 11.96,10.14 19.31,12.11 8.23,2.2 17.62,2.1 29.22,1.18 l 6.24,-0.51 -2.26,-5.84 c -3,-7.82 -5.8,-15.44 -7.87,-22.82 -1.81,-6.44 -3.08,-12.69 -3.44,-18.66 l 149.11,-146.71 c -1.66,124.49 83.9,195.46 177.07,142.86 46.25,6.45 81.51,-2.89 89.38,-51.79 24.5,13.5 46.82,25.88 63.05,-14.9 1.95,-9.52 5.69,-31.26 3.3,-52.59 9.63,12.37 19.3,24.63 28.95,36.86 42.93,54.45 85.7,108.68 117.02,160.75 2.69,3.57 2.78,5.3 3.46,15.52 0.4,11.37 -0.01,27.63 -0.79,46.45 l -0.26,6.24 6.05,-1.52 c 4.27,-1.07 12.96,-3.57 20.93,-11.32 7.04,-6.84 13.43,-17.74 15.39,-35.24 5.73,2.37 13.8,6.73 22.35,11.35 17.98,9.73 39.54,21.32 49.4,19.03 3.91,-0.9 5.71,-0.71 6.6,-4.46 8.53,6.08 26.51,0.07 28.34,-9.8 8.06,5.48 38.61,-7.99 13.92,-29.04 -4.53,-3.62 -13.18,-8.21 -18.52,-11.09 -4.73,-2.54 -8.82,-4.53 -12.77,-6.42 l -0.39,-0.17 c -63.39,-23.57 -144.98,-111.72 -217.27,-223.54 -71.41,-110.44 -138.98,-243.25 -165.52,-360.36 -10.74,-71.42 -21.09,-130.71 -16.12,-227.19 1.79,-34.915 46.51,-189.887 57.77,-235.934 z m -69.99,233.524 -68.01,16.96 80.8,-227.113 v -0.012 c 10.93,-17.519 9.21,-66.847 9.15,-88.132 -0.06,-19.02 -0.12,-38.09 1.15,-53.961 0.77,-3.161 2.15,-4.743 3.68,-5.063 0.93,-0.195 2.05,-0.059 3.2,0.352 1.45,0.531 2.96,1.488 4.37,2.785 4.73,4.355 4.19,9.765 1.74,19.211 -3.43,5.195 7.16,11.933 11.34,3.133 5.05,-13.825 9.31,-7.707 11.25,-9.86 3.25,6.453 -0.81,5.559 -3.77,12.414 -5.62,5.957 4.45,12.16 9.23,6.41 1.38,-1.234 3.64,-8.355 7.66,-5.125 1.84,0.989 0.18,2.965 -1.8,6.68 -9.28,11.676 3.23,17.391 9.59,6.145 2.37,-3.418 3.53,-3.809 5.11,-4.192 v -0.086 c 0.3,0.227 0.57,0.821 0.79,1.684 0.97,3.898 2.33,4.555 -2.59,10.676 -4.21,5.277 4.9,10.355 9.33,6.464 2.72,-3.199 6.08,-4.882 7.79,-1.546 -1.43,2.601 -4.16,6.16 -7.8,10.894 -10.54,13.672 -23.43,37.692 -33.17,53.231 z m -92.85,-288.505 c -4.93,3.833 -17.07,-7.57 -19.5,-4.183 -4.08,5.683 16,9.058 8.41,15.238 -6.02,3.906 -19.08,-8.082 -17.44,-0.34 2.53,3.266 11.41,4.672 7.42,10.828 -7.65,3.356 -13.26,-9.359 -16.91,-4.957 -0.82,0.973 0.1,3.067 4.63,5.282 5.02,4.734 1.1,7.941 -3.83,7.121 1.64,2.07 4.2,4.191 6.62,5.523 14.09,7.598 70.44,59.735 87.52,74.246 l -69.97,206.667 24.22,-6.36 h 0.01 l 82.49,-231.889 -85.98,-95.515 c -3.05,-3.379 -12.35,-8.512 -17.48,-5.356 -1.51,3.168 -0.71,6.406 1.35,8.891 0.95,1.133 14.93,9.762 8.44,14.804 z m 142.06,750.215 c 2.84,0 5.42,1.18 7.28,3.07 1.87,1.91 3.04,4.59 3.04,7.54 0,2.96 -1.17,5.64 -3.04,7.55 -1.86,1.89 -4.44,3.06 -7.28,3.06 l -0.46,-0.01 c -3.16,-3.9 -6.44,-7.52 -9.85,-10.86 0.06,-2.85 1.21,-5.43 3.03,-7.28 1.85,-1.89 4.43,-3.07 7.28,-3.07 z m 6.17,30.1 c 0.81,-0.21 1.66,-0.32 2.55,-0.32 2.84,0 5.42,1.17 7.27,3.06 1.88,1.91 3.04,4.59 3.04,7.55 0,1.87 -0.45,3.61 -1.23,5.08 -0.37,0.69 -0.82,1.34 -1.32,1.92 -3.22,-6.22 -6.66,-11.98 -10.31,-17.29 z m -159.12,-39.93 c -0.48,-3.16 -1.69,-6.1 -3.46,-8.59 3.34,-0.94 6.33,-2.75 8.72,-5.17 3.54,-3.62 5.74,-8.61 5.74,-14.09 0,-3.89 -1.11,-7.54 -3.03,-10.62 5.07,-0.25 9.65,-2.45 13.01,-5.88 3.55,-3.61 5.75,-8.6 5.75,-14.08 l -0.04,-1.29 0.74,0.01 c 5.44,0 10.37,-2.26 13.94,-5.89 1.71,-1.74 3.09,-3.79 4.08,-6.06 0.78,1.24 1.68,2.4 2.71,3.44 3.57,3.63 8.5,5.89 13.93,5.89 4.15,0 8.01,-1.31 11.19,-3.56 -0.33,1.44 -0.5,2.94 -0.5,4.48 0,5.48 2.2,10.46 5.74,14.08 3.57,3.64 8.51,5.89 13.94,5.89 2.07,0 4.07,-0.32 5.95,-0.93 -1.41,2.75 -2.2,5.86 -2.2,9.16 0,5.48 2.19,10.46 5.73,14.08 3.58,3.64 8.51,5.89 13.94,5.89 0.7,0 1.38,-0.05 2.05,-0.11 -0.48,1.72 -0.73,3.53 -0.73,5.4 0,4.12 1.24,7.96 3.37,11.16 -36.49,-21.53 -80.8,-19.45 -120.57,-3.21 z m 132.84,11.6 c 0.75,0.16 1.53,0.27 2.3,0.34 l -0.47,1.11 z m -40.38,-83.62 c 2.84,0 5.42,1.17 7.28,3.07 1.87,1.91 3.04,4.59 3.04,7.54 0,2.96 -1.17,5.63 -3.04,7.55 -1.86,1.89 -4.44,3.06 -7.28,3.06 -2.84,0 -5.43,-1.17 -7.28,-3.06 -1.87,-1.92 -3.04,-4.59 -3.04,-7.55 0,-2.95 1.17,-5.63 3.04,-7.54 1.85,-1.9 4.44,-3.07 7.28,-3.07 z m 23.42,28.2 c 2.85,0 5.43,1.17 7.28,3.06 1.87,1.91 3.04,4.59 3.04,7.55 0,2.96 -1.17,5.63 -3.04,7.54 -1.85,1.89 -4.43,3.07 -7.28,3.07 -2.84,0 -5.42,-1.18 -7.28,-3.07 -1.87,-1.91 -3.03,-4.58 -3.03,-7.54 0,-2.96 1.16,-5.64 3.03,-7.55 1.86,-1.89 4.44,-3.06 7.28,-3.06 z m 21,25.26 c 2.85,0 5.42,1.18 7.28,3.07 1.87,1.9 3.04,4.58 3.04,7.54 0,2.96 -1.17,5.64 -3.04,7.55 -1.86,1.89 -4.43,3.06 -7.28,3.06 -2.84,0 -5.42,-1.17 -7.28,-3.06 -1.87,-1.91 -3.03,-4.59 -3.03,-7.55 0,-2.96 1.16,-5.64 3.03,-7.54 1.86,-1.89 4.44,-3.07 7.28,-3.07 z m -161.54,30.76 c -0.76,-0.46 -1.46,-1 -2.07,-1.63 -1.87,-1.91 -3.04,-4.59 -3.04,-7.54 0,-2.97 1.17,-5.64 3.04,-7.55 1.85,-1.89 4.43,-3.06 7.28,-3.06 2.84,0 5.42,1.17 7.28,3.06 1.86,1.91 3.03,4.58 3.03,7.55 l -0.04,1 c -5.28,2.49 -10.44,5.23 -15.48,8.17 z m 23.26,-32.5 c -1.85,1.89 -4.44,3.06 -7.28,3.06 -2.84,0 -5.43,-1.17 -7.28,-3.06 -1.87,-1.91 -3.04,-4.59 -3.04,-7.55 0,-2.95 1.17,-5.63 3.04,-7.54 1.85,-1.89 4.44,-3.06 7.28,-3.06 2.84,0 5.43,1.17 7.28,3.06 1.87,1.91 3.04,4.59 3.04,7.54 0,2.96 -1.17,5.64 -3.04,7.55 z m 24.41,-49.79 c -0.61,-0.86 -1.29,-1.67 -2.03,-2.42 -0.84,-0.85 -1.76,-1.64 -2.74,-2.33 -0.72,-1.45 -1.12,-3.1 -1.12,-4.85 0,-2.95 1.16,-5.63 3.04,-7.54 1.85,-1.89 4.43,-3.06 7.27,-3.06 2.85,0 5.43,1.17 7.28,3.06 1.88,1.91 3.04,4.59 3.04,7.54 0,2.97 -1.16,5.65 -3.04,7.55 -1.85,1.89 -4.43,3.07 -7.28,3.07 -1.58,0 -3.09,-0.37 -4.42,-1.02 z m -8.68,19.21 c -1.86,1.89 -4.44,3.06 -7.28,3.06 -2.85,0 -5.43,-1.17 -7.28,-3.06 -1.87,-1.91 -3.04,-4.59 -3.04,-7.55 0,-2.95 1.17,-5.63 3.04,-7.54 1.85,-1.89 4.43,-3.06 7.28,-3.06 1.58,0 3.09,0.36 4.43,1.01 0.61,0.86 1.28,1.67 2.02,2.42 0.84,0.86 1.76,1.64 2.74,2.33 0.72,1.45 1.12,3.1 1.12,4.84 0,2.96 -1.16,5.64 -3.03,7.55 z m 55.04,-23.88 c -1.85,1.9 -4.43,3.07 -7.28,3.07 -2.84,0 -5.42,-1.17 -7.28,-3.07 -1.87,-1.91 -3.03,-4.59 -3.03,-7.54 0,-2.96 1.16,-5.64 3.03,-7.55 1.86,-1.89 4.44,-3.06 7.28,-3.06 2.85,0 5.43,1.17 7.28,3.06 1.87,1.91 3.04,4.59 3.04,7.55 0,2.95 -1.17,5.63 -3.04,7.54 z m -443.22,433.6 c -1.6,-3.6 31.31,-19.74 36.24,-31.65 -4.41,-3.21 -43.45,23.51 -47.43,23.03 -3.64,0.66 -2.59,-2.29 1.52,-3.62 12.7,-8.13 35.95,-22.01 39.73,-27.34 -9.38,0.09 -27.78,12.26 -40.53,17.69 -3.52,0.89 -5.37,-2.93 -0.96,-6.11 4.16,-1.93 35.21,-21.84 34.76,-22.38 36.78,-32.47 71.88,-66.15 106.52,-100.9 34.11,-34.21 67.5,-70.32 101,-110.13 2.37,31.13 24.3,40.82 46.15,41.07 l -159.32,155.3 c 0.35,15.49 2.45,27.55 7.59,40.71 -19.78,1.02 -25.1,0.41 -37.46,-15.07 l -3.68,2.52 c -4.55,3.13 -9.4,6.94 -14.52,10.98 -13.16,10.36 -28.38,22.36 -43.05,26 -2.39,0.62 -5.12,1.16 -7.14,1.07 1.9,-2.29 23.26,-13.19 25.6,-23.52 -3.78,-1.18 -31.05,20 -45.02,22.35 z M 7704.3,1701.9 c -1.31,-17.85 -12.76,-37.82 -32.6,-59.57 19.87,1.01 51.69,43.77 65.57,69.88 4.16,-17.59 -13.36,-42.48 -31.87,-61.18 21.74,4.38 40.71,20.39 55.62,46.2 0.16,-12.24 -6.03,-24.47 -15.64,-36.69 25.16,18.3 38.94,38.46 41.67,56.28 1.58,17.61 18.88,12.39 35.74,6.35 37.4,-19.79 65.91,-61.23 68.06,-124.26 -14.43,-93.24 -61.81,-140.33 -149.96,-133.05 -41.85,9.73 -75.82,40.39 -94.77,93.14 -10,57.09 10.68,104.32 58.18,142.9 z m 197.86,-105.57 c -1.5,36.24 3.53,51.1 13.43,68.19 6.11,10.52 6.36,19.99 2.88,21.79 -15.19,7.89 -20.16,-25.55 -27.25,-25.52 -6.62,0.02 -8.41,17.24 -2.08,25.17 16.74,19.24 36.49,19.32 48.28,-5.24 15.72,-36.92 -6.67,-85.67 -35.26,-84.39 z m -83.77,73.2 c -16.19,2.47 -30.14,-4.42 -35.62,-20.09 -31.2,25.49 22.82,55.74 35.62,20.09 z m -104.52,-52.26 c -10.74,1.74 -33.25,-3.52 -44.05,-18.82 -21.82,26.38 35.02,56.25 44.05,18.82 z m -17.18,-9.78 c 9.13,2.65 19.38,-4.8 22.88,-16.67 3.5,-11.86 -1.08,-23.61 -10.22,-26.27 -9.13,-2.65 -19.38,4.8 -22.88,16.67 -3.49,11.87 1.08,23.62 10.22,26.27 z m 33.46,-35.64 c 20.79,-2.66 41.78,5.29 50.93,20.23 18.95,-32.05 -35.24,-55.3 -50.93,-20.23 z m 66.26,78.74 c 9.43,1.29 18.47,-7.74 20.18,-20.2 1.7,-12.45 -4.57,-23.58 -14,-24.87 -9.42,-1.29 -18.45,7.73 -20.16,20.19 -1.7,12.45 4.56,23.58 13.98,24.88 z m -83.78,-116.14 c 72.22,-13.45 107.09,23.45 126.77,76.85 -1.43,1.9 -2.44,4.13 -2.88,6.57 -1.41,7.92 3.78,15 11.6,15.82 7.82,0.82 15.31,-4.92 16.73,-12.83 1.36,-7.57 -3.33,-14.38 -10.58,-15.68 2.46,-46.16 -33.68,-163.86 -148.32,-86.66 -1.88,-1.17 -4.06,-1.93 -6.46,-2.19 -8.88,-0.93 -17.39,5.59 -19,14.58 -1.6,9 4.28,17.04 13.17,17.97 8.83,0.92 17.29,-5.52 18.97,-14.43 z m 122.42,38.3 c -22.53,-32.92 -56.98,-57.87 -105.03,-51.69 35.82,-28.54 100.4,-9.26 105.03,51.69"
         style="fill:#231f20;fill-opacity:1;fill-rule:evenodd;stroke:none"
         id="path16" />
      <path
         d="m 726.348,1092.29 h 124.55 c 41.379,0 70.719,5.09 88.211,15.45 17.485,10.19 26.231,27.12 26.231,50.64 0,23.5 -8.938,40.11 -26.82,50.13 -17.676,10.03 -47.793,14.97 -89.954,14.97 H 726.348 Z m 0,260.41 h 110.945 c 37.109,0 63.34,4.6 78.496,13.97 15.156,9.37 22.731,24.99 22.731,47.19 0,23.51 -8.157,39.45 -24.481,48.16 -16.324,8.72 -54.012,12.99 -113.078,12.99 H 726.348 Z M 465.203,926.566 V 1635.8 H 808.93 c 73.828,0 127.843,-1.64 161.66,-4.77 33.8,-3.29 62.75,-8.55 87.04,-15.94 42.55,-13.49 75,-34.54 97.73,-62.97 22.54,-28.61 33.82,-63.3 33.82,-104.07 0,-32.06 -8.36,-60.01 -25.26,-84.01 -16.91,-23.84 -42.36,-43.57 -76.17,-58.86 44.5,-13.48 77.34,-33.7 98.71,-60.66 21.17,-26.96 31.86,-61.98 31.86,-105.06 0,-42.08 -10.3,-78.58 -31.08,-109.65 -20.6,-30.908 -50.72,-54.744 -90.17,-71.513 -26.61,-11.508 -57.11,-19.734 -91.13,-24.496 -34.19,-4.77 -90.733,-7.235 -169.811,-7.235 z m 1216.907,0 V 1635.8 h 269.3 v -240.69 h 250.65 v 240.69 h 269.31 V 926.566 H 2202.06 V 1201.78 H 1951.41 V 926.566 Z m 1274.23,0 V 1635.8 H 3230.3 V 926.566 Z m 1057.52,0 H 3742.67 V 1635.8 h 380.44 l 145.5,-373.98 155.13,373.98 h 371.24 V 926.566 h -271.19 l 3.89,362.044 -153.97,-362.044 h -209.12 l -154.63,368.894 z m 2175.68,242.654 h 176.26 l -87.12,245.62 z M 5828.5,926.566 6136.05,1635.8 h 284.46 l 307.55,-709.234 h -278.37 l -32.83,83.174 h -278.38 l -33.83,-83.174 H 5828.5"
         style="fill:#231f20;fill-opacity:1;fill-rule:evenodd;stroke:none"
         id="path18" />
      <path
         d="M 0,5.46484 H 8418.88 V 563.699 H 0 V 5.46484"
         style="fill:#b01419;fill-opacity:1;fill-rule:evenodd;stroke:none"
         id="path20" />
      <path
         d="m 493.734,244.859 v 42.844 h 161.875 c 0.118,-2.668 0.188,-4.476 0.188,-5.461 0,-22.172 -6.031,-43.094 -18.012,-62.836 -11.98,-19.629 -28.496,-35.023 -49.488,-46.32 -20.484,-10.992 -41.91,-16.516 -64.203,-16.516 -23.031,0 -45.262,5.77 -66.617,17.258 -20.868,11.18 -37.192,26.887 -49.122,47.129 -11.855,20.301 -17.816,41.785 -17.816,64.633 0,27.137 8.137,51.976 24.402,74.387 14.411,19.871 33.344,34.711 56.75,44.394 16.766,6.891 33.84,10.371 51.289,10.371 16.266,0 32.165,-2.918 47.688,-8.82 15.52,-5.902 29.238,-14.215 41.102,-24.895 15.402,-13.968 25.89,-28.691 31.48,-44.144 h -54.953 c -7.141,10.984 -16.574,19.551 -28.309,25.762 -11.8,6.148 -24.343,9.25 -37.816,9.25 -24.836,0 -45.324,-8.567 -61.469,-25.704 -7.265,-7.757 -13.043,-17.199 -17.453,-28.312 -4.344,-11.113 -6.516,-21.981 -6.516,-32.66 0,-17.387 5.153,-33.715 15.461,-48.992 9.192,-13.719 21.422,-23.778 36.692,-30.051 10.933,-4.535 22.789,-6.77 35.648,-6.77 15.645,0 29.988,4.039 43.09,12.176 13.102,8.129 23.156,19.246 30.172,33.277 z m 365.961,169.883 c 24.285,0 46.879,-6.398 67.868,-19.125 20.863,-12.73 36.82,-29.867 47.808,-51.476 9.383,-18.438 14.035,-37.938 14.035,-58.551 0,-24.274 -6.394,-46.754 -19.121,-67.367 -12.73,-20.739 -29.93,-36.571 -51.664,-47.438 -18.562,-9.5 -38.058,-14.215 -58.613,-14.215 -24.59,0 -47.371,6.328 -68.238,18.934 -20.739,12.605 -36.696,29.676 -47.813,51.285 -9.496,18.441 -14.215,38.5 -14.215,60.231 0,23.035 6.332,45.015 18.938,65.882 12.476,20.489 29.8,36.379 51.851,47.618 18,9.253 37.684,13.968 59.164,14.222 z m 0,-42.847 c -23.031,0 -42.715,-8.379 -59.047,-25.141 -7.757,-7.891 -13.843,-17.199 -18.195,-27.879 -4.344,-10.684 -6.515,-21.484 -6.515,-32.418 0,-24.527 8.32,-45.199 24.894,-62.086 16.332,-16.641 36.078,-24.965 59.176,-24.965 22.789,0 42.281,8.266 58.488,24.778 16.457,17.015 24.719,37.445 24.719,61.406 0,11.492 -2.176,22.664 -6.527,33.469 -4.34,10.8 -10.489,20.117 -18.379,27.879 -16.329,16.265 -35.883,24.585 -58.614,24.957 z M 1075.4,161.41 v 248.485 h 46.19 V 204.254 h 75.26 V 161.41 Z m 202.05,0 v 248.485 h 56.56 c 37.19,0 66.38,-6.266 87.49,-18.75 16.95,-9.93 30.48,-24.84 40.55,-44.582 9.8,-19.555 14.71,-40.047 14.71,-61.528 0,-29.746 -8.82,-56.137 -26.39,-79.23 -11.74,-15.52 -26.76,-26.825 -45.01,-33.84 -18.2,-7.016 -41.67,-10.555 -70.23,-10.555 z m 46.19,42.844 h 9.81 c 14.59,0 26.33,0.926 35.39,2.734 9,1.797 17.39,4.965 25.02,9.492 12.12,7.27 21.49,17.395 28.14,30.243 5.96,11.55 8.93,24.156 8.93,37.754 0,19.433 -5.64,36.628 -16.88,51.593 -8.38,11.055 -18.88,19 -31.48,23.778 -12.61,4.789 -29.37,7.211 -50.18,7.211 h -8.75 V 204.254"
         style="fill:#ffffff;fill-opacity:1;fill-rule:nonzero;stroke:none"
         id="path22" />
      <path
         d="m 1907.05,161.41 v 248.485 h 56.57 c 37.18,0 66.37,-6.266 87.49,-18.75 16.94,-9.93 30.48,-24.84 40.54,-44.582 9.8,-19.555 14.71,-40.047 14.71,-61.528 0,-29.746 -8.82,-56.137 -26.39,-79.23 -11.73,-15.52 -26.76,-26.825 -45.01,-33.84 -18.19,-7.016 -41.67,-10.555 -70.23,-10.555 z m 46.2,42.844 h 9.81 c 14.59,0 26.32,0.926 35.39,2.734 9,1.797 17.39,4.965 25.02,9.492 12.11,7.27 21.49,17.395 28.13,30.243 5.96,11.55 8.94,24.156 8.94,37.754 0,19.433 -5.65,36.628 -16.89,51.593 -8.38,11.055 -18.88,19 -31.48,23.778 -12.6,4.789 -29.37,7.211 -50.17,7.211 h -8.75 z m 238.8,-42.844 v 248.485 h 46.2 V 161.41 Z m 119.28,0 103.51,248.485 h 36.01 L 2554.91,161.41 h -50.73 l -26.57,64.074 h -88.05 l -27.44,-64.074 z m 95,106.918 h 53.08 l -26.57,76.438 z M 2628.86,161.41 v 248.485 h 63.96 l 65.94,-188.254 65.63,188.254 h 63.77 V 161.41 h -46.2 V 347.684 L 2777.82,161.41 h -38.8 l -63.96,186.274 V 161.41 Z m 474.87,253.332 c 24.29,0 46.88,-6.398 67.88,-19.125 20.85,-12.73 36.81,-29.867 47.8,-51.476 9.38,-18.438 14.04,-37.938 14.04,-58.551 0,-24.274 -6.4,-46.754 -19.13,-67.367 -12.73,-20.739 -29.93,-36.571 -51.66,-47.438 -18.57,-9.5 -38.06,-14.215 -58.61,-14.215 -24.59,0 -47.37,6.328 -68.24,18.934 -20.74,12.605 -36.69,29.676 -47.81,51.285 -9.5,18.441 -14.22,38.5 -14.22,60.231 0,23.035 6.33,45.015 18.94,65.882 12.48,20.489 29.8,36.379 51.85,47.618 18,9.253 37.68,13.968 59.16,14.222 z m 0,-42.847 c -23.03,0 -42.71,-8.379 -59.04,-25.141 -7.76,-7.891 -13.85,-17.199 -18.19,-27.879 -4.35,-10.684 -6.52,-21.484 -6.52,-32.418 0,-24.527 8.32,-45.199 24.89,-62.086 16.33,-16.641 36.08,-24.965 59.18,-24.965 22.79,0 42.28,8.266 58.49,24.778 16.45,17.015 24.71,37.445 24.71,61.406 0,11.492 -2.17,22.664 -6.52,33.469 -4.34,10.8 -10.49,20.117 -18.38,27.879 -16.33,16.265 -35.88,24.585 -58.62,24.957 z M 3319.44,161.41 v 248.485 h 52.53 l 102.82,-180.809 v 180.809 h 46.19 V 161.41 h -51.59 L 3365.63,341.848 V 161.41 Z m 298.6,0 v 248.485 h 56.56 c 37.19,0 66.38,-6.266 87.49,-18.75 16.95,-9.93 30.49,-24.84 40.54,-44.582 9.81,-19.555 14.72,-40.047 14.72,-61.528 0,-29.746 -8.82,-56.137 -26.39,-79.23 -11.74,-15.52 -26.76,-26.825 -45.01,-33.84 -18.2,-7.016 -41.67,-10.555 -70.24,-10.555 z m 46.19,42.844 h 9.82 c 14.58,0 26.32,0.926 35.38,2.734 9.01,1.797 17.39,4.965 25.03,9.492 12.11,7.27 21.49,17.395 28.13,30.243 5.96,11.55 8.93,24.156 8.93,37.754 0,19.433 -5.64,36.628 -16.88,51.593 -8.38,11.055 -18.88,19 -31.48,23.778 -12.61,4.789 -29.37,7.211 -50.18,7.211 h -8.75 z m 221.91,28.312 h 48.19 c 0.25,-10.125 3.42,-18.195 9.56,-24.211 6.08,-5.964 14.22,-8.949 24.4,-8.949 9.82,0 17.89,2.918 24.09,8.821 6.27,5.902 9.38,13.414 9.38,22.476 0,8.875 -2.48,16.078 -7.51,21.606 -5.03,5.527 -13.72,10.5 -26.08,15.027 -17.76,6.398 -29.62,11.113 -35.46,14.094 -5.89,2.98 -11.42,7.078 -16.64,12.293 -13.9,13.66 -20.86,30.488 -20.86,50.418 0,18.566 6.52,34.582 19.62,48.058 14.53,15.031 32.29,22.543 53.21,22.543 10.94,0 21.42,-2.422 31.55,-7.199 10.12,-4.789 18.75,-11.434 25.89,-19.813 9.81,-11.921 15.15,-26.515 16.02,-43.773 H 3994 c -0.74,8.691 -3.54,15.52 -8.32,20.484 -4.84,4.973 -11.18,7.454 -18.88,7.454 -7.88,0 -14.15,-2.293 -18.81,-6.829 -4.66,-4.535 -6.95,-10.617 -6.95,-18.312 0,-8.203 3.16,-14.906 9.43,-19.996 4.97,-4.039 15.65,-8.879 32.1,-14.528 19.25,-6.71 33.41,-14.343 42.47,-22.976 15.03,-14.094 22.55,-31.477 22.55,-52.219 0,-22.222 -7.58,-40.914 -22.73,-56.066 -16.39,-16.274 -35.64,-24.399 -57.81,-24.399 -12.48,0 -24.52,2.731 -36.14,8.125 -11.54,5.469 -21.04,12.918 -28.44,22.364 -10.05,12.789 -15.52,27.996 -16.33,45.507"
         style="fill:#ffffff;fill-opacity:1;fill-rule:nonzero;stroke:none"
         id="path24" />
      <path
         d="m 6128.58,161.41 v 248.485 h 62.77 c 17.7,0 30.74,-0.805 39.06,-2.352 8.32,-1.563 16.2,-4.789 23.72,-9.629 22.35,-14.469 33.53,-35.519 33.53,-63.332 0,-15.832 -3.98,-30.359 -11.87,-43.461 -10.43,-17.574 -25.08,-28.312 -44.02,-32.351 -7.57,-1.551 -21.18,-2.36 -40.98,-2.36 h -16.02 v -95 z m 46.19,137.844 h 14.71 c 13.86,0 24.23,1.238 30.99,3.66 6.21,2.301 11.36,6.332 15.33,12.172 4.04,5.836 6.03,12.23 6.03,19.184 0,6.894 -1.92,13.043 -5.83,18.378 -3.91,5.344 -9.13,9.192 -15.65,11.493 -5.65,1.922 -15.28,2.918 -29,2.918 h -16.58 z m 193.3,-137.844 v 248.485 h 46.19 V 204.254 h 75.26 V 161.41 Z m 178.39,0 103.5,248.485 h 36.01 L 6790.04,161.41 h -50.73 l -26.58,64.074 h -88.04 l -27.45,-64.074 z m 95,106.918 h 53.08 l -26.58,76.438 z M 6876.78,161.41 v 205.649 h -46.19 v 42.836 h 137.83 v -42.836 h -45.45 V 161.41 Z m 169.57,0 v 248.485 h 46.19 V 161.41 Z m 142.94,0 v 248.485 h 52.52 l 102.83,-180.809 v 180.809 h 46.19 V 161.41 h -51.6 L 7235.48,341.848 V 161.41 Z m 295.98,248.485 h 46.2 V 252 c 0,-9.25 0.5,-16.332 1.56,-21.172 0.99,-4.906 3.04,-9.558 6.02,-14.094 7.82,-11.796 19.43,-17.699 34.7,-17.699 7.33,0 14.16,1.555 20.43,4.656 6.28,3.11 11.18,7.329 14.66,12.672 2.85,4.282 4.84,9.004 5.96,14.153 1.05,5.218 1.61,12.355 1.61,21.484 v 157.895 h 46.2 V 252 c 0,-27.195 -5.65,-47.871 -16.89,-62.094 -8.01,-10.117 -17.88,-18.129 -29.61,-24.086 -12.86,-6.402 -26.77,-9.629 -41.8,-9.629 -18.99,0 -36.26,5.094 -51.78,15.274 -13.1,8.637 -22.54,19.25 -28.44,31.922 -5.9,12.601 -8.82,28.808 -8.82,48.613 z M 7757.42,161.41 v 248.485 h 63.95 l 65.95,-188.254 65.63,188.254 h 63.76 V 161.41 h -46.2 V 347.684 L 7906.38,161.41 h -38.81 l -63.95,186.274 V 161.41 h -46.2"
         style="fill:#ffffff;fill-opacity:1;fill-rule:nonzero;stroke:none"
         id="path26" />
      <path
         d="m 1697.54,318.215 c 32.31,0 58.51,-26.192 58.51,-58.516 0,-32.328 -26.2,-58.519 -58.51,-58.519 -32.32,0 -58.52,26.191 -58.52,58.519 0,32.324 26.2,58.516 58.52,58.516"
         style="fill:#fff200;fill-opacity:1;fill-rule:evenodd;stroke:none"
         id="path28" />
      <path
         d="M 6012.8,1566.05 4059.4,483.645 h 1017.49 z"
         style="fill:#fff200;fill-opacity:1;fill-rule:evenodd;stroke:none"
         id="path30" />
      <path
         d="m 4678.66,544.496 c 2.8,4.754 4.84,9.352 6.12,13.774 1.29,4.453 1.83,8.824 1.58,13.152 -0.26,3.98 -1.42,8.394 -3.45,13.195 -2.05,4.817 -5.46,11.141 -10.28,18.961 l -32.56,52.86 c -4.16,6.738 -8.37,10.636 -12.64,11.628 -4.25,1.016 -10.04,-0.484 -17.35,-4.48 l -1.54,2.492 c 3.17,1.824 6.5,3.777 10.01,5.875 3.49,2.086 8.62,5.219 15.38,9.387 6.57,4.043 11.46,7.082 14.62,9.09 3.18,2.015 6.08,3.906 8.72,5.664 l 1.54,-2.492 c -6.44,-4.887 -10.06,-9.282 -10.9,-13.204 -0.82,-3.882 0.83,-9.199 4.97,-15.91 l 32.19,-52.281 c 6.12,-9.926 9.97,-17.418 11.54,-22.496 1.57,-5.086 1.98,-9.988 1.21,-14.688 -0.78,-5.07 -2.55,-10.265 -5.26,-15.527 -2.72,-5.305 -6.43,-10.75 -11.16,-16.391 z m 41.81,57.418 -1.54,2.496 c 6.86,5.461 10.78,10.051 11.8,13.762 1,3.703 -0.75,9.219 -5.28,16.57 l -32.67,53.051 c -4.78,7.758 -9.1,12.152 -13.02,13.172 -3.88,1.051 -9.15,-0.285 -15.75,-3.969 l -1.54,2.484 c 4.58,2.661 9.42,5.551 14.54,8.641 5.12,3.125 12.51,7.645 22.2,13.613 11.34,6.981 19.61,12.102 24.83,15.348 5.23,3.289 9.91,6.231 14.06,8.891 1.47,-3.321 3.15,-6.817 5.01,-10.504 1.85,-3.688 4.05,-7.914 6.57,-12.637 l -2.07,-1.277 c -4.66,6.523 -9.49,10.078 -14.48,10.636 -5.02,0.559 -11.81,-1.808 -20.4,-7.089 l -18.11,-11.157 24.56,-39.875 13.94,8.586 c 7.61,4.692 12.27,8.899 13.99,12.629 1.71,3.731 1.39,8.375 -0.9,13.957 l 2.22,1.367 c 1.55,-2.511 3.9,-6.539 7.03,-12.089 3.12,-5.52 5.63,-9.805 7.47,-12.805 l 4.93,-8.016 -2.02,-1.242 c -3.46,4.559 -7.23,6.883 -11.39,6.961 -4.16,0.078 -9.96,-2.164 -17.47,-6.785 l -14.05,-8.653 15.17,-24.621 c 4.63,-7.523 9.19,-11.511 13.74,-12.027 4.53,-0.48 11.25,2 20.15,7.481 8.19,5.046 13.37,11 15.55,17.855 2.14,6.852 1.44,14.98 -2.18,24.367 l 2.38,1.086 c 2.94,-5.387 5.45,-10.707 7.5,-15.996 2.06,-5.297 3.64,-10.496 4.72,-15.621 -6.64,-3.84 -13.88,-8.109 -21.69,-12.785 -7.81,-4.688 -16.28,-9.836 -25.44,-15.489 -8.51,-5.238 -15.05,-9.3 -19.57,-12.144 -4.52,-2.848 -8.79,-5.57 -12.79,-8.172 z m 129.63,75.078 -72.8,66.102 c -5.89,5.445 -10.64,8.601 -14.25,9.496 -3.58,0.918 -7.48,0.226 -11.72,-2.004 l -1.54,2.496 c 2.24,1.246 4.66,2.637 7.26,4.184 2.61,1.547 6.66,4.011 12.12,7.363 5.63,3.469 9.88,6.121 12.76,7.957 2.88,1.836 5.6,3.609 8.15,5.312 l 1.54,-2.5 c -4.71,-3.207 -7.59,-6.171 -8.64,-8.851 -1.04,-2.711 -0.49,-5.774 1.64,-9.227 0.59,-0.949 1.53,-2.183 2.87,-3.648 1.37,-1.481 2.92,-3.035 4.76,-4.649 l 48.09,-43.734 -15.14,75.137 c -3.78,3.015 -7.48,4.687 -11.11,5 -3.61,0.324 -7.32,-0.692 -11.09,-3.02 l -0.88,-0.535 -1.54,2.492 c 2.48,1.395 5.15,2.95 7.97,4.621 2.83,1.68 7.06,4.254 12.69,7.719 5.77,3.555 10.09,6.25 12.97,8.082 2.88,1.836 5.56,3.582 8.08,5.27 l 1.54,-2.492 c -4.57,-2.817 -7.45,-5.508 -8.72,-8.11 -1.25,-2.609 -1,-5.355 0.78,-8.238 0.64,-1.035 1.51,-2.149 2.57,-3.352 1.09,-1.199 2.45,-2.527 4.11,-3.984 l 51.86,-45.438 -6.72,31.004 c -2.7,12.5 -5.11,22.461 -7.23,29.942 -2.12,7.453 -3.93,12.422 -5.47,14.906 -1.79,2.91 -4.22,4.437 -7.29,4.547 -3.02,0.109 -7,-1.184 -11.86,-3.871 l -1.54,2.492 c 2.32,1.293 4.78,2.719 7.44,4.297 2.64,1.558 6.55,3.937 11.72,7.121 5.15,3.172 8.98,5.562 11.49,7.176 2.51,1.609 4.84,3.14 6.99,4.601 l 1.54,-2.5 c -4.77,-2.937 -7.74,-6.898 -8.91,-11.883 -1.17,-4.957 -0.72,-12.191 1.33,-21.687 l 9.69,-44.918 c 1.91,-8.723 3.7,-17.074 5.48,-25.012 1.77,-7.984 3.51,-15.629 5.27,-23.015 l -1.83,-1.118 -72.48,63.778 19.6,-96.356 z m 100.2,66.488 -1.54,2.485 c 6.85,5.473 10.78,10.055 11.81,13.765 0.99,3.708 -0.75,9.219 -5.29,16.579 l -32.67,53.043 c -4.78,7.757 -9.11,12.152 -13.01,13.179 -3.89,1.039 -9.16,-0.293 -15.76,-3.98 l -1.54,2.496 c 4.58,2.66 9.41,5.543 14.54,8.633 5.12,3.121 12.51,7.644 22.2,13.609 11.34,6.984 19.6,12.109 24.83,15.359 5.22,3.29 9.9,6.231 14.06,8.883 1.47,-3.32 3.15,-6.808 5.01,-10.5 1.86,-3.695 4.05,-7.918 6.58,-12.633 l -2.09,-1.277 c -4.65,6.52 -9.48,10.07 -14.47,10.625 -5.03,0.567 -11.81,-1.797 -20.39,-7.082 l -18.12,-11.16 24.56,-39.871 13.94,8.586 c 7.61,4.687 12.27,8.894 13.98,12.625 1.71,3.73 1.41,8.371 -0.89,13.961 l 2.22,1.367 c 1.54,-2.516 3.89,-6.543 7.03,-12.094 3.12,-5.523 5.62,-9.805 7.47,-12.801 l 4.93,-8.011 -2.02,-1.246 c -3.46,4.562 -7.23,6.875 -11.4,6.96 -4.14,0.079 -9.95,-2.167 -17.45,-6.789 l -14.06,-8.652 15.17,-24.613 c 4.63,-7.528 9.19,-11.524 13.74,-12.028 4.53,-0.488 11.25,1.993 20.15,7.473 8.19,5.047 13.37,11.008 15.56,17.856 2.13,6.855 1.42,14.976 -2.19,24.367 l 2.38,1.086 c 2.94,-5.383 5.45,-10.707 7.5,-15.996 2.06,-5.293 3.63,-10.496 4.72,-15.621 -6.64,-3.836 -13.88,-8.102 -21.68,-12.786 -7.82,-4.687 -16.29,-9.839 -25.45,-15.48 -8.52,-5.246 -15.05,-9.305 -19.57,-12.149 -4.52,-2.843 -8.79,-5.574 -12.79,-8.168 z m 92.08,56.715 -1.53,2.496 c 6.85,4.954 10.65,9.52 11.38,13.704 0.77,4.191 -1.84,11.113 -7.81,20.804 l -28.88,46.879 c -5.16,8.379 -9.69,13.102 -13.61,14.149 -3.93,1.054 -9.74,-0.266 -17.44,-4.032 l -1.54,2.493 c 2.85,1.625 5.91,3.421 9.22,5.39 3.3,1.977 8.26,4.992 14.87,9.07 6.67,4.114 11.67,7.215 14.99,9.321 3.33,2.117 6.45,4.133 9.37,6.066 l 1.54,-2.496 c -6.78,-4.965 -10.53,-9.512 -11.31,-13.621 -0.75,-4.09 1.41,-10.293 6.51,-18.582 l 28.88,-46.879 c 4.16,-6.762 7.08,-11.199 8.79,-13.34 1.65,-2.121 3.23,-3.637 4.66,-4.574 1.27,-0.707 3.07,-0.648 5.45,0.246 2.39,0.867 6.63,3.188 12.72,6.941 6.48,3.989 11,7.153 13.5,9.497 2.52,2.304 4.41,4.777 5.68,7.351 1.71,3.332 2.82,7.266 3.41,11.797 0.55,4.516 0.67,10.215 0.26,17.133 l 2.26,0.269 8.3,-31.203 c -8.65,-5.133 -16.29,-9.679 -22.93,-13.672 -6.62,-3.984 -13.07,-7.929 -19.39,-11.82 -3.6,-2.215 -9.55,-5.941 -17.87,-11.191 -8.29,-5.239 -14.79,-9.305 -19.48,-12.196 z m 91.4,56.301 -1.53,2.484 c 6.84,4.954 10.64,9.524 11.38,13.708 0.76,4.187 -1.84,11.109 -7.82,20.804 l -28.88,46.879 c -5.15,8.379 -9.69,13.102 -13.61,14.145 -3.93,1.054 -9.74,-0.262 -17.44,-4.028 l -1.54,2.5 c 2.86,1.617 5.92,3.41 9.22,5.383 3.31,1.973 8.26,4.992 14.88,9.07 6.67,4.11 11.66,7.215 14.98,9.325 3.34,2.117 6.46,4.129 9.37,6.062 l 1.54,-2.492 c -6.77,-4.973 -10.53,-9.512 -11.31,-13.617 -0.75,-4.102 1.41,-10.305 6.52,-18.594 l 28.87,-46.875 c 4.16,-6.762 7.09,-11.199 8.79,-13.34 1.66,-2.121 3.23,-3.64 4.66,-4.566 1.27,-0.719 3.07,-0.66 5.45,0.238 2.4,0.867 6.63,3.188 12.73,6.941 6.48,3.993 10.99,7.153 13.5,9.493 2.51,2.316 4.41,4.781 5.67,7.351 1.71,3.34 2.82,7.27 3.41,11.797 0.56,4.524 0.68,10.223 0.27,17.137 l 2.25,0.269 8.3,-31.203 c -8.65,-5.133 -16.28,-9.679 -22.93,-13.672 -6.62,-3.984 -13.06,-7.922 -19.39,-11.824 -3.6,-2.211 -9.55,-5.937 -17.86,-11.183 -8.3,-5.247 -14.8,-9.309 -19.48,-12.192 z m 90.69,55.859 -1.53,2.493 c 6.85,5.465 10.78,10.043 11.8,13.765 1,3.7 -0.75,9.215 -5.28,16.571 l -32.67,53.043 c -4.78,7.753 -9.1,12.163 -13.01,13.183 -3.9,1.04 -9.15,-0.29 -15.76,-3.98 l -1.54,2.49 c 4.57,2.66 9.41,5.55 14.54,8.64 5.12,3.12 12.51,7.64 22.2,13.61 11.33,6.98 19.6,12.1 24.82,15.35 5.23,3.29 9.91,6.23 14.07,8.89 1.47,-3.32 3.15,-6.81 5,-10.51 1.87,-3.68 4.06,-7.92 6.58,-12.63 l -2.08,-1.28 c -4.66,6.53 -9.48,10.08 -14.47,10.64 -5.03,0.56 -11.81,-1.81 -20.39,-7.09 l -18.12,-11.16 24.56,-39.872 13.94,8.586 c 7.62,4.695 12.27,8.896 13.99,12.616 1.71,3.74 1.4,8.39 -0.9,13.97 l 2.22,1.37 c 1.54,-2.51 3.89,-6.54 7.03,-12.09 3.12,-5.53 5.62,-9.804 7.47,-12.812 l 4.93,-8.007 -2.03,-1.246 c -3.45,4.562 -7.22,6.875 -11.38,6.96 -4.16,0.083 -9.97,-2.16 -17.47,-6.781 l -14.04,-8.656 15.15,-24.613 c 4.64,-7.528 9.2,-11.52 13.75,-12.028 4.53,-0.496 11.25,1.985 20.15,7.469 8.19,5.047 13.37,11.004 15.55,17.856 2.14,6.855 1.43,14.98 -2.18,24.375 l 2.38,1.078 c 2.94,-5.383 5.45,-10.7 7.51,-16 2.04,-5.289 3.62,-10.496 4.71,-15.621 -6.64,-3.832 -13.88,-8.102 -21.69,-12.774 -7.81,-4.691 -16.28,-9.847 -25.44,-15.488 -8.51,-5.246 -15.05,-9.305 -19.57,-12.149 -4.52,-2.843 -8.79,-5.574 -12.8,-8.168 z m 94.37,124.955 c 9.27,6.44 15.25,13.21 17.94,20.32 2.71,7.08 1.97,14.01 -2.21,20.79 -4.27,6.92 -10.24,10.78 -17.98,11.62 -7.72,0.81 -16.33,-1.54 -25.89,-7.04 z m -0.61,-67.212 -1.61,2.449 c 6.75,4.797 10.54,9.195 11.31,13.207 0.8,4.023 -1.91,11.047 -8.1,21.106 l -28.57,46.38 c -3.51,5.7 -6.25,9.6 -8.27,11.68 -1.98,2.09 -3.95,3.26 -5.93,3.53 -1.71,0.26 -3.72,0.14 -6.02,-0.36 -2.31,-0.5 -5.33,-1.47 -9.05,-2.97 l -1.54,2.49 c 10.22,6.42 20.78,13.12 31.71,20.14 2.75,1.79 4.38,2.86 4.93,3.2 12.12,7.46 22.35,11.01 30.61,10.67 8.27,-0.35 14.89,-4.61 19.91,-12.75 3.13,-5.08 4.43,-10.39 3.91,-15.96 -0.53,-5.54 -2.86,-11.27 -6.99,-17.17 18.71,-11.1 34.24,-18.18 46.61,-21.22 12.39,-3.06 23.28,-2.59 32.65,1.37 l 1.03,-2.62 c -0.69,-0.36 -1.74,-0.94 -3.11,-1.72 -12.58,-6.96 -21.55,-10.79 -26.93,-11.57 -3.46,-0.43 -7.21,-0.17 -11.25,0.81 -4.07,0.98 -9.5,3.07 -16.3,6.26 -4.6,2.1 -9.75,4.76 -15.44,7.97 -5.73,3.21 -9.33,5.11 -10.75,5.62 -1.63,0.63 -3.41,0.77 -5.38,0.45 -1.92,-0.32 -4.6,-1.3 -8.03,-2.91 l -7.26,-3.36 12.34,-20.03 c 5.85,-9.5 11,-14.821 15.45,-15.942 4.44,-1.11 10.79,0.511 19.06,4.862 l 1.53,-2.49 c -7.31,-4.306 -12.74,-7.521 -16.28,-9.681 -3.57,-2.16 -6.82,-4.168 -9.8,-5.996 -3.02,-1.867 -6.26,-3.891 -9.76,-6.109 -3.48,-2.207 -8.37,-5.325 -14.68,-9.336 z m 91.57,96.512 2.4,1.66 c 7.91,-7.31 15.76,-11.78 23.51,-13.36 7.77,-1.61 15.08,-0.29 21.97,3.96 5.36,3.29 8.79,7.63 10.32,13.06 1.5,5.41 0.75,10.56 -2.24,15.42 -2.55,4.14 -6.07,7.22 -10.58,9.22 -4.47,1.98 -9.91,2.93 -16.34,2.85 l -15.07,-0.33 c -8.08,-0.21 -14.79,0.87 -20.16,3.24 -5.36,2.35 -9.61,6.04 -12.72,11.09 -4.74,7.71 -5.77,15.93 -3.08,24.69 2.69,8.75 8.55,15.88 17.53,21.41 3.96,2.45 8.08,4.28 12.34,5.54 4.25,1.25 8.81,1.96 13.66,2.05 1.34,-3.02 2.95,-6.3 4.77,-9.82 1.84,-3.56 4.07,-7.66 6.74,-12.28 l -2.49,-1.53 c -5.82,7.12 -11.62,11.62 -17.39,13.55 -5.79,1.9 -11.42,1.17 -16.91,-2.21 -5,-3.08 -8.14,-7.25 -9.44,-12.47 -1.26,-5.23 -0.39,-10.3 2.63,-15.22 2.04,-3.3 5.07,-5.85 9.09,-7.63 4.02,-1.82 8.64,-2.7 13.84,-2.68 l 22.07,0.19 c 7.57,0.05 13.87,-1.13 18.95,-3.54 5.08,-2.41 9.19,-6.18 12.34,-11.31 4.86,-7.89 5.71,-16.5 2.55,-25.79 -3.15,-9.3 -9.49,-16.89 -19,-22.75 -5.05,-3.11 -10.22,-5.41 -15.52,-6.92 -5.3,-1.48 -10.54,-2.16 -15.73,-2.02 -3.16,3.34 -6.27,6.83 -9.3,10.51 -3.02,3.67 -5.94,7.47 -8.74,11.42"
         style="fill:#231f20;fill-opacity:1;fill-rule:nonzero;stroke:none"
         id="path32" />
      <path
         d="m 4511.66,232.566 h 48.18 c 0.26,-10.125 3.43,-18.195 9.57,-24.211 6.09,-5.964 14.22,-8.949 24.4,-8.949 9.82,0 17.89,2.918 24.09,8.821 6.28,5.902 9.38,13.414 9.38,22.476 0,8.875 -2.48,16.078 -7.51,21.606 -5.03,5.527 -13.72,10.5 -26.08,15.027 -17.76,6.398 -29.62,11.113 -35.46,14.094 -5.9,2.98 -11.42,7.078 -16.64,12.293 -13.9,13.66 -20.86,30.488 -20.86,50.418 0,18.566 6.52,34.582 19.63,48.058 14.52,15.031 32.28,22.543 53.2,22.543 10.94,0 21.42,-2.422 31.55,-7.199 10.12,-4.789 18.75,-11.434 25.89,-19.813 9.81,-11.921 15.15,-26.515 16.02,-43.773 h -47.5 c -0.74,8.691 -3.54,15.52 -8.32,20.484 -4.84,4.973 -11.18,7.454 -18.88,7.454 -7.88,0 -14.16,-2.293 -18.81,-6.829 -4.66,-4.535 -6.95,-10.617 -6.95,-18.312 0,-8.203 3.16,-14.906 9.43,-19.996 4.97,-4.039 15.65,-8.879 32.11,-14.528 19.24,-6.71 33.4,-14.343 42.46,-22.976 15.03,-14.094 22.55,-31.477 22.55,-52.219 0,-22.222 -7.58,-40.914 -22.73,-56.066 -16.39,-16.274 -35.64,-24.399 -57.81,-24.399 -12.48,0 -24.52,2.731 -36.14,8.125 -11.54,5.469 -21.04,12.918 -28.43,22.364 -10.07,12.789 -15.53,27.996 -16.34,45.507 z m 247.69,-71.156 v 248.485 h 46.2 V 161.41 Z m 142.94,0 v 248.485 h 46.19 V 204.254 h 75.26 V 161.41 Z m 251.35,0 -96.8,248.485 h 48.37 l 66.81,-189.004 67.12,189.004 h 48.37 L 5191.27,161.41 Z m 205.83,0 v 248.485 h 133.37 v -42.836 h -87.17 v -60.727 h 83.45 v -42.84 h -83.45 v -59.238 h 87.17 V 161.41 Z m 222.6,0 v 248.485 h 76.18 c 14.78,0 27.13,-1.485 37,-4.469 9.88,-2.977 18.63,-7.824 26.27,-14.469 17.57,-15.519 26.32,-34.828 26.32,-57.926 0,-11.797 -2.36,-23.16 -7.01,-34.156 -4.65,-10.984 -10.99,-19.988 -18.94,-27.07 -9.44,-8.379 -22.41,-14.586 -38.87,-18.75 l 67.31,-91.645 h -55.69 l -66.38,94.942 V 161.41 Z m 46.19,129.641 h 29.49 c 14.78,0 26.08,3.914 33.78,11.676 6.77,6.957 10.12,15.836 10.12,26.703 0,11.422 -3.97,20.547 -11.86,27.383 -7.88,6.828 -18.5,10.246 -31.85,10.246 h -29.68 v -76.008"
         style="fill:#ffffff;fill-opacity:1;fill-rule:nonzero;stroke:none"
         id="path34" />
      <path
         d="m 4287.16,318.215 c 32.32,0 58.52,-26.192 58.52,-58.516 0,-32.328 -26.2,-58.519 -58.52,-58.519 -32.31,0 -58.52,26.191 -58.52,58.519 0,32.324 26.21,58.516 58.52,58.516"
         style="fill:#fff200;fill-opacity:1;fill-rule:evenodd;stroke:none"
         id="path36" />
      <path
         d="m 5938.57,318.215 c 32.31,0 58.52,-26.192 58.52,-58.516 0,-32.328 -26.21,-58.519 -58.52,-58.519 -32.32,0 -58.52,26.191 -58.52,58.519 0,32.324 26.2,58.516 58.52,58.516"
         style="fill:#fff200;fill-opacity:1;fill-rule:evenodd;stroke:none"
         id="path38" />
    </g>
  </g>
</svg>
