<svg xmlns="http://www.w3.org/2000/svg" xmlns:xlink="http://www.w3.org/1999/xlink" xmlns:inkscape="http://www.inkscape.org/namespaces/inkscape" version="1.1" width="350.419" height="350.419" viewBox="0 0 350.419 350.419">
<defs>
<clipPath id="clip_0">
<path transform="matrix(1,0,0,-1,0,350.419)" d="M0 350.419H350.419V0H0Z"/>
</clipPath>
</defs>
<g inkscape:groupmode="layer" inkscape:label="Layer 1">
<g clip-path="url(#clip_0)">
<path transform="matrix(1,0,0,-1,133.2549,166.81832)" d="M0 0H4.15C8.126 0 10.822 .504 12.217 1.542 13.636 2.545 14.352 4.327 14.352 6.858 14.365 9.212 13.635 10.899 12.171 11.878 10.71 12.858 8.117 13.346 4.364 13.347H.005ZM-.007-25.88H4.352C8.427-25.88 11.317-25.341 13.067-24.227 14.811-23.108 15.681-21.271 15.681-18.723 15.681-16.003 14.828-14.056 13.132-12.832 11.438-11.63 8.656-11.014 4.787-11.014H0ZM-20.796-36.728-20.759 24.464 5.932 24.455C15.02 24.455 21.802 23.211 26.311 20.746 30.843 18.282 33.089 14.589 33.088 9.662 33.088 6.63 32.158 3.936 30.303 1.631 28.455-.685 25.773-2.497 22.298-3.773 26.883-4.882 30.349-6.754 32.767-9.39 35.162-12.028 36.369-15.295 36.369-19.218 36.357-24.987 34.083-29.347 29.568-32.31 25.029-35.276 18.315-36.741 9.448-36.741Z" fill="#005aaa"/>
<path transform="matrix(1,0,0,-1,172.0981,203.5697)" d="M0 0 .025 61.194 19.276 61.182 37.061 36.546 54.861 61.17 74.046 61.158 74.037 43.299 55.661 43.318 55.631 18.005 74.023 18.004 74.018-.032 53.154-.027 53.167 32.861 37.047 10.563 20.873 32.886V-.013Z" fill="#005aaa"/>
<path transform="matrix(1,0,0,-1,312.7402,203.63521)" d="M0 0 .014 61.195H-21.104V40.939L-43.053 40.947V61.22L-64.157 61.223V40.923L-82.506 40.939-82.518 20.503-64.116 20.488-64.146 .031-43.106 .03-43.091 20.526-21.118 20.506-21.132 .009Z" fill="#005aaa"/>
<path transform="matrix(1,0,0,-1,60.5313,177.9086)" d="M0 0C-3.542-11.007-6.882-22.454-7.8-33.467-7.806-49.143 3.83-46.331 4.633-35.418 4.878-23.397 2.168-11.233 0 0" fill="#f15a22" fill-rule="evenodd"/>
<path transform="matrix(1,0,0,-1,57.501,176.80411)" d="M0 0C-5.007-4.655-9.308-8.474-13.865-13.775-18.286-19.259-19.246-25.478-17.27-29.519-14.404-34.165-11.124-31.475-7.438-21.438Z" fill="#f15a22" fill-rule="evenodd"/>
<path transform="matrix(1,0,0,-1,56.499,173.057)" d="M0 0C-4.445-4.197-8.94-8.319-14.134-11.741-18.708-14.665-19.476-11.593-18.409-5.876-17.377-1.193-15.135 1.886-10.205 1.386-5.274 .9-.142 .116 0 0" fill="#f15a22" fill-rule="evenodd"/>
<path transform="matrix(1,0,0,-1,63.561,175.8417)" d="M0 0C4-11.536 5.802-30.115 10.356-34.141 14.159-38.784 20.54-40.321 24.216-32.108 27.357-23.329 22.733-19.027 16.061-13.014 9.957-8.153 6.074-4.768 0 0" fill="#f15a22" fill-rule="evenodd"/>
<path transform="matrix(1,0,0,-1,65.7813,172.6723)" d="M0 0C12.074-9.857 18.065-13.399 22.423-16.068 26.347-18.2 33.205-20.726 36.895-12.515 40.025-3.735 35.971 1.001 30.203 2.329 21.905 4.172 11.9 1.531 0 0" fill="#f15a22" fill-rule="evenodd"/>
<path transform="matrix(1,0,0,-1,57.8857,168.32071)" d="M0 0-10.994 2.628C-14.566 4.248-14.827 7.78-11.852 13.017-7.845 19.304-6.007 16.952-4.489 13.364Z" fill="#f15a22" fill-rule="evenodd"/>
<path transform="matrix(1,0,0,-1,61.2261,165.04682)" d="M0 0C-2.197 5.767-3.955 11.901-4.072 19.307-3.904 23.801-1.634 27.679 2.823 30.349 5.658 31.851 7.443 29.917 6.42 23.956 4.834 15.829 2.475 7.886 0 0" fill="#f15a22" fill-rule="evenodd"/>
<path transform="matrix(1,0,0,-1,66.2817,169.20742)" d="M0 0C11.894 1.465 17.832 2.209 28.719 4.431 42.296 6.542 45.981 23.986 31.551 22.794 23.185 20.675 12.979 12.415 0 0" fill="#f15a22" fill-rule="evenodd"/>
<path transform="matrix(1,0,0,-1,64.8096,164.9315)" d="M0 0C7.75 6.784 15 13.981 21.224 21.981 27.699 29.502 26.891 37.055 20.478 36.607 14.103 35.718 9.62 28.215 5.785 18.14 3.398 11.967 1.614 5.904 0 0" fill="#f15a22" fill-rule="evenodd"/>
<path transform="matrix(1,0,0,-1,248.5352,135.08441)" d="M0 0C.56-.273 1.395-.553 2.267-.553 3.202-.553 3.681-.166 3.681 .422 3.681 .974 3.266 1.303 2.187 1.688 .678 2.202-.278 3.039-.278 4.345-.278 5.882 .985 7.048 3.127 7.048 4.127 7.048 4.886 6.844 5.422 6.596L4.963 4.961C4.591 5.125 3.964 5.388 3.07 5.388 2.205 5.388 1.76 4.98 1.76 4.513 1.76 3.939 2.278 3.692 3.436 3.246 5.031 2.658 5.764 1.835 5.764 .569 5.764-.942 4.604-2.225 2.137-2.225 1.127-2.225 .104-1.963-.416-1.686Z" fill="#231f20"/>
<path transform="matrix(1,0,0,-1,0,350.419)" d="M255.608 219.765H257.642V213.247H255.608ZM257.698 221.585C257.698 221.031 257.283 220.573 256.6 220.573 255.977 220.573 255.537 221.031 255.562 221.585 255.537 222.179 255.977 222.615 256.618 222.615 257.283 222.615 257.687 222.179 257.698 221.585" fill="#231f20"/>
<path transform="matrix(1,0,0,-1,259.2695,132.7348)" d="M0 0C0 .814-.038 1.508-.057 2.081H1.712L1.792 1.194H1.846C2.1 1.609 2.785 2.233 3.864 2.233 5.179 2.233 6.181 1.35 6.181-.575V-4.437H4.173V-.818C4.173 .013 3.867 .586 3.128 .586 2.562 .586 2.25 .199 2.1-.165 2.04-.295 2.02-.492 2.02-.683V-4.437H0Z" fill="#231f20"/>
<path transform="matrix(1,0,0,-1,271.9902,137.0097)" d="M0 0C-.38-.163-1.057-.299-1.833-.299-3.923-.299-5.291 .982-5.291 3.042-5.291 4.941-3.982 6.508-1.532 6.508-.996 6.508-.434 6.418 .008 6.249L-.307 4.737C-.551 4.853-.918 4.941-1.457 4.941-2.525 4.941-3.224 4.187-3.206 3.12-3.206 1.918-2.393 1.284-1.404 1.284-.921 1.284-.551 1.373-.241 1.492Z" fill="#231f20"/>
<path transform="matrix(1,0,0,-1,276.9102,133.16931)" d="M0 0C0 .487-.216 1.321-1.146 1.321-2.005 1.321-2.366 .549-2.406 0ZM-2.39-1.389C-2.327-2.228-1.51-2.637-.549-2.637 .151-2.637 .708-2.531 1.25-2.372L1.505-3.737C.853-4.002 .021-4.14-.844-4.14-3.064-4.14-4.328-2.857-4.328-.823-4.328 .835-3.299 2.668-1.045 2.668 1.081 2.668 1.865 1.021 1.865-.592 1.865-.94 1.843-1.249 1.801-1.389Z" fill="#231f20"/>
<path transform="matrix(1,0,0,-1,285.0146,130.307)" d="M0 0H-.005L-1.677-.777-2.005 .738 .296 1.809H1.983V-6.865H0Z" fill="#231f20"/>
<path transform="matrix(1,0,0,-1,291.7178,131.3529)" d="M0 0C0-.757 .382-1.389 1.231-1.389 1.769-1.389 2.156-1.121 2.335-.817 2.398-.693 2.453-.567 2.453-.306 2.453 .614 2.096 1.516 1.17 1.516 .479 1.516-.016 .901 0 0M-1.234-4.348C-.99-4.386-.765-4.386-.37-4.348 .247-4.309 .881-4.144 1.358-3.816 1.92-3.431 2.294-2.876 2.453-2.224L2.398-2.203C2.014-2.61 1.461-2.837 .673-2.837-.79-2.837-2.032-1.806-2.032-.119-2.032 1.576-.681 3.004 1.231 3.004 3.464 3.004 4.525 1.289 4.525-.734 4.525-2.537 3.938-3.858 3-4.731 2.156-5.476 1.024-5.887-.31-5.94-.671-5.965-1.006-5.956-1.234-5.94Z" fill="#231f20"/>
<path transform="matrix(1,0,0,-1,299.3145,130.73181)" d="M0 0C0-.577 .541-.963 1.235-1.166 1.698-1.041 2.11-.617 2.11-.068 2.11 .463 1.8 1.002 1.045 1.002 .349 1.002 0 .547 0 0M2.275-4.112C2.275-3.351 1.72-2.89 .93-2.686 .262-2.864-.129-3.351-.129-3.973-.146-4.596 .332-5.19 1.1-5.19 1.802-5.19 2.275-4.726 2.275-4.112M-2.207-4.17C-2.207-3.13-1.594-2.413-.665-2.002V-1.964C-1.501-1.533-1.905-.821-1.905-.068-1.905 1.403-.592 2.383 1.153 2.383 3.187 2.383 4.021 1.2 4.021 .154 4.021-.6 3.628-1.337 2.766-1.76V-1.805C3.596-2.117 4.34-2.845 4.34-3.966 4.34-5.54 3.035-6.586 1.017-6.586-1.196-6.586-2.207-5.353-2.207-4.17" fill="#231f20"/>
<path transform="matrix(1,0,0,-1,310.876,128.49842)" d="M0 0V-1.276L-3.594-8.674H-5.745L-2.155-1.694V-1.667H-6.142V0Z" fill="#231f20"/>
<path transform="matrix(1,0,0,-1,112.4585,222.3598)" d="M0 0 1.451 7.616C1.669 8.816 1.824 9.857 1.935 10.751H3.566L3.272 8.72H3.343C4.342 10.212 5.7 10.988 7.118 10.988 8.757 10.988 9.543 9.943 9.627 8.597 10.585 10.146 11.962 10.971 13.585 10.988 14.826 10.988 16.176 10.196 16.176 8.171 16.176 7.664 16.113 6.938 16.004 6.353L14.8 0H13.008L14.163 6.198C14.25 6.593 14.318 7.141 14.318 7.593 14.318 8.72 13.896 9.458 12.696 9.458 11.36 9.458 9.782 7.902 9.332 5.508L8.29 0H6.516L7.713 6.302C7.808 6.773 7.853 7.195 7.853 7.616 7.853 8.524 7.601 9.458 6.246 9.458 4.891 9.458 3.231 7.676 2.809 5.398L1.808 0Z" fill="#231f20"/>
<path transform="matrix(1,0,0,-1,137.4546,218.1195)" d="M0 0C0-1.76 .961-3.029 2.54-3.029 4.722-3.029 6.354-.229 6.354 2.283 6.354 3.537 5.78 5.281 3.849 5.281 1.539 5.281-.013 2.467 0 0M8.245 2.27C8.245-1.044 5.891-4.494 2.293-4.494-.388-4.494-1.903-2.494-1.903-.075-1.903 3.465 .564 6.748 4.049 6.748 6.965 6.748 8.245 4.546 8.245 2.27" fill="#231f20"/>
<path transform="matrix(1,0,0,-1,151.9727,222.3598)" d="M0 0 1.309 6.929C1.578 8.326 1.752 9.751 1.861 10.751H3.478C3.395 9.991 3.31 9.236 3.196 8.412H3.27C3.958 9.88 5.11 10.988 6.548 10.988 6.702 10.988 6.932 10.971 7.056 10.944L6.702 9.129C6.595 9.146 6.423 9.171 6.214 9.171 4.621 9.171 3.196 7.242 2.734 4.729L1.841 0Z" fill="#231f20"/>
<path transform="matrix(1,0,0,-1,169.5786,212.80802)" d="M0 0C-1.74 0-3.047-1.717-3.5-3.407-.623-3.422 1.651-3.042 1.651-1.381 1.651-.495 .986 0 0 0M2.042-8.932C1.265-9.399-.06-9.777-1.507-9.777-4.347-9.777-5.589-7.85-5.589-5.463-5.589-2.229-3.187 1.437 .273 1.437 2.317 1.437 3.428 .217 3.428-1.311 3.428-4.146 .25-4.887-3.723-4.823-3.818-5.296-3.741-6.297-3.5-6.872-3.088-7.819-2.214-8.313-1.11-8.313 .161-8.313 1.112-7.918 1.779-7.554Z" fill="#231f20"/>
<path transform="matrix(1,0,0,-1,192.7451,208.7191)" d="M0 0-.545-2.89H2.034L1.76-4.341H-.836L-1.829-9.551C-1.933-10.16-2.028-10.709-2.028-11.284-2.028-11.938-1.714-12.318-1.009-12.318-.7-12.318-.39-12.288-.148-12.248L-.239-13.697C-.558-13.825-1.111-13.895-1.648-13.895-3.3-13.895-3.919-12.892-3.919-11.798-3.919-11.178-3.859-10.555-3.704-9.784L-2.627-4.341H-4.18L-3.886-2.89H-2.366L-1.91-.471Z" fill="#231f20"/>
<path transform="matrix(1,0,0,-1,225.0371,212.9936)" d="M0 0C-.259 .075-.652 .155-1.278 .155-4.055 .155-6.334-2.745-6.341-5.731-6.341-6.934-5.935-8.103-4.493-8.103-2.96-8.103-1.156-6.105-.621-3.236ZM-1.183-9.369C-1.183-8.733-1.089-7.703-.95-6.594H-1.001C-2.181-8.822-3.646-9.621-5.188-9.621-7.053-9.621-8.268-8.103-8.268-6.058-8.268-2.324-5.495 1.622-.806 1.622 .205 1.622 1.346 1.454 2.066 1.202L.975-4.392C.621-6.267 .472-8.168 .513-9.369Z" fill="#231f20"/>
<path transform="matrix(1,0,0,-1,233.2793,222.3598)" d="M0 0 1.437 7.616C1.685 8.816 1.822 9.857 1.974 10.751H3.595L3.346 8.632H3.375C4.346 10.146 5.776 10.988 7.368 10.988 8.657 10.988 10.088 10.258 10.088 7.988 10.088 7.522 9.998 6.835 9.9 6.257L8.688 0H6.846L8.034 6.198C8.122 6.621 8.189 7.132 8.189 7.562 8.189 8.662 7.756 9.458 6.504 9.458 5.195 9.458 3.31 7.88 2.825 5.211L1.849 0Z" fill="#231f20"/>
<path transform="matrix(1,0,0,-1,266.5342,221.94081)" d="M0 0C-.543-.268-1.647-.645-3.088-.645-5.865-.645-7.242 1.215-7.242 3.509-7.242 7.174-4.527 10.553-.646 10.553 .354 10.553 1.247 10.257 1.597 10.091L1.065 8.615C.626 8.817 .029 9.022-.775 9.022-3.553 9.022-5.318 6.262-5.318 3.732-5.318 2.002-4.394 .86-2.649 .86-1.556 .86-.714 1.196-.16 1.467Z" fill="#231f20"/>
<path transform="matrix(1,0,0,-1,281.5293,212.9936)" d="M0 0C-.286 .075-.675 .155-1.293 .155-4.065 .155-6.345-2.745-6.374-5.731-6.374-6.934-5.929-8.103-4.525-8.103-2.986-8.103-1.154-6.105-.618-3.236ZM-1.212-9.369C-1.212-8.733-1.101-7.703-.972-6.594H-.998C-2.193-8.822-3.658-9.621-5.191-9.621-7.065-9.621-8.28-8.103-8.28-6.058-8.28-2.324-5.526 1.622-.829 1.622 .187 1.622 1.328 1.454 2.049 1.202L.963-4.392C.618-6.267 .466-8.168 .496-9.369Z" fill="#231f20"/>
<path transform="matrix(1,0,0,-1,289.7676,222.3598)" d="M0 0 1.316 6.929C1.562 8.326 1.745 9.751 1.869 10.751H3.489C3.409 9.991 3.313 9.236 3.182 8.412H3.256C3.953 9.88 5.104 10.988 6.559 10.988 6.712 10.988 6.935 10.971 7.051 10.944L6.712 9.129C6.587 9.146 6.416 9.171 6.206 9.171 4.626 9.171 3.182 7.242 2.72 4.729L1.85 0Z" fill="#231f20"/>
<path transform="matrix(1,0,0,-1,307.3691,212.80802)" d="M0 0C-1.733 0-3.045-1.717-3.491-3.407-.618-3.422 1.664-3.042 1.664-1.381 1.664-.495 .985 0 0 0M2.063-8.932C1.265-9.399-.063-9.777-1.492-9.777-4.332-9.777-5.576-7.85-5.576-5.463-5.576-2.229-3.175 1.437 .289 1.437 2.318 1.437 3.448 .217 3.448-1.311 3.448-4.146 .269-4.887-3.717-4.823-3.807-5.296-3.732-6.297-3.491-6.872-3.084-7.819-2.201-8.313-1.099-8.313 .162-8.313 1.129-7.918 1.783-7.554Z" fill="#231f20"/>
<path transform="matrix(1,0,0,-1,207.2783,211.3715)" d="M0 0C-1.617 0-2.937-.843-3.849-2.152H-3.906L-2.923 2.876H-4.768L-7.398-10.988H-5.554L-4.562-5.619C-4.128-3.198-2.314-1.53-.905-1.53 .308-1.53 .779-2.316 .779-3.313 .779-3.907 .71-4.396 .634-4.79L-.568-10.988H1.276L2.481-4.705C2.582-4.154 2.649-3.466 2.649-2.887 2.649-.747 1.224 0 0 0" fill="#231f20"/>
</g>
</g>
</svg>
