<svg width="358" height="151" viewBox="0 0 358 151" fill="none" xmlns="http://www.w3.org/2000/svg">
<path d="M35 36.4C34.5 34.8 34.1 33.3 34 32.1C34.4 19.3 50.1 19.3 51.9 19.1C62.8 19.1 67.3 24.7 69.1 29.4C69.4 31.1 69.7 33.7 69.2 36.7C69.2 36.7 69 36.1 68.4 35.7C56.4 26.6 45.8 29.2 40.5 32C36.1 34.3 34.9 36.5 35 36.4Z" fill="#BE1E2D"/>
<path d="M117.799 36.4C118.299 34.8 118.699 33.2999 118.799 32.0999C118.299 19.2999 102.699 19.3 100.899 19.2C89.9995 19.2 85.4995 24.8 83.6995 29.5C83.3995 31.2 83.0995 33.7999 83.5995 36.7999C83.5995 36.7999 83.7995 36.1999 84.3995 35.7999C96.3995 26.6999 106.999 29.2999 112.299 32.0999C116.699 34.2999 117.799 36.5 117.799 36.4Z" fill="#BE1E2D"/>
<path d="M46.9992 92.7C46.5992 92.2 42.5992 86.8 38.0992 79.7C31.3992 87.3 26.1992 93 26.1992 93L39.0992 92L35.6992 109C35.6992 109 41.5992 103.1 48.8992 95C47.7992 93.6 47.0992 92.8 46.9992 92.7Z" fill="#BE1E2D"/>
<path d="M51.7988 63.9C55.2988 68.7 58.8988 73.6 62.4988 78.4C68.4988 70.4 73.7988 62 75.1988 55.9C75.1988 55.9 76.4988 50.1 75.5988 44.6C74.7988 39.7 70.0988 28.5 70.0988 28.5C70.0988 28.5 72.7988 35.5 67.5988 44.1C65.5988 47.4 58.9988 55.6 51.7988 63.9Z" fill="#BE1E2D"/>
<path d="M124.6 46.6999C124.8 44.1999 121.8 35.5999 120.1 30.2999C120.3 33.6999 119 39.8999 111.8 50.6999C102.9 63.9999 86.4001 85.9999 76.4001 99.0999C66.5001 85.9999 49.9001 63.9999 41.0001 50.6999C33.8001 39.8999 32.5001 33.6999 32.7001 30.2999C31.1001 35.5999 28.7001 42.2999 28.2001 46.6999C27.9001 49.4999 28.7001 55.7999 28.7001 55.7999C30.6001 67.8999 46.7001 89.6999 47.5001 90.6999C48.0001 91.3999 76.4001 125.2 76.4001 125.2C76.4001 125.2 104.8 91.4999 105.3 90.6999C106.1 89.6999 122.1 67.8999 124 55.7999C124.1 55.7999 125.2 49.4999 124.6 46.6999Z" fill="#BE1E2D"/>
<path d="M105.798 92.7C105.698 92.8 104.998 93.7 103.898 95C111.198 103.2 117.098 109 117.098 109L113.698 92L126.598 93.1C126.598 93.1 121.398 87.3 114.698 79.7C110.198 86.7 106.198 92.1 105.798 92.7Z" fill="#BE1E2D"/>
<path d="M101 63.9C93.8 55.5 87.2 47.4 85.2 44.1C80 35.6 82.7 28.6 82.7 28.6C82.7 28.6 78 39.8 77.2 44.7C76.2 50.3 77.6 56 77.6 56C79 62.1 84.3 70.5 90.3 78.5C93.9 73.7 97.5 68.7 101 63.9Z" fill="#BE1E2D"/>
<path d="M157.599 19.9H141.299V21.7H142.799C145.499 21.7 147.199 21.9 147.999 22.4C148.799 22.9 149.299 23.7 149.599 25C149.799 26.2 149.999 29 149.999 33.2V56.4C149.999 60.8 149.799 63.8 149.499 65.4C149.199 67 148.299 68.4 146.899 69.5C145.499 70.6 143.599 71.2 141.299 71.4V73.2H160.399V71.4C157.899 71.2 155.999 70.6 154.699 69.4C153.299 68.2 152.499 66.9 152.299 65.3C151.999 63.8 151.899 60.8 151.899 56.6V25.4L173.199 73.3H175.099L196.199 25.4V59.4C196.199 63.9 196.099 66.7 195.799 67.9C195.499 69.1 194.999 70 194.099 70.6C193.199 71.2 191.599 71.5 189.399 71.5H187.499V73.3H212.999V71.5H210.599C208.199 71.5 206.599 71.2 205.699 70.6C204.799 70 204.299 69 204.099 67.7C203.899 66.4 203.799 63.7 203.799 59.5V33.2C203.799 28.8 203.899 26 204.199 24.8C204.499 23.6 204.999 22.8 205.799 22.4C206.599 22 208.299 21.7 210.999 21.7H212.999V19.9H196.599L177.199 64.1L157.599 19.9Z" fill="#BE1E2D"/>
<path d="M261.699 36.8L265.299 28.4C266.199 26.2 267.299 24.6 268.599 23.4C269.899 22.3 271.299 21.7 272.999 21.6V19.9H256.699V21.7C260.999 21.8 263.099 23.4 263.099 26.4C263.099 27.9 262.099 31.1 259.999 36L247.699 65.5L232.299 30.1C231.099 27.3 230.499 25.5 230.499 24.7C230.499 23.5 230.999 22.7 231.999 22.3C232.999 21.9 234.899 21.7 237.799 21.7V19.9H214.799V21.7C217.299 21.7 219.199 22.2 220.299 23.1C221.399 24 222.499 25.7 223.499 28.2C224.199 30.1 224.799 31.4 225.099 32.1L243.499 74.5H245.999L261.699 36.8Z" fill="#BE1E2D"/>
<path d="M323.698 68.7999C321.398 67.0999 318.198 63.5999 314.198 58.0999C309.298 51.3999 305.698 47.4999 303.398 46.4999C308.398 45.8999 312.198 44.3999 314.698 41.8999C317.298 39.3999 318.498 36.4999 318.498 32.9999C318.498 29.9999 317.498 27.3999 315.598 25.2999C313.598 23.0999 311.098 21.5999 307.898 20.6999C304.698 19.7999 300.598 19.2999 295.498 19.2999C292.498 19.2999 288.498 19.3999 283.398 19.5999L275.698 19.8999V21.6999H276.598C279.298 21.6999 281.098 21.8999 281.898 22.3999C282.698 22.8999 283.198 23.6999 283.498 24.9999C283.698 26.1999 283.798 28.9999 283.798 33.1999V59.3999C283.798 63.8999 283.698 66.6999 283.498 67.8999C283.298 69.0999 282.698 69.9999 281.798 70.5999C280.898 71.1999 279.298 71.4999 277.098 71.4999H275.398V73.2999H300.898V71.4999H298.298C295.898 71.4999 294.198 71.1999 293.398 70.4999C292.598 69.8999 291.998 68.8999 291.798 67.5999C291.598 66.2999 291.498 63.4999 291.498 59.2999V47.4999H293.598C295.098 47.4999 296.098 47.6999 296.798 48.1999C297.498 48.6999 298.698 49.9999 300.498 52.2999C302.298 54.4999 304.098 56.7999 305.698 59.1999C310.898 66.7999 314.798 71.3999 317.398 73.1999H331.798V71.3999C328.698 71.3999 325.998 70.4999 323.698 68.7999ZM297.598 45.4999C295.498 45.5999 293.498 45.6999 291.498 45.6999V21.2999C292.798 21.1999 293.898 21.0999 294.798 21.0999C301.098 21.0999 305.198 22.1999 307.098 24.4999C308.998 26.7999 309.898 29.7999 309.898 33.4999C309.898 35.6999 309.598 37.4999 309.098 38.8999C308.498 40.3999 307.798 41.5999 306.798 42.4999C305.798 43.3999 304.598 44.0999 302.998 44.5999C301.498 45.0999 299.698 45.3999 297.598 45.4999Z" fill="#BE1E2D"/>
<path d="M331.199 81.4H141.799V83.2H331.199V81.4Z" fill="#BE1E2D"/>
<path d="M331.199 123.4H141.799V125.2H331.199V123.4Z" fill="#BE1E2D"/>
<path d="M155.699 88.6C154.599 89.1 153.799 89.9 153.199 90.9C152.599 91.9 152.299 93 152.299 94.2C152.299 95.4 152.599 96.4 153.199 97.4C153.799 98.4 154.599 99.1 155.599 99.6C156.599 100.1 157.799 100.4 159.099 100.4C159.999 100.4 160.799 100.3 161.399 100.1C162.099 99.9 162.799 99.6 163.599 99.2V97C162.699 97.5 161.899 97.9 161.299 98C160.699 98.2 159.999 98.3 159.399 98.3C158.499 98.3 157.699 98.1 156.999 97.8C156.299 97.4 155.799 96.9 155.399 96.3C154.999 95.7 154.799 94.9 154.799 94.1C154.799 93.3 154.999 92.6 155.399 91.9C155.799 91.2 156.299 90.7 156.999 90.4C157.699 90 158.499 89.9 159.399 89.9C160.099 89.9 160.799 90 161.399 90.2C161.999 90.4 162.699 90.7 163.499 91.1V88.9C162.699 88.5 161.999 88.3 161.299 88.1C160.599 87.9 159.899 87.9 159.299 87.9C157.999 87.8 156.799 88.1 155.699 88.6Z" fill="#BE1E2D"/>
<path d="M172.1 88H169.7L164.6 100.3H167.1L168.3 97.3H173.8L175.1 100.3H177.6L172.1 88ZM169 95.5L169.9 93.3L170.9 90.7L173 95.6H169V95.5Z" fill="#BE1E2D"/>
<path d="M179 88V100.3H181.3V91.6L188.6 100.3H190.7V88H188.3V96.6L181.1 88H179Z" fill="#BE1E2D"/>
<path d="M196.199 88.6C195.099 89.1 194.299 89.9 193.699 90.9C193.099 91.9 192.799 93 192.799 94.2C192.799 95.4 193.099 96.4 193.699 97.4C194.299 98.4 195.099 99.1 196.099 99.6C197.099 100.1 198.299 100.4 199.599 100.4C200.499 100.4 201.299 100.3 201.899 100.1C202.599 99.9 203.299 99.6 204.099 99.2V97C203.199 97.5 202.399 97.9 201.799 98C201.199 98.2 200.499 98.3 199.899 98.3C198.999 98.3 198.199 98.1 197.499 97.8C196.799 97.4 196.299 96.9 195.899 96.3C195.499 95.7 195.299 94.9 195.299 94.1C195.299 93.3 195.499 92.6 195.899 91.9C196.299 91.2 196.799 90.7 197.499 90.4C198.199 90 198.999 89.9 199.899 89.9C200.599 89.9 201.299 90 201.899 90.2C202.499 90.4 203.199 90.7 203.999 91.1V88.9C203.199 88.5 202.499 88.3 201.799 88.1C201.099 87.9 200.499 87.9 199.799 87.9C198.499 87.8 197.299 88.1 196.199 88.6Z" fill="#BE1E2D"/>
<path d="M206.398 88V100.3H214.398V98.4H208.798V94.9H214.098V93.1H208.798V89.9H214.298V88H206.398Z" fill="#BE1E2D"/>
<path d="M224.999 97.2C224.599 96.3 224.199 95.7 223.899 95.4C223.599 95 223.199 94.7 222.899 94.5C223.599 94.2 224.099 93.8 224.499 93.3C224.899 92.8 224.999 92.2 224.999 91.5C224.999 90.5 224.599 89.6 223.899 89C223.199 88.4 222.199 88 221.099 88H216.699V100.3H219.099V95.1H219.999C220.399 95.1 220.699 95.2 220.999 95.4C221.299 95.6 221.599 95.9 221.899 96.4C222.199 96.9 222.699 97.7 223.399 99C223.699 99.6 223.999 100 224.099 100.3H226.699C226.299 99.7 225.799 98.7 224.999 97.2ZM221.999 92.8C221.599 93.1 221.199 93.3 220.499 93.3H218.999V89.9H220.499C221.199 89.9 221.699 90 221.999 90.3C222.399 90.6 222.499 91 222.499 91.6C222.499 92 222.299 92.5 221.999 92.8Z" fill="#BE1E2D"/>
<path d="M236.099 88.6C234.999 89.1 234.199 89.9 233.599 90.9C232.999 91.9 232.699 93 232.699 94.2C232.699 95.4 232.999 96.4 233.599 97.4C234.199 98.4 234.999 99.1 235.999 99.6C236.999 100.1 238.199 100.4 239.499 100.4C240.399 100.4 241.199 100.3 241.799 100.1C242.499 99.9 243.199 99.6 243.999 99.2V97C243.099 97.5 242.299 97.9 241.699 98C241.099 98.2 240.399 98.3 239.799 98.3C238.899 98.3 238.099 98.1 237.399 97.8C236.699 97.4 236.199 96.9 235.799 96.3C235.399 95.7 235.199 94.9 235.199 94.1C235.199 93.3 235.399 92.6 235.799 91.9C236.199 91.2 236.699 90.7 237.399 90.4C238.099 90 238.899 89.9 239.799 89.9C240.499 89.9 241.199 90 241.799 90.2C242.399 90.4 243.099 90.7 243.899 91.1V88.9C243.099 88.5 242.399 88.3 241.699 88.1C240.999 87.9 240.399 87.9 239.699 87.9C238.399 87.8 237.199 88.1 236.099 88.6Z" fill="#BE1E2D"/>
<path d="M246.299 88V100.3H254.299V98.4H248.599V94.9H253.999V93.1H248.599V89.9H254.199V88H246.299Z" fill="#BE1E2D"/>
<path d="M256.5 88V100.3H258.9V91.6L266.2 100.3H268.2V88H265.9V96.6L258.6 88H256.5Z" fill="#BE1E2D"/>
<path d="M270 88V89.9H274.4V100.3H276.7V89.9H281.1V88H270Z" fill="#BE1E2D"/>
<path d="M291.3 97.2C290.8 96.3 290.5 95.7 290.2 95.4C289.9 95 289.5 94.7 289.2 94.5C289.9 94.2 290.4 93.8 290.8 93.3C291.2 92.8 291.3 92.2 291.3 91.5C291.3 90.5 290.9 89.6 290.2 89C289.5 88.4 288.5 88 287.4 88H283V100.3H285.4V95.1H286.3C286.7 95.1 287 95.2 287.3 95.4C287.6 95.6 287.9 95.9 288.2 96.4C288.5 96.9 289 97.7 289.7 99C290 99.6 290.3 100 290.4 100.3H293C292.6 99.7 292 98.7 291.3 97.2ZM288.2 92.8C287.8 93.1 287.4 93.3 286.7 93.3H285.2V89.9H286.7C287.4 89.9 287.9 90 288.2 90.3C288.6 90.6 288.7 91 288.7 91.6C288.8 92 288.6 92.5 288.2 92.8Z" fill="#BE1E2D"/>
<path d="M294.5 88V100.3H302.5V98.4H296.8V94.9H302.2V93.1H296.8V89.9H302.4V88H294.5Z" fill="#BE1E2D"/>
<path d="M318.1 97.5C319 96.6 319.8 95.4 320.3 94H318.1C317.7 94.8 317.2 95.4 316.7 95.9L315 94C315.8 93.5 316.3 93 316.7 92.5C317.1 92 317.3 91.4 317.3 90.8C317.3 90 317 89.3 316.4 88.8C315.8 88.3 315 88 314.1 88C313.1 88 312.3 88.3 311.6 88.8C310.9 89.4 310.6 90.1 310.6 91C310.6 91.4 310.7 91.9 310.9 92.3C311.1 92.7 311.4 93.2 311.8 93.8C310.9 94.3 310.2 94.8 309.7 95.4C309.2 96 309 96.6 309 97.3C309 98.2 309.3 98.9 310 99.5C310.7 100.1 311.5 100.4 312.5 100.4C313.3 100.4 314 100.3 314.6 100.1C315.2 99.9 315.8 99.5 316.4 99L317.5 100.3H320.6L318.1 97.5ZM313.2 90.1C313.4 89.9 313.7 89.8 314 89.8C314.4 89.8 314.7 89.9 314.9 90.1C315.1 90.3 315.2 90.6 315.2 90.9C315.2 91.3 315.1 91.6 314.8 91.8C314.6 92.1 314.2 92.3 313.8 92.6C313.5 92.3 313.3 92 313 91.7C312.8 91.3 312.7 91 312.7 90.8C312.8 90.5 312.9 90.3 313.2 90.1ZM312.9 98.6C312.5 98.6 312.1 98.5 311.8 98.2C311.5 97.9 311.3 97.6 311.3 97.2C311.3 96.8 311.5 96.5 311.7 96.2C312 95.9 312.4 95.6 312.9 95.2L315 97.6C314.3 98.2 313.6 98.6 312.9 98.6Z" fill="#BE1E2D"/>
<path d="M150.099 115.5C149.599 114.6 149.299 114 148.999 113.7C148.699 113.3 148.299 113 147.999 112.8C148.699 112.5 149.199 112.1 149.599 111.6C149.999 111.1 150.099 110.5 150.099 109.8C150.099 108.8 149.699 107.9 148.999 107.3C148.299 106.7 147.299 106.3 146.199 106.3H141.799V118.6H144.199V113.4H145.099C145.499 113.4 145.799 113.5 146.099 113.7C146.399 113.9 146.699 114.2 146.999 114.7C147.299 115.2 147.799 116 148.499 117.3C148.799 117.9 149.099 118.3 149.199 118.6H151.799C151.499 118 150.899 117 150.099 115.5ZM147.099 111.1C146.699 111.4 146.299 111.6 145.599 111.6H144.099V108.2H145.599C146.299 108.2 146.799 108.3 147.099 108.6C147.399 108.9 147.599 109.3 147.599 109.9C147.699 110.3 147.499 110.8 147.099 111.1Z" fill="#BE1E2D"/>
<path d="M153.398 106.3V118.6H161.398V116.7H155.698V113.2H161.098V111.4H155.698V108.2H161.298V106.3H153.398Z" fill="#BE1E2D"/>
<path d="M164.2 107.1C163.4 107.7 163 108.5 163 109.6C163 110.4 163.2 111.1 163.7 111.6C164.2 112.2 164.9 112.7 165.9 113.1C166.7 113.5 167.4 113.8 167.9 114.1C168.5 114.5 168.8 114.9 168.8 115.5C168.8 115.9 168.6 116.3 168.3 116.5C167.9 116.7 167.5 116.9 166.9 116.9C165.7 116.9 164.5 116.4 163.2 115.3V117.6C163.9 118 164.5 118.3 165.1 118.5C165.7 118.7 166.3 118.8 167.1 118.8C168.3 118.8 169.3 118.5 170 117.8C170.8 117.2 171.1 116.3 171.1 115.2C171.1 114.4 170.9 113.7 170.4 113.1C170 112.5 169.2 112 168.2 111.5C167 111 166.3 110.6 166.2 110.5C165.6 110.1 165.3 109.7 165.3 109.2C165.3 108.8 165.5 108.5 165.8 108.3C166.1 108.1 166.6 108 167.2 108C168.2 108 169.3 108.4 170.6 109.1V107C169.5 106.4 168.3 106.1 167.2 106.1C165.9 106.2 164.9 106.5 164.2 107.1Z" fill="#BE1E2D"/>
<path d="M173.199 106.3V118.6H181.299V116.7H175.599V113.2H180.899V111.4H175.599V108.2H181.199V106.3H173.199Z" fill="#BE1E2D"/>
<path d="M189.699 106.3H187.299L182.199 118.6H184.699L185.899 115.6H191.299L192.599 118.6H195.099L189.699 106.3ZM186.599 113.8L188.499 108.9L190.599 113.8H186.599Z" fill="#BE1E2D"/>
<path d="M204.9 115.5C204.4 114.6 204.1 114 203.8 113.7C203.5 113.3 203.1 113 202.7 112.8C203.4 112.5 203.9 112.1 204.3 111.6C204.7 111.1 204.8 110.5 204.8 109.8C204.8 108.8 204.4 107.9 203.7 107.3C203 106.7 202 106.3 200.9 106.3H196.5V118.6H198.9V113.4H199.8C200.2 113.4 200.5 113.5 200.8 113.7C201.1 113.9 201.4 114.2 201.7 114.7C202 115.2 202.5 116 203.2 117.3C203.5 117.9 203.8 118.3 203.9 118.6H206.6C206.2 118 205.7 117 204.9 115.5ZM201.9 111.1C201.6 111.4 201.1 111.6 200.4 111.6H198.9V108.2H200.4C201.1 108.2 201.5 108.3 201.9 108.6C202.2 108.9 202.4 109.3 202.4 109.9C202.4 110.3 202.3 110.8 201.9 111.1Z" fill="#BE1E2D"/>
<path d="M210.5 107C209.4 107.5 208.6 108.3 208 109.3C207.4 110.3 207.1 111.4 207.1 112.6C207.1 113.7 207.4 114.8 208 115.8C208.6 116.8 209.4 117.5 210.4 118C211.4 118.5 212.6 118.8 213.9 118.8C214.8 118.8 215.6 118.7 216.2 118.5C216.9 118.3 217.6 118 218.4 117.6V115.4C217.5 115.9 216.7 116.2 216.1 116.4C215.5 116.6 214.8 116.7 214.2 116.7C213.3 116.7 212.5 116.5 211.8 116.2C211.1 115.8 210.6 115.3 210.2 114.7C209.8 114 209.6 113.3 209.6 112.5C209.6 111.7 209.8 111 210.2 110.3C210.6 109.6 211.1 109.1 211.8 108.8C212.5 108.4 213.3 108.3 214.2 108.3C214.9 108.3 215.6 108.4 216.2 108.6C216.8 108.8 217.5 109.1 218.3 109.5V107.3C217.5 106.9 216.8 106.7 216.1 106.5C215.4 106.3 214.8 106.3 214.1 106.3C212.7 106.2 211.6 106.4 210.5 107Z" fill="#BE1E2D"/>
<path d="M220.699 106.3V118.6H222.999V113.4H229.399V118.6H231.799V106.3H229.399V111.5H222.999V106.3H220.699Z" fill="#BE1E2D"/>
<path d="M241.9 106.3H239.5V118.6H241.9V106.3Z" fill="#BE1E2D"/>
<path d="M244.6 106.3V118.6H247V109.9L254.3 118.6H256.3V106.3H254V114.9L246.7 106.3H244.6Z" fill="#BE1E2D"/>
<path d="M259.499 107.1C258.699 107.7 258.299 108.5 258.299 109.6C258.299 110.4 258.499 111.1 258.999 111.6C259.499 112.2 260.199 112.7 261.199 113.1C261.999 113.5 262.699 113.8 263.199 114.1C263.799 114.5 264.099 114.9 264.099 115.5C264.099 115.9 263.899 116.3 263.599 116.5C263.199 116.7 262.799 116.9 262.199 116.9C260.999 116.9 259.799 116.4 258.499 115.3V117.6C259.199 118 259.799 118.3 260.399 118.5C260.999 118.7 261.599 118.8 262.399 118.8C263.599 118.8 264.599 118.5 265.299 117.8C266.099 117.2 266.399 116.3 266.399 115.2C266.399 114.4 266.199 113.7 265.699 113.1C265.299 112.5 264.499 112 263.499 111.5C262.299 111 261.599 110.6 261.499 110.5C260.899 110.1 260.599 109.7 260.599 109.2C260.599 108.8 260.799 108.5 261.099 108.3C261.399 108.1 261.899 108 262.499 108C263.499 108 264.599 108.4 265.899 109.1V107C264.799 106.4 263.599 106.1 262.399 106.1C261.299 106.2 260.299 106.5 259.499 107.1Z" fill="#BE1E2D"/>
<path d="M267.398 106.3V108.2H271.698V118.6H274.098V108.2H278.498V106.3H267.398Z" fill="#BE1E2D"/>
<path d="M282.699 106.3H280.299V118.6H282.699V106.3Z" fill="#BE1E2D"/>
<path d="M284.5 106.3V108.2H288.9V118.6H291.3V108.2H295.6V106.3H284.5Z" fill="#BE1E2D"/>
<path d="M297.299 106.3V113.7C297.299 114.7 297.499 115.6 297.999 116.4C298.399 117.2 299.099 117.7 299.899 118.1C300.699 118.5 301.699 118.7 302.899 118.7C304.699 118.7 306.099 118.3 307.099 117.4C308.099 116.5 308.599 115.2 308.599 113.6V106.3H306.199V113.3C306.199 114.1 306.099 114.7 305.899 115.2C305.699 115.7 305.299 116 304.799 116.3C304.299 116.6 303.699 116.7 302.899 116.7C302.199 116.7 301.699 116.6 301.199 116.3C300.699 116 300.299 115.7 300.099 115.2C299.899 114.8 299.799 114.2 299.799 113.5V106.4L297.299 106.3Z" fill="#BE1E2D"/>
<path d="M310.199 106.3V108.2H314.599V118.6H316.999V108.2H321.299V106.3H310.199Z" fill="#BE1E2D"/>
<path d="M323.1 106.3V118.6H331.2V116.7H325.5V113.2H330.8V111.4H325.5V108.2H331V106.3H323.1Z" fill="#BE1E2D"/>
</svg>
