<svg width="296" height="153" viewBox="0 0 296 153" fill="none" xmlns="http://www.w3.org/2000/svg">
<path d="M217.535 7.24935L221.663 9.71069L222.166 8.87868L222.635 8.08135L218.499 5.62269L218.016 6.45202L217.535 7.24935Z" fill="#D19908"/>
<path d="M218.031 17.8614L222.992 9.43201L222.227 8.96935L221.446 8.52402L216.48 16.96L217.266 17.4027L218.031 17.8614Z" fill="#D19908"/>
<path d="M216.935 0.980018L216.197 17.3627L217.149 17.4027L218.085 17.4467L218.824 1.06003L217.885 1.01602L216.935 0.980018Z" fill="#D19908"/>
<path d="M217.477 1.77737L226.834 7.24936L227.315 6.45203L227.782 5.6227L218.449 0.136029L217.975 0.948025L217.477 1.77737Z" fill="#D19908"/>
<path d="M230.647 12.788L226.526 10.3494L226.053 11.1814L225.586 11.9747L229.698 14.4134L230.177 13.6094L230.647 12.788Z" fill="#D19908"/>
<path d="M221.752 20.048L226.728 11.644L225.928 11.1813L225.16 10.716L220.205 19.1387L220.974 19.5933L221.752 20.048Z" fill="#D19908"/>
<path d="M234.506 10.2934L220.549 18.8894L221.524 20.5027L235.499 11.892L235.013 11.0934L234.506 10.2934Z" fill="#D19908"/>
<path d="M235.48 10.1507L226.156 4.66668L225.676 5.48001L225.203 6.28935L234.54 11.792L235.022 10.9667L235.48 10.1507Z" fill="#D19908"/>
<path d="M199.408 38.3747L203.434 40.7227L203.924 39.9054L204.414 39.096L200.382 36.7333L199.915 37.5547L199.408 38.3747Z" fill="#D19908"/>
<path d="M208.231 31.0347L203.258 39.4707L204.047 39.9293L204.808 40.372L209.774 31.956L209.008 31.5053L208.231 31.0347Z" fill="#D19908"/>
<path d="M195.475 40.8174L209.431 32.2027L208.94 31.4094L208.443 30.6014L194.471 39.192L194.965 39.9934L195.475 40.8174Z" fill="#D19908"/>
<path d="M194.471 40.9414L203.82 46.4214L204.293 45.604L204.776 44.8067L195.443 39.3L194.965 40.1254L194.471 40.9414Z" fill="#D19908"/>
<path d="M212.372 43.7907L208.295 41.392L207.818 42.2014L207.346 43.0214L211.419 45.416L211.878 44.6L212.372 43.7907Z" fill="#D19908"/>
<path d="M211.94 33.2227L206.988 41.6667L207.774 42.12L208.547 42.556L213.5 34.1307L212.734 33.68L211.94 33.2227Z" fill="#D19908"/>
<path d="M213.021 50.1227L213.789 33.732L212.845 33.7053L211.877 33.672L211.164 50.0387L212.112 50.0827L213.021 50.1227Z" fill="#D19908"/>
<path d="M212.479 49.3374L203.147 43.8267L202.672 44.644L202.189 45.468L211.527 50.968L211.993 50.1427L212.479 49.3374Z" fill="#D19908"/>
<path d="M217.91 45.48L222.094 43.1894L221.601 42.332L221.142 41.4587L216.982 43.7627L217.472 44.6227L217.91 45.48Z" fill="#D19908"/>
<path d="M216.197 34.08L220.943 42.6587L221.704 42.2254L222.5 41.8027L217.795 33.1987L217.009 33.672L216.197 34.08Z" fill="#D19908"/>
<path d="M218.086 50.0387L217.839 33.6533L216.883 33.672H215.951L216.194 50.0827L217.15 50.0507L218.086 50.0387Z" fill="#D19908"/>
<path d="M217.687 50.968L227.183 45.7427L226.738 44.8907L226.287 44.0854L216.787 49.2813L217.224 50.1227L217.687 50.968Z" fill="#D19908"/>
<path d="M229.286 37.004L225.166 39.292L225.641 40.152L226.106 40.9774L230.215 38.7107L229.753 37.8614L229.286 37.004Z" fill="#D19908"/>
<path d="M219.998 31.9987L224.718 40.5787L225.495 40.152L226.287 39.7107L221.589 31.1414L220.799 31.568L219.998 31.9987Z" fill="#D19908"/>
<path d="M235.073 39.7107L221.369 30.704L220.863 31.4614L220.336 32.2667L234.049 41.284L234.552 40.4947L235.073 39.7107Z" fill="#D19908"/>
<path d="M234.109 39.7813L224.605 45.0027L225.063 45.8347L225.513 46.648L235.021 41.436L234.552 40.6147L234.109 39.7813Z" fill="#D19908"/>
<path d="M198.034 32.5334L198.03 27.9227H196.098L196.132 32.5774L197.078 32.5334H198.034Z" fill="#D19908"/>
<path d="M206.869 26.8547L197.078 26.8987V27.7987L197.106 28.708L206.869 28.656V26.8547Z" fill="#D19908"/>
<path d="M192.909 36.4347L207.378 28.672L206.923 27.8467L206.481 27.0053L192.027 34.768L192.494 35.5893L192.909 36.4347Z" fill="#D19908"/>
<path d="M193.319 35.5387L193.218 24.7187H191.346L191.434 35.5733L192.37 35.5453L193.319 35.5387Z" fill="#D19908"/>
<path d="M196.021 18.5867L196.033 23.352L197.013 23.336H197.987V18.5774L197.013 18.5867H196.021Z" fill="#D19908"/>
<path d="M206.845 22.5227L197.053 22.5707L197.078 23.48V24.364L206.845 24.304V22.5227Z" fill="#D19908"/>
<path d="M191.908 16.5573L206.458 24.1773L206.904 23.324L207.339 22.4907L192.79 14.888L192.371 15.7293L191.908 16.5573Z" fill="#D19908"/>
<path d="M191.328 15.776L191.367 26.644L192.324 26.608H193.256L193.196 15.776H191.328Z" fill="#D19908"/>
<path d="M211.491 0.10001L202.211 5.64667L202.684 6.45201L203.174 7.28134L212.479 1.73735L211.994 0.936012L211.491 0.10001Z" fill="#D19908"/>
<path d="M211.49 5.57468L207.396 8.03868L207.899 8.87867L208.41 9.72668L212.502 7.24934L211.992 6.412L211.49 5.57468Z" fill="#D19908"/>
<path d="M213.574 16.92L208.561 8.51599L207.817 8.96933L207.031 9.43199L212.037 17.848L212.805 17.3707L213.574 16.92Z" fill="#D19908"/>
<path d="M211.164 1.036L211.969 17.4107L212.905 17.3627L213.861 17.3107L213.021 0.936002L212.076 0.979996L211.164 1.036Z" fill="#D19908"/>
<path d="M200.382 14.4734L204.434 12.0347L203.951 11.2107L203.446 10.3494L199.408 12.788L199.886 13.628L200.382 14.4734Z" fill="#D19908"/>
<path d="M209.864 19.132L204.875 10.732L204.082 11.2107L203.324 11.652L208.326 20.048L209.071 19.5787L209.864 19.132Z" fill="#D19908"/>
<path d="M194.543 11.9507L208.547 20.4667L209.02 19.6853L209.531 18.8774L195.515 10.3453L195.03 11.1667L194.543 11.9507Z" fill="#D19908"/>
<path d="M195.503 11.86L204.796 6.312L204.306 5.496L203.836 4.68668L194.543 10.2333L195.03 11.0427L195.503 11.86Z" fill="#D19908"/>
<path d="M236.938 16.1227L236.596 26.9467L237.56 26.9747L238.489 27.0053L238.83 16.1627L237.866 16.1307L236.938 16.1227Z" fill="#D19908"/>
<path d="M232.097 18.8893L231.965 23.5587L232.929 23.6067L233.89 23.6107L234.021 18.9533L233.052 18.9173L232.097 18.8893Z" fill="#D19908"/>
<path d="M223.078 24.32L232.874 24.6227L232.893 23.7187L232.913 22.8293L223.138 22.5227L223.111 23.444L223.078 24.32Z" fill="#D19908"/>
<path d="M237.356 15.2547L222.648 22.4907L223.07 23.324L223.484 24.1773L238.188 16.932L237.778 16.088L237.356 15.2547Z" fill="#D19908"/>
<path d="M233.631 32.872L233.767 28.2013L232.834 28.1693L231.846 28.1173L231.674 32.808L233.631 32.872Z" fill="#D19908"/>
<path d="M222.943 28.66L232.73 28.9467L232.755 28.0547L232.779 27.1734L222.993 26.8547L222.989 27.7387L222.943 28.66Z" fill="#D19908"/>
<path d="M237.644 35.144L223.378 27.0347L222.932 27.8467L222.457 28.672L236.724 36.7733L237.197 35.948L237.644 35.144Z" fill="#D19908"/>
<path d="M238.241 35.948L238.557 25.0974L237.606 25.0614L236.664 25.0534L236.344 35.884L237.281 35.908L238.241 35.948Z" fill="#D19908"/>
<path d="M235.807 11.556C235.508 12.0747 234.886 12.2227 234.394 11.9347C233.891 11.652 233.722 11.0107 234.022 10.504C234.304 10.0147 234.951 9.84668 235.46 10.1373C235.919 10.4133 236.103 11.0547 235.807 11.556Z" fill="#D19908"/>
<path d="M218.839 1.56534C218.577 2.072 217.927 2.22401 217.441 1.92535C216.935 1.64668 216.787 1.01601 217.082 0.51068C217.345 0.0120138 217.987 -0.138653 218.501 0.160013C218.995 0.44268 219.159 1.088 218.839 1.56534Z" fill="#D19908"/>
<path d="M212.897 1.56534C212.603 2.072 211.94 2.22401 211.483 1.92535C210.968 1.64668 210.813 1.01601 211.092 0.51068C211.388 0.0120136 212.037 -0.138661 212.523 0.136006C213.021 0.442672 213.2 1.088 212.897 1.56534Z" fill="#D19908"/>
<path d="M222.966 9.48401C222.675 9.96267 222.059 10.1227 221.571 9.81868C221.066 9.54001 220.894 8.90268 221.184 8.40801C221.451 7.91735 222.108 7.76268 222.604 8.03868C223.111 8.32401 223.246 8.96934 222.966 9.48401Z" fill="#D19908"/>
<path d="M226.915 11.792C226.64 12.2867 225.983 12.4454 225.494 12.1587C225.01 11.86 224.827 11.2413 225.138 10.732C225.408 10.2573 226.051 10.0867 226.56 10.3493C227.051 10.66 227.199 11.3014 226.915 11.792Z" fill="#D19908"/>
<path d="M238.685 16.7453C238.386 17.2307 237.769 17.3747 237.25 17.108C236.773 16.8133 236.589 16.1627 236.886 15.6773C237.198 15.1907 237.811 15.028 238.31 15.3227C238.805 15.6253 238.949 16.2507 238.685 16.7453Z" fill="#D19908"/>
<path d="M233.721 24.1414C233.467 24.6387 232.833 24.7907 232.319 24.5C231.838 24.216 231.661 23.5587 231.965 23.0934C232.247 22.5787 232.893 22.4387 233.367 22.7147C233.87 23.0054 234.033 23.6347 233.721 24.1414Z" fill="#D19908"/>
<path d="M233.63 28.708C233.335 29.1894 232.69 29.3854 232.179 29.0707C231.706 28.768 231.538 28.1174 231.838 27.6747C232.108 27.1734 232.754 26.9987 233.251 27.2614C233.72 27.576 233.912 28.2134 233.63 28.708Z" fill="#D19908"/>
<path d="M238.098 36.3667C237.794 36.8654 237.16 37.012 236.663 36.7334C236.168 36.4427 235.986 35.808 236.3 35.3347C236.587 34.82 237.244 34.6694 237.723 34.952C238.204 35.2387 238.384 35.884 238.098 36.3667Z" fill="#D19908"/>
<path d="M235.388 41.0774C235.074 41.5907 234.468 41.7427 233.962 41.4587C233.48 41.18 233.284 40.544 233.596 40.0333C233.879 39.5547 234.507 39.3867 235.003 39.6547C235.48 39.9574 235.648 40.6107 235.388 41.0774Z" fill="#D19908"/>
<path d="M218.137 17.7254C217.839 18.232 217.197 18.3907 216.716 18.108C216.197 17.8134 216.055 17.1467 216.34 16.6774C216.639 16.1627 217.265 16.0027 217.768 16.2947C218.265 16.6094 218.42 17.2307 218.137 17.7254Z" fill="#D19908"/>
<path d="M213.751 17.7014C213.449 18.1827 212.79 18.3467 212.309 18.06C211.802 17.7654 211.639 17.1227 211.926 16.6494C212.233 16.1307 212.87 15.98 213.369 16.2907C213.854 16.5574 214.006 17.2027 213.751 17.7014Z" fill="#D19908"/>
<path d="M209.8 20.048C209.49 20.5387 208.855 20.7174 208.37 20.4107C207.876 20.096 207.704 19.5067 207.983 19C208.294 18.5054 208.911 18.3427 209.406 18.6334C209.924 18.9174 210.071 19.5587 209.8 20.048Z" fill="#D19908"/>
<path d="M207.581 23.8267C207.323 24.32 206.664 24.48 206.167 24.216C205.657 23.9054 205.509 23.26 205.82 22.7747C206.096 22.272 206.728 22.1134 207.224 22.4227C207.745 22.7067 207.877 23.336 207.581 23.8267Z" fill="#D19908"/>
<path d="M207.581 28.4013C207.294 28.8827 206.637 29.0654 206.166 28.76C205.657 28.456 205.489 27.8467 205.784 27.3653C206.078 26.8547 206.701 26.696 207.194 26.9747C207.705 27.2614 207.877 27.9147 207.581 28.4013Z" fill="#D19908"/>
<path d="M209.693 32.1067C209.395 32.6054 208.784 32.776 208.295 32.4814C207.781 32.1827 207.615 31.568 207.908 31.0587C208.199 30.576 208.848 30.4134 209.347 30.704C209.833 30.9627 209.98 31.604 209.693 32.1067Z" fill="#D19908"/>
<path d="M213.647 34.4533C213.343 34.952 212.722 35.108 212.213 34.82C211.719 34.5533 211.562 33.896 211.846 33.4133C212.129 32.9 212.779 32.724 213.269 33.0347C213.79 33.3173 213.934 33.952 213.647 34.4533Z" fill="#D19908"/>
<path d="M217.886 34.3507C217.58 34.86 216.943 35.032 216.452 34.732C215.962 34.4373 215.795 33.804 216.082 33.3054C216.394 32.808 217.01 32.636 217.506 32.936C218.003 33.2547 218.178 33.868 217.886 34.3507Z" fill="#D19908"/>
<path d="M222.07 20.044C221.771 20.5387 221.142 20.7174 220.635 20.4107C220.15 20.096 219.99 19.4787 220.272 19C220.563 18.5053 221.192 18.3147 221.703 18.6133C222.194 18.9173 222.348 19.5587 222.07 20.044Z" fill="#D19908"/>
<path d="M224.198 23.8267C223.9 24.304 223.246 24.48 222.752 24.196C222.27 23.9054 222.109 23.26 222.397 22.7747C222.676 22.272 223.306 22.1134 223.812 22.4227C224.31 22.7067 224.469 23.336 224.198 23.8267Z" fill="#D19908"/>
<path d="M224.059 28.4133C223.751 28.9307 223.138 29.0707 222.635 28.768C222.13 28.484 221.97 27.8547 222.27 27.3653C222.559 26.8547 223.202 26.696 223.679 26.9987C224.198 27.2613 224.349 27.9227 224.059 28.4133Z" fill="#D19908"/>
<path d="M221.868 32.1827C221.588 32.6773 220.948 32.832 220.456 32.5333C219.955 32.2347 219.791 31.604 220.099 31.1147C220.382 30.616 221.019 30.4613 221.524 30.752C221.995 31.0347 222.17 31.672 221.868 32.1827Z" fill="#D19908"/>
<path d="M226.525 40.5987C226.216 41.0773 225.589 41.244 225.096 40.9574C224.605 40.6667 224.442 40.008 224.717 39.5547C225.032 39.044 225.641 38.8814 226.148 39.168C226.641 39.4587 226.805 40.112 226.525 40.5987Z" fill="#D19908"/>
<path d="M222.47 42.8107C222.174 43.268 221.572 43.452 221.071 43.1693C220.564 42.8867 220.4 42.2253 220.688 41.7307C220.975 41.244 221.602 41.0773 222.115 41.38C222.606 41.6747 222.768 42.304 222.47 42.8107Z" fill="#D19908"/>
<path d="M218.138 50.5374C217.855 51.0187 217.198 51.2147 216.716 50.9C216.198 50.6254 216.082 49.9987 216.352 49.4934C216.639 48.9947 217.276 48.8387 217.784 49.1414C218.266 49.4214 218.434 50.0387 218.138 50.5374Z" fill="#D19908"/>
<path d="M212.906 50.5453C212.603 51.0547 211.97 51.2147 211.483 50.932C210.994 50.6413 210.814 49.9987 211.112 49.5173C211.395 49.0227 212.038 48.844 212.523 49.1414C213.022 49.4214 213.2 50.0827 212.906 50.5453Z" fill="#D19908"/>
<path d="M208.814 42.6627C208.506 43.1893 207.878 43.36 207.379 43.0453C206.905 42.7627 206.729 42.1293 207.003 41.6227C207.323 41.132 207.929 40.9573 208.443 41.272C208.941 41.5467 209.097 42.18 208.814 42.6627Z" fill="#D19908"/>
<path d="M204.817 40.3387C204.55 40.8467 203.899 41.0094 203.418 40.6987C202.933 40.4307 202.745 39.8054 203.051 39.292C203.326 38.7894 203.959 38.6387 204.466 38.9214C204.967 39.212 205.127 39.8494 204.817 40.3387Z" fill="#D19908"/>
<path d="M193.351 36.028C193.06 36.5174 192.419 36.6773 191.94 36.3867C191.453 36.096 191.264 35.4787 191.577 34.98C191.844 34.4733 192.495 34.2987 192.973 34.5853C193.479 34.9 193.647 35.5387 193.351 36.028Z" fill="#D19908"/>
<path d="M198.029 28.456C197.739 28.9547 197.077 29.1227 196.583 28.8467C196.097 28.552 195.929 27.9227 196.224 27.4013C196.531 26.9147 197.153 26.7427 197.651 27.0347C198.129 27.3293 198.321 27.9787 198.029 28.456Z" fill="#D19908"/>
<path d="M197.969 23.8773C197.663 24.364 197.029 24.5387 196.53 24.244C196.041 23.9493 195.882 23.304 196.179 22.8293C196.447 22.32 197.105 22.164 197.599 22.444C198.089 22.7507 198.269 23.384 197.969 23.8773Z" fill="#D19908"/>
<path d="M193.217 16.3427C192.941 16.848 192.295 16.992 191.794 16.696C191.329 16.4173 191.157 15.776 191.454 15.2787C191.722 14.788 192.371 14.6413 192.858 14.908C193.351 15.2227 193.519 15.856 193.217 16.3427Z" fill="#D19908"/>
<path d="M196 11.644C195.702 12.1107 195.068 12.2934 194.578 11.9947C194.084 11.716 193.925 11.0547 194.196 10.572C194.5 10.0867 195.124 9.92269 195.614 10.2214C196.132 10.504 196.284 11.1147 196 11.644Z" fill="#D19908"/>
<path d="M204.89 11.792C204.576 12.2867 203.95 12.4374 203.465 12.1414C202.974 11.86 202.808 11.2414 203.098 10.732C203.381 10.2334 204.002 10.0694 204.525 10.3494C204.992 10.636 205.15 11.3014 204.89 11.792Z" fill="#D19908"/>
<path d="M208.828 9.45334C208.547 9.96268 207.9 10.1227 207.405 9.81867C206.916 9.54001 206.728 8.90268 207.032 8.40801C207.339 7.91735 207.952 7.73868 208.461 8.03868C208.956 8.32401 209.132 8.96934 208.828 9.45334Z" fill="#D19908"/>
<path d="M195.954 40.5987C195.659 41.0773 195.038 41.244 194.543 40.9574C194.05 40.6667 193.878 40.0334 194.157 39.5547C194.443 39.044 195.086 38.8814 195.583 39.192C196.098 39.4587 196.241 40.112 195.954 40.5987Z" fill="#D19908"/>
<path d="M97.3318 111.909C97.3318 122.724 97.5665 124.171 103.936 124.792L107.453 125.107C108.128 125.534 107.884 127.375 107.255 127.685C100.975 127.49 97.1999 127.375 92.8207 127.375C88.442 127.375 84.5759 127.49 77.5311 127.685C76.8931 127.375 76.6707 125.605 77.5311 125.107L81.4999 124.792C87.7603 124.266 88.3259 122.724 88.3259 111.909V65.8787C88.3259 62.6827 88.3258 62.576 85.0264 62.576H78.9577C74.2712 62.576 68.1946 62.7867 65.4368 65.1773C62.7988 67.4453 61.7067 69.6933 60.4916 72.268C59.6067 72.872 58.0728 72.3747 57.6504 71.5573C59.3957 66.9147 60.842 63.0453 61.6269 58.9173L64.6753 57.204C65.3525 60.528 68.1947 59.396 73.2586 59.396H117.771C123.728 59.396 123.271 59.6067 125.307 58.252C125.817 57.9093 126.789 60.9013 127.004 61.3173C125.817 65.548 126.363 69.3693 126.709 72.4693C126.247 73.3027 124.385 73.3027 123.844 72.6653C123.497 70.1227 122.744 66.2893 121.071 65.1773C118.556 63.404 114.376 62.576 108.335 62.576H100.532C97.2358 62.576 97.3318 62.6827 97.3318 66.0867V111.909Z" fill="#D19908"/>
<path d="M161.3 56.5893L161.867 55.896H163.022C163.318 56.192 163.596 56.4467 163.743 56.8333L189.928 120.093C191.367 123.593 191.794 123.991 193.372 125.469C194.695 126.016 195.416 126.016 196.268 126.016C196.986 126.016 197.707 126.016 198.443 125.896V127.231C198.014 127.231 197.436 127.375 196.846 127.375C196.563 127.375 188.195 126.841 186.49 126.841C185.035 126.841 178.722 127.375 177.412 127.375C175.682 127.375 175.547 127.375 174.395 127.231V125.764C176.543 126.016 176.974 126.016 179.412 125.896C181.154 124.952 181.727 124.41 181.727 122.78C181.727 122.381 181.727 120.891 181.154 119.421L171.363 95.9533H148.05L140.434 114.16C139.836 115.511 138.552 119.273 138.552 121.437C138.552 123.733 139.552 124.8 140.434 125.605C141.57 126.016 142.566 126.016 143.422 126.016H146.02V127.231C145.172 127.375 145.028 127.375 143.299 127.375C142.147 127.375 136.971 126.841 135.52 126.841C133.078 126.841 129.483 127.375 128.028 127.375C126.459 127.375 126.303 127.375 125.598 127.231V125.764C126.886 126.016 127.18 126.016 129.762 125.896C131.212 124.952 133.934 122.923 135.951 118.073L161.3 56.5893ZM170.514 93.5227L159.715 68.044L149.042 93.5227H170.514Z" fill="#D19908"/>
<path d="M199.754 151.138C211.135 147.86 212.139 134.928 212.139 127.112V67.0987C212.139 63.604 212.139 58.344 205.242 58.344C204.382 58.344 203.377 58.344 202.505 58.4667V57.136C203.947 56.8333 205.242 56.7173 207.106 56.7173C208.546 56.7173 214.454 57.2507 215.738 57.2507C217.471 57.2507 224.963 56.8333 226.382 56.8333C227.989 56.8333 228.422 56.9973 229.418 57.2507V58.7427C228.55 58.4667 227.546 58.344 226.673 58.344C220.767 58.344 220.074 62.524 220.074 66.2893L219.902 126.167C219.902 134.275 215.606 147.198 199.754 152.339V151.138Z" fill="#D19908"/>
</svg>
