<?xml version="1.0" encoding="UTF-8"?><svg id="Layer_1" xmlns="http://www.w3.org/2000/svg" viewBox="0 0 284.96 41.31"><path d="M20.65,3.47h0c-4.73,0-9.02,1.93-12.13,5.04-3.11,3.11-5.04,7.41-5.04,12.14h0c0,4.73,1.93,9.03,5.04,12.14,3.11,3.11,7.41,5.04,12.14,5.04h0c4.73,0,9.02-1.93,12.13-5.04,3.11-3.11,5.04-7.41,5.04-12.14h0c0-4.73-1.93-9.03-5.04-12.14-3.11-3.11-7.41-5.04-12.14-5.04ZM20.65,0h0c5.69,0,10.85,2.32,14.59,6.06,3.74,3.74,6.06,8.9,6.06,14.59h0c0,5.69-2.32,10.86-6.06,14.6-3.74,3.74-8.9,6.06-14.59,6.06h0c-5.69,0-10.85-2.32-14.59-6.06C2.32,31.5,0,26.34,0,20.66h0c0-5.69,2.32-10.86,6.06-14.6C9.8,2.32,14.96,0,20.65,0h0Z" style="fill:#fff;"/><polygon points="10.68 22.53 12.63 22.53 21.38 6.33 21.47 10.73 15.57 22.53 17.48 22.53 20.67 15.89 20.73 15.76 29.23 15.76 28.1 18.31 22.32 18.31 20.3 22.53 26.31 22.53 25.24 25.07 19.07 25.07 16.83 29.74 23.25 29.74 22.15 32.28 12.75 32.28 13.99 29.74 14.02 29.74 16.26 25.07 9.92 25.07 10.68 22.53" style="fill:#fff; fill-rule:evenodd;"/><polygon points="57.23 11.86 60.94 11.86 60.94 26.87 66.65 26.87 66.65 30.23 60.94 30.23 58.39 30.23 57.23 30.23 57.23 11.86" style="fill:#fff; fill-rule:evenodd;"/><polygon points="83.47 11.86 87.17 11.86 87.17 26.87 92.88 26.87 92.88 30.23 87.17 30.23 84.63 30.23 83.47 30.23 83.47 11.86" style="fill:#fff; fill-rule:evenodd;"/><path d="M75.14,16.25l2.3,10.62h-4.58l2.28-10.62ZM78.16,11.86h-5.78l-3.95,18.37h3.75l.51-2.05,2.38,2.05h7.07l-3.97-18.37Z" style="fill:#fff; fill-rule:evenodd;"/><polygon points="137 30.23 132.85 30.23 132.85 11.99 137 11.99 138.11 11.99 144.06 22.67 144.06 11.99 148.22 11.99 148.22 30.12 148.28 30.23 148.22 30.23 144.06 30.23 143.02 30.23 137 19.44 137 30.23" style="fill:#fff; fill-rule:evenodd;"/><path d="M119.63,26.43c-2.9,0-5.27-2.54-5.27-5.65s2.37-5.65,5.27-5.65,5.27,2.54,5.27,5.65-2.37,5.65-5.27,5.65M119.63,12.87c4.27,0,7.75,3.55,7.75,7.9s-3.48,7.9-7.75,7.9-7.75-3.55-7.75-7.9,3.48-7.9,7.75-7.9ZM119.63,9.5c6.31,0,11.46,5.07,11.46,11.28s-5.15,11.28-11.46,11.28-11.46-5.07-11.46-11.28,5.15-11.28,11.46-11.28Z" style="fill:#fff; fill-rule:evenodd;"/><path d="M99.58,11.7h3.81v3.57c-1.9,0-4.93-.76-4.93,1.93h0c-.02.52.31,1.5,1.3,1.93l.4.04,1.51.04h0c1.57,0,2.98.66,3.99,1.71.94.99,1.52,2.33,1.53,3.79h0c0,1.46-.59,2.81-1.53,3.79-1.01,1.06-2.42,1.71-3.99,1.71h-6.14v-3.57h5.48c.38,0,.74-.18,1.02-.47.34-.36.56-.88.56-1.46h0c0-.59-.21-1.1-.56-1.47-.28-.29-.64-.47-1.02-.47h0l-.88-.08h0s-.56,0-.56,0h0c-1.57,0-2.98-.66-3.99-1.71-.94-.99-1.52-2.33-1.53-3.79h0c0-1.46.59-2.81,1.53-3.8,1.01-1.06,2.42-1.71,3.99-1.71h0Z" style="fill:#fff;"/><path d="M155.57,11.7h3.81v3.57c-1.9,0-4.93-.76-4.93,1.93h0c-.02.52.31,1.5,1.3,1.93l.4.04,1.51.04h0c1.57,0,2.98.66,3.98,1.71.94.99,1.53,2.33,1.53,3.79h0c0,1.46-.58,2.81-1.52,3.79-1.01,1.06-2.42,1.71-3.99,1.71h-6.14v-3.57h5.48c.38,0,.74-.18,1.02-.47.34-.36.56-.88.56-1.46h0c0-.59-.21-1.1-.56-1.47-.28-.29-.64-.47-1.02-.47h0l-.88-.08h0s-.56,0-.56,0h0c-1.57,0-2.98-.66-3.99-1.71-.94-.99-1.52-2.33-1.53-3.79h0c0-1.46.59-2.81,1.53-3.8,1.01-1.06,2.42-1.71,3.99-1.71h0Z" style="fill:#fff;"/><path d="M280.3,19.78c.65-.15,1.3-.28,1.97-.38.66-.1,1.06-.15,1.19-.15.1,0,.14.03.14.1,0,.13-.03.26-.11.4-.15.39-.23.77-.23,1.13,0,.44.29,1.05.85,1.83.57.77.85,1.49.85,2.15,0,1.31-.69,2.58-2.08,3.79-1.38,1.22-2.81,1.83-4.29,1.83-.64,0-1.23-.15-1.75-.46-.53-.31-.79-.64-.79-.99,0-.21.26-.6.79-1.17.52-.58.9-.87,1.12-.87.3,0,.58.35.81,1.06.24.7.64,1.05,1.22,1.05s1.12-.24,1.62-.73c.5-.48.76-1,.76-1.56s-.32-1.26-.97-2.16c-.64-.9-1.06-1.66-1.27-2.27-1.1,1.61-2.48,3.25-4.16,4.93h-.32v-1.16c2.31-2.24,3.87-4.36,4.67-6.38M275.95,27.32c-1.21,1.08-2.31,1.87-3.32,2.38-1,.51-2.05.76-3.15.76-1.23,0-2.24-.36-3.03-1.08-.8-.72-1.2-1.65-1.2-2.76,0-1.83.73-3.51,2.2-5.06,1.46-1.55,3.05-2.32,4.76-2.32.84,0,1.53.21,2.05.64.53.42.79.97.79,1.65,0,.24-.05.42-.14.54-.1.12-.29.24-.56.36l-1.64.71c-.2.09-.34.13-.44.13-.13,0-.2-.09-.2-.26,0-.07.03-.29.09-.68.05-.38.08-.61.08-.7,0-.38-.09-.68-.26-.91-.17-.23-.41-.35-.7-.35-.69,0-1.32.46-1.89,1.39-.57.93-.86,1.98-.86,3.16,0,1.02.27,1.83.81,2.44.54.61,1.25.91,2.15.91.76,0,1.48-.2,2.16-.6.67-.4,1.44-1.01,2.3-1.83v1.48ZM265.36,27.32c-2.21,2.11-3.86,3.16-4.96,3.16-.6,0-1.11-.28-1.53-.84-.42-.56-.62-1.26-.62-2.12,0-1.83.68-4.35,2.04-7.59l3.59-.68h.17l-1.42,4.03c-.58,1.66-.87,2.85-.87,3.56,0,.29.07.51.2.69.14.17.31.26.52.26.37,0,.74-.12,1.11-.37.37-.24.96-.77,1.76-1.59v1.48ZM265.07,14.23c0,2.06-.84,3.09-2.5,3.09-.81,0-1.51-.22-2.08-.67.55-.75.97-1.6,1.27-2.55.74.42,1.34.63,1.8.63.51,0,1.02-.17,1.51-.5ZM258.41,27.32c-2.18,2.09-4.04,3.13-5.6,3.13-.63,0-1.14-.2-1.53-.6-.39-.4-.58-.94-.58-1.62,0-.92.42-2.32,1.25-4.2.44-1.01.66-1.66.66-1.93s-.12-.41-.35-.41c-.13,0-.3.06-.52.18-.2.12-.43.29-.7.5-.24.2-.5.43-.79.72-.26.24-.53.51-.82.82l-.79.84c-.35.38-.56.79-.65,1.22-.14.73-.24,1.4-.28,2.01-.03.45-.04,1.07-.04,1.84l-3.13.67c-.1-1.16-.15-2.02-.15-2.59,0-1.38.18-2.69.53-3.92.35-1.23.92-2.63,1.7-4.17l3.45-.61c-.72,1.77-1.2,3.17-1.43,4.19,1.55-1.57,2.78-2.66,3.69-3.26.91-.6,1.72-.9,2.43-.9.48,0,.88.16,1.2.5.32.33.48.74.48,1.24,0,.82-.41,2.18-1.22,4.07-.56,1.29-.83,2.13-.83,2.52,0,.51.23.77.69.77.69,0,1.8-.83,3.34-2.48v1.48ZM239.85,20.13c-.14-.05-.35-.08-.61-.08-1.23,0-2.19.58-2.88,1.75-.69,1.16-1.04,2.53-1.04,4.09,0,.87.15,1.54.45,2.02.3.48.72.72,1.26.72.67,0,1.4-.56,2.18-1.68-.89-1.01-1.33-2.1-1.33-3.27,0-1.37.66-2.56,1.97-3.55ZM244.52,27.32c-.48.38-.95.65-1.4.82-.45.16-.81.24-1.07.24-.68,0-1.36-.24-2.02-.72-1.36,1.87-2.92,2.8-4.67,2.8-1.1,0-1.98-.37-2.66-1.12-.68-.74-1.02-1.73-1.02-2.97,0-1.96.76-3.63,2.3-5.03,1.53-1.4,3.35-2.1,5.48-2.1.8,0,1.39.08,1.76.24.37.16.6.35.69.56.09.21.13.49.13.81,0,1.6-.48,3.57-1.44,5.9.48.4.99.6,1.51.6.63,0,1.44-.5,2.44-1.5v1.48ZM231.81,27.32c-2.37,2.11-4.19,3.16-5.48,3.16-.58,0-1.06-.22-1.46-.66-.4-.44-.59-.99-.59-1.64,0-1.21.72-2.83,2.14-4.86-.7.33-1.46.55-2.3.68-.61,1.03-1.57,2.13-2.89,3.32h-.32v-1.16c.73-.69,1.4-1.44,2-2.24-.81-.33-1.22-.81-1.22-1.45s.25-1.37.74-2.12c.49-.75,1.18-1.12,2.04-1.12.74,0,1.11.34,1.11,1.03,0,.54-.21,1.31-.64,2.31,1.57-.15,2.93-1.24,4.11-3.27l1.29-.05-1.31,3.29c-.55,1.39-.9,2.33-1.06,2.84-.16.5-.24.94-.24,1.33,0,.36.09.65.28.86.18.21.43.32.74.32.34,0,.67-.11.98-.31.31-.21,1.01-.8,2.1-1.74v1.48ZM221.24,27.32c-1.19,1.07-2.22,1.86-3.09,2.37-.86.51-1.69.76-2.47.76s-1.47-.31-1.98-.93c-.51-.62-.76-1.44-.76-2.45,0-.89.24-2.07.71-3.54l.62-1.94-1.09.05.45-2.02,1.34-.05,1.33-4.01,3.8-.71-1.44,4.47,1.97-.1-.47,1.98-2.19.15-.95,2.88c-.32,1-.48,1.8-.48,2.39,0,.4.11.73.33.98.22.25.51.38.85.38.48,0,.96-.14,1.43-.42.47-.28,1.17-.86,2.08-1.74v1.48ZM213.08,27.32c-1.21,1.08-2.31,1.87-3.32,2.38-1,.51-2.05.76-3.15.76-1.23,0-2.24-.36-3.03-1.08-.8-.72-1.2-1.65-1.2-2.76,0-1.83.73-3.51,2.2-5.06,1.46-1.55,3.05-2.32,4.76-2.32.84,0,1.53.21,2.05.64.53.42.79.97.79,1.65,0,.24-.05.42-.14.54-.1.12-.29.24-.56.36l-1.64.71c-.2.09-.34.13-.44.13-.13,0-.2-.09-.2-.26,0-.07.03-.29.09-.68.05-.38.08-.61.08-.7,0-.38-.09-.68-.26-.91-.17-.23-.41-.35-.7-.35-.69,0-1.32.46-1.89,1.39-.57.93-.86,1.98-.86,3.16,0,1.02.27,1.83.81,2.44.54.61,1.25.91,2.15.91.76,0,1.48-.2,2.16-.6.67-.4,1.44-1.01,2.3-1.83v1.48ZM195.08,24.94c2.42-.62,3.62-1.76,3.62-3.42,0-.82-.33-1.23-.99-1.23s-1.22.43-1.79,1.29c-.57.87-.85,1.99-.85,3.37ZM202.5,27.32c-1.2,1.07-2.28,1.86-3.23,2.37-.95.51-2.01.76-3.16.76-1.29,0-2.32-.37-3.11-1.12-.79-.74-1.18-1.73-1.18-2.94,0-1.82.69-3.46,2.08-4.93,1.39-1.47,2.92-2.2,4.61-2.2.87,0,1.58.2,2.11.61.53.41.79.95.79,1.62,0,1.78-2.07,3.22-6.23,4.32.38,1.67,1.36,2.51,2.96,2.51.62,0,1.22-.15,1.79-.46.56-.3,1.42-.98,2.56-2.02v1.48ZM186.49,22.29c1.2-1.21,2.17-2.56,2.91-4.07.75-1.5,1.12-2.79,1.12-3.87,0-.32-.05-.57-.15-.76-.11-.19-.24-.29-.4-.29-.35,0-.86.79-1.52,2.37-.67,1.58-1.32,3.79-1.96,6.63ZM191.91,27.32c-1.29,1.07-2.41,1.86-3.38,2.37-.97.51-1.89.76-2.77.76-1.01,0-1.82-.36-2.44-1.07-.62-.71-.93-1.67-.93-2.87,0-1.8.43-3.96,1.29-6.48.86-2.52,1.9-4.84,3.13-6.97l3.59-1.21c.12-.03.2-.05.26-.05.28,0,.5.19.67.55.17.36.26.86.26,1.47,0,1.75-.44,3.44-1.33,5.08-.89,1.64-2.28,3.38-4.16,5.25-.08.89-.12,1.51-.12,1.84,0,.74.15,1.33.45,1.77.3.44.71.65,1.2.65s1.05-.17,1.63-.5c.58-.33,1.45-1.03,2.63-2.08v1.48ZM182.55,27.32c-1.22,1.08-2.44,1.87-3.66,2.38-1.23.51-2.61.76-4.16.76-2.05,0-3.69-.45-4.92-1.35-1.23-.9-1.84-2.09-1.84-3.55,0-1.28.5-2.4,1.51-3.36,1.01-.96,2.56-1.64,4.64-2.01-2.01-.7-3.02-1.87-3.02-3.51,0-1.31.7-2.44,2.08-3.4,1.39-.96,3.06-1.44,5.01-1.44,1.41,0,2.43.25,3.06.76.63.5.95.96.95,1.37,0,.25-.24.65-.71,1.19-.47.54-.82.81-1.03.81-.26,0-.44-.33-.55-.98-.27-1.46-.91-2.19-1.94-2.19-.8,0-1.53.41-2.18,1.22-.65.82-.98,1.74-.98,2.77,0,1.65.88,2.47,2.66,2.47.29,0,.49.01.59.04.1.03.16.11.16.22,0,.32-.07.68-.21,1.08-.14.39-.32.58-.54.58-.07,0-.3-.02-.71-.07-.41-.05-.76-.07-1.06-.07-1,0-1.86.37-2.58,1.12-.72.75-1.07,1.65-1.07,2.7,0,1.14.42,2.09,1.26,2.84.84.75,1.9,1.12,3.18,1.12,1.06,0,2.12-.25,3.18-.77,1.05-.52,2.02-1.26,2.88-2.21v1.48Z" style="fill:#fff;"/></svg>